<?xml version="1.0" standalone="no"?>
<!DOCTYPE svg PUBLIC "-//W3C//DTD SVG 1.1//EN" "http://www.w3.org/Graphics/SVG/1.1/DTD/svg11.dtd" >
<svg xmlns="http://www.w3.org/2000/svg" xmlns:xlink="http://www.w3.org/1999/xlink" version="1.1">
<metadata>
Created by FontForge 20190801 at Fri Sep  7 15:58:00 2018
 By Jimmy Wärting
Copyright 2018 The Kodchasan Project Authors (https://github.com/cadsondemak/Kodchasan)
</metadata>
<defs>
<font id="Kodchasan-Regular" horiz-adv-x="0" >
  <font-face 
    font-family="Kodchasan"
    font-weight="400"
    font-stretch="normal"
    units-per-em="1000"
    panose-1="0 0 5 0 0 0 0 0 0 0"
    ascent="800"
    descent="-200"
    x-height="490"
    cap-height="710"
    bbox="-688 -510 1219 1192"
    underline-thickness="50"
    underline-position="-100"
    unicode-range="U+000D-FB02"
  />
<missing-glyph horiz-adv-x="729" 
d="M96 848h536v-848h-536v848zM583 50v748h-439v-748h439z" />
    <glyph glyph-name="fi" unicode="fi" horiz-adv-x="634" 
d="M549 487q10 -10 10 -29v-428q0 -18 -9.5 -29t-27.5 -11q-17 0 -26.5 10.5t-9.5 29.5v407h-290v-407q0 -19 -9.5 -29.5t-26.5 -10.5t-27 10.5t-10 29.5v407h-47q-20 0 -30.5 8t-10.5 22q0 30 41 30h47v52q0 89 55 139.5t152 50.5q62 0 115 -21.5t82 -55.5q9 -10 9 -22
q0 -13 -13 -25q-10 -8 -19 -8q-14 0 -30 16q-26 24 -65.5 38.5t-78.5 14.5q-64 0 -99 -32t-35 -91v-56h326q17 0 27 -10z" />
    <glyph glyph-name="fl" unicode="fl" horiz-adv-x="650" 
d="M133 0.5q-10 10.5 -10 29.5v407h-47q-19 0 -30 7.5t-11 22.5q0 30 41 30h47v52q0 89 55 139.5t152 50.5q121 0 197 -61q16 -13 24 -27t8 -32v-589q0 -18 -9.5 -29t-27.5 -11q-17 0 -26.5 10.5t-9.5 29.5v407h-290v-407q0 -18 -9 -29t-27 -11q-17 0 -27 10.5zM486 497v129
q-56 50 -156 50q-64 0 -99 -32t-35 -91v-56h290z" />
    <glyph glyph-name="uni0E240E45" unicode="&#xe24;&#xe45;" horiz-adv-x="1015" 
d="M888.5 533.5q54.5 -50.5 54.5 -141.5l-1 -622q0 -18 -9 -29t-28 -11t-28 11t-9 29l1 622q0 64 -34 96.5t-101 32.5q-80 0 -153 -53q30 -57 30 -138v-560q0 -19 -9.5 -29.5t-27.5 -10.5t-28 10.5t-10 29.5v562q0 93 -47 141t-139 48q-81 0 -144 -40t-84 -104l66 -46
q21 18 54 29q8 3 14 3q7 0 11.5 -4.5t7.5 -14.5t3 -17q0 -15 -16 -19q-36 -11 -56 -37.5t-20 -62.5v-44q10 7 26.5 11.5t29.5 4.5q46 0 73 -25.5t27 -68.5t-31 -69.5t-82 -26.5q-52 0 -83.5 28.5t-31.5 75.5v101q0 57 31 92l-71 51q-12 8 -17 14t-5 14q0 6 3 15
q28 93 107.5 148t187.5 55q125 0 192 -65q41 32 90.5 48.5t103.5 16.5q98 0 152.5 -50.5zM188 119.5q-15 -12.5 -15 -34.5q0 -21 15 -33.5t41 -12.5t41.5 12t15.5 34t-15 34.5t-42 12.5q-26 0 -41 -12.5z" />
    <glyph glyph-name="uni0E260E45" unicode="&#xe26;&#xe45;" horiz-adv-x="1039" 
d="M913.5 533.5q54.5 -50.5 54.5 -141.5v-622q0 -18 -9.5 -29t-28.5 -11q-17 0 -26.5 10.5t-9.5 29.5v622q0 64 -34 96.5t-101 32.5q-78 0 -149 -50q33 -61 33 -144v-558q0 -18 -9.5 -29t-27.5 -11t-28 11t-10 29v560q0 93 -48 142.5t-139 49.5q-81 0 -143.5 -39.5
t-84.5 -104.5l90 -48q9 8 26 17t30 13l12 2q16 0 22 -19q3 -9 3 -15q0 -15 -17 -21q-28 -11 -39 -29t-11 -48v-134q0 -48 -31.5 -76.5t-83.5 -28.5t-82.5 25t-30.5 69q0 42 29 69t73 27q15 0 30 -4t24 -10v62q0 32 10 56l-102 52q-12 5 -17 11.5t-5 15.5q0 8 3 18
q28 92 108.5 147.5t186.5 55.5q120 0 189 -63q41 31 90 47t102 16q97 0 151.5 -50.5zM196 51.5q15 12.5 15 33.5q0 22 -15 34.5t-41 12.5q-27 0 -42 -12.5t-15 -34.5t15.5 -34t41.5 -12t41 12.5z" />
    <glyph glyph-name=".notdef" horiz-adv-x="729" 
d="M96 848h536v-848h-536v848zM583 50v748h-439v-748h439z" />
    <glyph glyph-name="NULL" 
 />
    <glyph glyph-name="NULL" 
 />
    <glyph glyph-name="nonmarkingreturn" unicode="&#xd;" horiz-adv-x="268" 
 />
    <glyph glyph-name="space" unicode=" " horiz-adv-x="268" 
 />
    <glyph glyph-name="A" unicode="A" horiz-adv-x="728" 
d="M85 0.5q-10 10.5 -10 29.5v391q0 136 76.5 212.5t212.5 76.5q135 0 212 -77t77 -212v-391q0 -19 -10 -29.5t-28 -10.5q-17 0 -27.5 10.5t-10.5 29.5v225h-427v-225q0 -19 -10 -29.5t-28 -10.5q-17 0 -27 10.5zM577 317v107q0 107 -55 164.5t-158 57.5q-104 0 -159 -57
t-55 -165v-107h427z" />
    <glyph glyph-name="Aacute" unicode="&#xc1;" horiz-adv-x="728" 
d="M85 0.5q-10 10.5 -10 29.5v391q0 136 76.5 212.5t212.5 76.5q135 0 212 -77t77 -212v-391q0 -19 -10 -29.5t-28 -10.5q-17 0 -27.5 10.5t-10.5 29.5v225h-427v-225q0 -19 -10 -29.5t-28 -10.5q-17 0 -27 10.5zM577 317v107q0 107 -55 164.5t-158 57.5q-104 0 -159 -57
t-55 -165v-107h427zM339 810q0 7 3 13l62 141q12 28 33 28q10 0 19 -5q20 -10 20 -27q0 -9 -6 -20l-78 -138q-9 -17 -26 -17q-6 0 -12 3q-15 7 -15 22z" />
    <glyph glyph-name="Abreve" unicode="&#x102;" horiz-adv-x="728" 
d="M85 0.5q-10 10.5 -10 29.5v391q0 136 76.5 212.5t212.5 76.5q135 0 212 -77t77 -212v-391q0 -19 -10 -29.5t-28 -10.5q-17 0 -27.5 10.5t-10.5 29.5v225h-427v-225q0 -19 -10 -29.5t-28 -10.5q-17 0 -27 10.5zM577 317v107q0 107 -55 164.5t-158 57.5q-104 0 -159 -57
t-55 -165v-107h427zM251 827q-42 42 -42 105q0 39 34 39t34 -39q0 -42 22 -67t65 -25t64.5 25t21.5 67q0 39 34 39t34 -39q0 -63 -41.5 -105t-112.5 -42t-113 42z" />
    <glyph glyph-name="uni1EAE" unicode="&#x1eae;" horiz-adv-x="728" 
d="M85 0.5q-10 10.5 -10 29.5v391q0 136 76.5 212.5t212.5 76.5q135 0 212 -77t77 -212v-391q0 -19 -10 -29.5t-28 -10.5q-17 0 -27.5 10.5t-10.5 29.5v225h-427v-225q0 -19 -10 -29.5t-28 -10.5q-17 0 -27 10.5zM577 317v107q0 107 -55 164.5t-158 57.5q-104 0 -159 -57
t-55 -165v-107h427zM333 941q0 8 5 16l61 103q13 21 32 21q8 0 18 -5q17 -10 17 -27q0 -11 -8 -21l-77 -97q-12 -14 -23 -14q-6 0 -14 5q-11 8 -11 19zM279 794q-35 18 -53.5 47t-18.5 62q0 37 34 37q18 0 26 -9t8 -28q0 -32 21 -51.5t66 -19.5q44 0 65.5 19.5t21.5 51.5
q0 37 34 37t34 -37q0 -33 -18.5 -62t-53.5 -47t-83 -18t-83 18z" />
    <glyph glyph-name="uni1EB6" unicode="&#x1eb6;" horiz-adv-x="728" 
d="M85 0.5q-10 10.5 -10 29.5v391q0 136 76.5 212.5t212.5 76.5q135 0 212 -77t77 -212v-391q0 -19 -10 -29.5t-28 -10.5q-17 0 -27.5 10.5t-10.5 29.5v225h-427v-225q0 -19 -10 -29.5t-28 -10.5q-17 0 -27 10.5zM577 317v107q0 107 -55 164.5t-158 57.5q-104 0 -159 -57
t-55 -165v-107h427zM325.5 -164.5q-15.5 14.5 -15.5 35.5q0 22 15.5 37t38.5 15q22 0 37 -15t15 -37q0 -21 -15 -35.5t-37 -14.5q-23 0 -38.5 14.5zM251 827q-42 42 -42 105q0 39 34 39t34 -39q0 -42 22 -67t65 -25t64.5 25t21.5 67q0 39 34 39t34 -39q0 -63 -41.5 -105
t-112.5 -42t-113 42z" />
    <glyph glyph-name="uni1EB0" unicode="&#x1eb0;" horiz-adv-x="728" 
d="M85 0.5q-10 10.5 -10 29.5v391q0 136 76.5 212.5t212.5 76.5q135 0 212 -77t77 -212v-391q0 -19 -10 -29.5t-28 -10.5q-17 0 -27.5 10.5t-10.5 29.5v225h-427v-225q0 -19 -10 -29.5t-28 -10.5q-17 0 -27 10.5zM577 317v107q0 107 -55 164.5t-158 57.5q-104 0 -159 -57
t-55 -165v-107h427zM366 917q-10 0 -22 14l-77 97q-8 11 -8 22q0 17 15 25q10 6 21 6q19 0 31 -21l60 -103q5 -8 5 -17q0 -12 -10 -18q-8 -5 -15 -5zM280 794q-35 18 -53.5 47t-18.5 62q0 37 34 37q18 0 26 -9t8 -28q0 -32 21 -51.5t66 -19.5q44 0 65.5 19.5t21.5 51.5
q0 37 34 37t34 -37q0 -33 -18.5 -62t-53.5 -47t-83 -18t-83 18z" />
    <glyph glyph-name="uni1EB2" unicode="&#x1eb2;" horiz-adv-x="728" 
d="M85 0.5q-10 10.5 -10 29.5v391q0 136 76.5 212.5t212.5 76.5q135 0 212 -77t77 -212v-391q0 -19 -10 -29.5t-28 -10.5q-17 0 -27.5 10.5t-10.5 29.5v225h-427v-225q0 -19 -10 -29.5t-28 -10.5q-17 0 -27 10.5zM577 317v107q0 107 -55 164.5t-158 57.5q-104 0 -159 -57
t-55 -165v-107h427zM333 929v7q0 16 9 27t27 26q14 10 21 18t7 18q0 13 -9 21t-26 8q-18 0 -28 -5t-18 -16q-11 -13 -21 -13q-3 0 -13 4q-13 7 -13 19q0 6 5 14q12 19 36.5 31.5t56.5 12.5q45 0 66.5 -20t21.5 -51q0 -19 -9 -31t-27 -27q-14 -11 -20.5 -18.5t-6.5 -18.5v-6
q0 -25 -30 -25q-29 0 -29 25zM280 794q-35 18 -53.5 47t-18.5 62q0 37 34 37q18 0 26 -9t8 -28q0 -32 21 -51.5t66 -19.5q44 0 65.5 19.5t21.5 51.5q0 37 34 37t34 -37q0 -33 -18.5 -62t-53.5 -47t-83 -18t-83 18z" />
    <glyph glyph-name="uni1EB4" unicode="&#x1eb4;" horiz-adv-x="728" 
d="M85 0.5q-10 10.5 -10 29.5v391q0 136 76.5 212.5t212.5 76.5q135 0 212 -77t77 -212v-391q0 -19 -10 -29.5t-28 -10.5q-17 0 -27.5 10.5t-10.5 29.5v225h-427v-225q0 -19 -10 -29.5t-28 -10.5q-17 0 -27 10.5zM577 317v107q0 107 -55 164.5t-158 57.5q-104 0 -159 -57
t-55 -165v-107h427zM204 989q-4 5 -4 14q0 2 2 14q8 33 32 53.5t58 20.5q23 0 41 -8.5t41 -23.5q16 -12 27.5 -17.5t22.5 -5.5q17 0 27 10.5t17 29.5q7 21 24 21q13 0 20 -6t7 -17q0 -4 -2 -12q-8 -34 -32 -54.5t-59 -20.5q-20 0 -35.5 7.5t-38.5 22.5q-17 13 -29.5 19
t-27.5 6q-31 0 -44 -41q-7 -20 -24 -20q-6 0 -9 1q-10 2 -14 7zM280 794q-35 18 -53.5 47t-18.5 62q0 37 34 37q18 0 26 -9t8 -28q0 -32 21 -51.5t66 -19.5q44 0 65.5 19.5t21.5 51.5q0 37 34 37t34 -37q0 -33 -18.5 -62t-53.5 -47t-83 -18t-83 18z" />
    <glyph glyph-name="uni01CD" unicode="&#x1cd;" horiz-adv-x="728" 
d="M85 0.5q-10 10.5 -10 29.5v391q0 136 76.5 212.5t212.5 76.5q135 0 212 -77t77 -212v-391q0 -19 -10 -29.5t-28 -10.5q-17 0 -27.5 10.5t-10.5 29.5v225h-427v-225q0 -19 -10 -29.5t-28 -10.5q-17 0 -27 10.5zM577 317v107q0 107 -55 164.5t-158 57.5q-104 0 -159 -57
t-55 -165v-107h427zM332 800l-106 127q-10 13 -10 23q0 13 15 25q8 7 19 7q15 0 31 -20l83 -112l84 112q14 20 32 20q8 0 17 -6q15 -10 15 -26q0 -13 -10 -24l-105 -126q-14 -17 -33 -17q-18 0 -32 17z" />
    <glyph glyph-name="Acircumflex" unicode="&#xc2;" horiz-adv-x="728" 
d="M85 0.5q-10 10.5 -10 29.5v391q0 136 76.5 212.5t212.5 76.5q135 0 212 -77t77 -212v-391q0 -19 -10 -29.5t-28 -10.5q-17 0 -27.5 10.5t-10.5 29.5v225h-427v-225q0 -19 -10 -29.5t-28 -10.5q-17 0 -27 10.5zM577 317v107q0 107 -55 164.5t-158 57.5q-104 0 -159 -57
t-55 -165v-107h427zM216 816q0 10 10 23l106 126q14 17 32 17t32 -17l106 -126q10 -12 10 -23q0 -14 -14 -25q-10 -7 -20 -7q-15 0 -30 19l-84 112l-84 -112q-15 -20 -31 -20q-7 0 -18 7q-15 12 -15 26z" />
    <glyph glyph-name="uni1EA4" unicode="&#x1ea4;" horiz-adv-x="728" 
d="M85 0.5q-10 10.5 -10 29.5v391q0 136 76.5 212.5t212.5 76.5q135 0 212 -77t77 -212v-391q0 -19 -10 -29.5t-28 -10.5q-17 0 -27.5 10.5t-10.5 29.5v225h-427v-225q0 -19 -10 -29.5t-28 -10.5q-17 0 -27 10.5zM577 317v107q0 107 -55 164.5t-158 57.5q-104 0 -159 -57
t-55 -165v-107h427zM450 949q0 8 5 16l62 103q12 21 31 21q9 0 20 -6q15 -9 15 -24q0 -12 -8 -22l-77 -98q-12 -14 -23 -14q-6 0 -14 5q-11 6 -11 19zM216 816q0 12 10 22l106 112q9 9 15.5 13t16.5 4t16.5 -4t15.5 -13l106 -111q10 -10 10 -23q0 -15 -15 -26q-9 -6 -17 -6
q-16 0 -32 19l-84 97l-84 -98q-17 -19 -31 -19q-8 0 -18 7q-15 12 -15 26z" />
    <glyph glyph-name="uni1EAC" unicode="&#x1eac;" horiz-adv-x="728" 
d="M85 0.5q-10 10.5 -10 29.5v391q0 136 76.5 212.5t212.5 76.5q135 0 212 -77t77 -212v-391q0 -19 -10 -29.5t-28 -10.5q-17 0 -27.5 10.5t-10.5 29.5v225h-427v-225q0 -19 -10 -29.5t-28 -10.5q-17 0 -27 10.5zM577 317v107q0 107 -55 164.5t-158 57.5q-104 0 -159 -57
t-55 -165v-107h427zM325.5 -164.5q-15.5 14.5 -15.5 35.5q0 22 15.5 37t38.5 15q22 0 37 -15t15 -37q0 -21 -15 -35.5t-37 -14.5q-23 0 -38.5 14.5zM216 816q0 10 10 23l106 126q14 17 32 17t32 -17l106 -126q10 -12 10 -23q0 -14 -14 -25q-10 -7 -20 -7q-15 0 -30 19
l-84 112l-84 -112q-15 -20 -31 -20q-7 0 -18 7q-15 12 -15 26z" />
    <glyph glyph-name="uni1EA6" unicode="&#x1ea6;" horiz-adv-x="728" 
d="M85 0.5q-10 10.5 -10 29.5v391q0 136 76.5 212.5t212.5 76.5q135 0 212 -77t77 -212v-391q0 -19 -10 -29.5t-28 -10.5q-17 0 -27.5 10.5t-10.5 29.5v225h-427v-225q0 -19 -10 -29.5t-28 -10.5q-17 0 -27 10.5zM577 317v107q0 107 -55 164.5t-158 57.5q-104 0 -159 -57
t-55 -165v-107h427zM510 925q-11 0 -23 14l-77 98q-8 10 -8 21q0 16 17 26q10 5 18 5q19 0 32 -21l61 -103q5 -10 5 -17q0 -11 -12 -19q-5 -4 -13 -4zM216 816q0 12 10 22l106 112q9 9 15.5 13t16.5 4q16 0 32 -17l106 -111q10 -10 10 -23q0 -15 -15 -26q-9 -6 -17 -6
q-16 0 -32 19l-84 97l-84 -98q-17 -19 -31 -19q-8 0 -18 7q-15 12 -15 26z" />
    <glyph glyph-name="uni1EA8" unicode="&#x1ea8;" horiz-adv-x="728" 
d="M85 0.5q-10 10.5 -10 29.5v391q0 136 76.5 212.5t212.5 76.5q135 0 212 -77t77 -212v-391q0 -19 -10 -29.5t-28 -10.5q-17 0 -27.5 10.5t-10.5 29.5v225h-427v-225q0 -19 -10 -29.5t-28 -10.5q-17 0 -27 10.5zM577 317v107q0 107 -55 164.5t-158 57.5q-104 0 -159 -57
t-55 -165v-107h427zM442 945v8q0 15 9 26t27 26q14 10 21 18t7 18q0 13 -9 21t-26 8q-16 0 -27 -5t-20 -16q-10 -12 -20 -12q-6 0 -13 4q-13 8 -13 18q0 6 5 14q13 20 36.5 32t56.5 12q45 0 66.5 -20t21.5 -51q0 -19 -9 -31t-27 -27q-13 -10 -19.5 -18t-6.5 -18v-7
q0 -25 -30 -25t-30 25zM216 816q0 12 10 22l106 112q9 9 15.5 13t16.5 4q16 0 32 -17l106 -111q10 -10 10 -23q0 -15 -15 -26q-9 -6 -17 -6q-16 0 -32 19l-84 97l-84 -98q-17 -19 -31 -19q-8 0 -18 7q-15 12 -15 26z" />
    <glyph glyph-name="uni1EAA" unicode="&#x1eaa;" horiz-adv-x="728" 
d="M85 0.5q-10 10.5 -10 29.5v391q0 136 76.5 212.5t212.5 76.5q135 0 212 -77t77 -212v-391q0 -19 -10 -29.5t-28 -10.5q-17 0 -27.5 10.5t-10.5 29.5v225h-427v-225q0 -19 -10 -29.5t-28 -10.5q-17 0 -27 10.5zM577 317v107q0 107 -55 164.5t-158 57.5q-104 0 -159 -57
t-55 -165v-107h427zM210 1006q0 3 2 13q8 33 32.5 53t57.5 20q23 0 41 -8.5t41 -23.5q16 -12 27.5 -17.5t22.5 -5.5q31 0 44 40q7 21 23 21q28 0 28 -23q0 -4 -2 -14q-8 -31 -32 -52t-58 -21q-21 0 -38 8t-37 22q-19 12 -30.5 18t-26.5 6t-26.5 -10t-16.5 -27
q-7 -23 -23 -23l-12 2q-17 5 -17 22zM217 816q0 13 10 23l105 112q16 17 32 17q20 0 32 -17l106 -112q10 -10 10 -23q0 -14 -14 -25q-8 -7 -19 -7q-15 0 -31 19l-84 98l-83 -98q-16 -19 -31 -19q-9 0 -20 8q-13 9 -13 24z" />
    <glyph glyph-name="Adieresis" unicode="&#xc4;" horiz-adv-x="728" 
d="M85 0.5q-10 10.5 -10 29.5v391q0 136 76.5 212.5t212.5 76.5q135 0 212 -77t77 -212v-391q0 -19 -10 -29.5t-28 -10.5q-17 0 -27.5 10.5t-10.5 29.5v225h-427v-225q0 -19 -10 -29.5t-28 -10.5q-17 0 -27 10.5zM577 317v107q0 107 -55 164.5t-158 57.5q-104 0 -159 -57
t-55 -165v-107h427zM226 819.5q-15 14.5 -15 34.5q0 21 14.5 35.5t36.5 14.5q20 0 34.5 -15t14.5 -35t-14.5 -34.5t-34.5 -14.5q-21 0 -36 14.5zM433 819.5q-15 14.5 -15 34.5t15 35t36 15q20 0 35 -15t15 -35t-15 -34.5t-35 -14.5q-21 0 -36 14.5z" />
    <glyph glyph-name="uni1EA0" unicode="&#x1ea0;" horiz-adv-x="728" 
d="M85 0.5q-10 10.5 -10 29.5v391q0 136 76.5 212.5t212.5 76.5q135 0 212 -77t77 -212v-391q0 -19 -10 -29.5t-28 -10.5q-17 0 -27.5 10.5t-10.5 29.5v225h-427v-225q0 -19 -10 -29.5t-28 -10.5q-17 0 -27 10.5zM577 317v107q0 107 -55 164.5t-158 57.5q-104 0 -159 -57
t-55 -165v-107h427zM325.5 -164.5q-15.5 14.5 -15.5 35.5q0 22 15.5 37t38.5 15q22 0 37 -15t15 -37q0 -21 -15 -35.5t-37 -14.5q-23 0 -38.5 14.5z" />
    <glyph glyph-name="Agrave" unicode="&#xc0;" horiz-adv-x="728" 
d="M85 0.5q-10 10.5 -10 29.5v391q0 136 76.5 212.5t212.5 76.5q135 0 212 -77t77 -212v-391q0 -19 -10 -29.5t-28 -10.5q-17 0 -27.5 10.5t-10.5 29.5v225h-427v-225q0 -19 -10 -29.5t-28 -10.5q-17 0 -27 10.5zM577 317v107q0 107 -55 164.5t-158 57.5q-104 0 -159 -57
t-55 -165v-107h427zM364 785q-17 0 -26 17l-78 138q-6 11 -6 20q0 17 20 27q9 5 19 5q21 0 33 -28l62 -141q3 -7 3 -14q0 -14 -15 -21q-6 -3 -12 -3z" />
    <glyph glyph-name="uni1EA2" unicode="&#x1ea2;" horiz-adv-x="728" 
d="M85 0.5q-10 10.5 -10 29.5v391q0 136 76.5 212.5t212.5 76.5q135 0 212 -77t77 -212v-391q0 -19 -10 -29.5t-28 -10.5q-17 0 -27.5 10.5t-10.5 29.5v225h-427v-225q0 -19 -10 -29.5t-28 -10.5q-17 0 -27 10.5zM577 317v107q0 107 -55 164.5t-158 57.5q-104 0 -159 -57
t-55 -165v-107h427zM332 786v8q0 17 10 29.5t29 27.5q17 14 24 21.5t7 18.5q0 15 -9.5 23.5t-28.5 8.5q-34 0 -54 -26q-10 -13 -23 -13q-6 0 -13 3q-15 9 -15 21q0 6 5 14q14 22 42 37.5t64 15.5q48 0 73 -22.5t25 -56.5q0 -21 -10.5 -34.5t-30.5 -28.5q-16 -13 -22.5 -20.5
t-6.5 -18.5v-8q0 -28 -34 -28q-32 0 -32 28z" />
    <glyph glyph-name="Amacron" unicode="&#x100;" horiz-adv-x="728" 
d="M85 0.5q-10 10.5 -10 29.5v391q0 136 76.5 212.5t212.5 76.5q135 0 212 -77t77 -212v-391q0 -19 -10 -29.5t-28 -10.5q-17 0 -27.5 10.5t-10.5 29.5v225h-427v-225q0 -19 -10 -29.5t-28 -10.5q-17 0 -27 10.5zM577 317v107q0 107 -55 164.5t-158 57.5q-104 0 -159 -57
t-55 -165v-107h427zM206 800q0 15 9 20.5t27 5.5h245q17 0 26.5 -5t9.5 -21q0 -26 -36 -26h-245q-36 0 -36 26z" />
    <glyph glyph-name="Aogonek" unicode="&#x104;" horiz-adv-x="728" 
d="M698 -152q0 -10 -10 -20q-19 -19 -40 -27.5t-49 -8.5q-49 0 -78.5 24.5t-29.5 64.5q0 37 22 69.5t65 67.5q-1 4 -1 12v225h-427v-225q0 -19 -10 -29.5t-28 -10.5q-17 0 -27 10.5t-10 29.5v391q0 136 76.5 212.5t212.5 76.5q135 0 212 -77t77 -212v-391q0 -15 -6.5 -25
t-18.5 -13q-41 -33 -58 -55t-17 -52q0 -18 13.5 -29.5t36.5 -11.5q31 0 53 20q8 8 18 8q9 0 16 -7q8 -8 8 -17zM577 424q0 107 -55 164.5t-158 57.5q-104 0 -159 -57t-55 -165v-107h427v107z" />
    <glyph glyph-name="Aring" unicode="&#xc5;" horiz-adv-x="728" 
d="M85 0.5q-10 10.5 -10 29.5v391q0 136 76.5 212.5t212.5 76.5q135 0 212 -77t77 -212v-391q0 -19 -10 -29.5t-28 -10.5q-17 0 -27.5 10.5t-10.5 29.5v225h-427v-225q0 -19 -10 -29.5t-28 -10.5q-17 0 -27 10.5zM577 317v107q0 107 -55 164.5t-158 57.5q-104 0 -159 -57
t-55 -165v-107h427zM281.5 784.5q-31.5 29.5 -31.5 73.5t31.5 73t82.5 29t81.5 -29t30.5 -73t-30.5 -73.5t-81.5 -29.5t-82.5 29.5zM408.5 816.5q16.5 15.5 16.5 41.5t-16.5 41.5t-44.5 15.5t-44.5 -15.5t-16.5 -41.5t16.5 -41.5t44.5 -15.5t44.5 15.5z" />
    <glyph glyph-name="Aringacute" unicode="&#x1fa;" horiz-adv-x="728" 
d="M85 0.5q-10 10.5 -10 29.5v391q0 136 76.5 212.5t212.5 76.5q135 0 212 -77t77 -212v-391q0 -19 -10 -29.5t-28 -10.5q-17 0 -27.5 10.5t-10.5 29.5v225h-427v-225q0 -19 -10 -29.5t-28 -10.5q-17 0 -27 10.5zM577 317v107q0 107 -55 164.5t-158 57.5q-104 0 -159 -57
t-55 -165v-107h427zM281.5 784.5q-31.5 29.5 -31.5 73.5t31.5 73t82.5 29t81.5 -29t30.5 -73t-30.5 -73.5t-81.5 -29.5t-82.5 29.5zM408.5 816.5q16.5 15.5 16.5 41.5t-16.5 41.5t-44.5 15.5t-44.5 -15.5t-16.5 -41.5t16.5 -41.5t44.5 -15.5t44.5 15.5zM339 1010q0 7 3 13
l62 141q12 28 33 28q10 0 19 -5q20 -10 20 -27q0 -9 -6 -20l-78 -138q-9 -17 -26 -17q-6 0 -12 3q-15 7 -15 22z" />
    <glyph glyph-name="Atilde" unicode="&#xc3;" horiz-adv-x="728" 
d="M85 0.5q-10 10.5 -10 29.5v391q0 136 76.5 212.5t212.5 76.5q135 0 212 -77t77 -212v-391q0 -19 -10 -29.5t-28 -10.5q-17 0 -27.5 10.5t-10.5 29.5v225h-427v-225q0 -19 -10 -29.5t-28 -10.5q-17 0 -27 10.5zM577 317v107q0 107 -55 164.5t-158 57.5q-104 0 -159 -57
t-55 -165v-107h427zM197 831q0 9 2 15q9 34 33.5 56t60.5 22q24 0 42.5 -8.5t43.5 -24.5q17 -12 28.5 -18t24.5 -6q34 0 46 42q7 21 25 21q14 0 21.5 -6.5t7.5 -18.5l-2 -12q-10 -36 -35 -57.5t-60 -21.5q-23 0 -39.5 8t-39.5 23q-19 13 -32 19.5t-28 6.5q-32 0 -45 -41
q-8 -22 -25 -22q-29 0 -29 23z" />
    <glyph glyph-name="AE" unicode="&#xc6;" horiz-adv-x="1121" 
d="M85 0.5q-10 10.5 -10 29.5v391q0 136 76.5 212.5t212.5 76.5q147 0 222 -102q7 45 38 68.5t77 23.5h304q39 0 39 -32q0 -30 -39 -30h-303q-24 0 -38 -16t-14 -42v-191h279q39 0 39 -32q0 -31 -39 -31h-279v-206q0 -26 14 -42t38 -16h325q39 0 39 -31q0 -14 -10 -22.5
t-29 -8.5h-325q-60 0 -92.5 32t-32.5 90v133h-427v-225q0 -19 -10 -29.5t-28 -10.5q-17 0 -27 10.5zM577 317v107q0 107 -55 164.5t-158 57.5q-104 0 -159 -57t-55 -165v-107h427z" />
    <glyph glyph-name="AEacute" unicode="&#x1fc;" horiz-adv-x="1121" 
d="M85 0.5q-10 10.5 -10 29.5v391q0 136 76.5 212.5t212.5 76.5q147 0 222 -102q7 45 38 68.5t77 23.5h304q39 0 39 -32q0 -30 -39 -30h-303q-24 0 -38 -16t-14 -42v-191h279q39 0 39 -32q0 -31 -39 -31h-279v-206q0 -26 14 -42t38 -16h325q39 0 39 -31q0 -14 -10 -22.5
t-29 -8.5h-325q-60 0 -92.5 32t-32.5 90v133h-427v-225q0 -19 -10 -29.5t-28 -10.5q-17 0 -27 10.5zM577 317v107q0 107 -55 164.5t-158 57.5q-104 0 -159 -57t-55 -165v-107h427zM548 810q0 7 3 13l62 141q12 28 33 28q10 0 19 -5q20 -10 20 -27q0 -9 -6 -20l-78 -138
q-9 -17 -26 -17q-6 0 -12 3q-15 7 -15 22z" />
    <glyph glyph-name="B" unicode="B" horiz-adv-x="724" 
d="M114 32.5q-34 32.5 -34 89.5v458q0 56 33.5 88t93.5 32h237q101 0 157 -50t56 -141q0 -52 -27 -90.5t-74 -58.5v-2q53 -19 83 -59.5t30 -95.5q0 -94 -57 -148.5t-156 -54.5h-247q-61 0 -95 32.5zM452 388q59 0 94 33t35 88q0 63 -35 96t-102 33h-236q-23 0 -38 -16.5
t-15 -41.5v-192h297zM452 63q69 0 105 35.5t36 103.5q0 59 -38 92t-104 33h-296v-207q0 -25 15 -41t38 -16h244z" />
    <glyph glyph-name="C" unicode="C" horiz-adv-x="747" 
d="M219.5 34.5q-78.5 44.5 -121.5 126t-43 188.5q0 108 43 190t121.5 126.5t181.5 44.5q86 0 158.5 -29t113.5 -81q8 -9 8 -22q0 -16 -14 -26q-9 -6 -20 -6q-19 0 -32 15q-32 41 -87 63t-127 22q-83 0 -144 -36t-93.5 -103t-32.5 -158q0 -90 32.5 -156.5t94 -102.5
t144.5 -36q77 0 134.5 22.5t90.5 62.5q15 16 32 16q12 0 20 -7q14 -12 14 -26q0 -12 -9 -23q-41 -50 -116.5 -79.5t-165.5 -29.5q-104 0 -182.5 44.5z" />
    <glyph glyph-name="Cacute" unicode="&#x106;" horiz-adv-x="747" 
d="M219.5 34.5q-78.5 44.5 -121.5 126t-43 188.5q0 108 43 190t121.5 126.5t181.5 44.5q86 0 158.5 -29t113.5 -81q8 -9 8 -22q0 -16 -14 -26q-9 -6 -20 -6q-19 0 -32 15q-32 41 -87 63t-127 22q-83 0 -144 -36t-93.5 -103t-32.5 -158q0 -90 32.5 -156.5t94 -102.5
t144.5 -36q77 0 134.5 22.5t90.5 62.5q15 16 32 16q12 0 20 -7q14 -12 14 -26q0 -12 -9 -23q-41 -50 -116.5 -79.5t-165.5 -29.5q-104 0 -182.5 44.5zM382 810q0 7 3 13l62 141q12 28 33 28q10 0 19 -5q20 -10 20 -27q0 -9 -6 -20l-78 -138q-9 -17 -26 -17q-6 0 -12 3
q-15 7 -15 22z" />
    <glyph glyph-name="Ccaron" unicode="&#x10c;" horiz-adv-x="747" 
d="M219.5 34.5q-78.5 44.5 -121.5 126t-43 188.5q0 108 43 190t121.5 126.5t181.5 44.5q86 0 158.5 -29t113.5 -81q8 -9 8 -22q0 -16 -14 -26q-9 -6 -20 -6q-19 0 -32 15q-32 41 -87 63t-127 22q-83 0 -144 -36t-93.5 -103t-32.5 -158q0 -90 32.5 -156.5t94 -102.5
t144.5 -36q77 0 134.5 22.5t90.5 62.5q15 16 32 16q12 0 20 -7q14 -12 14 -26q0 -12 -9 -23q-41 -50 -116.5 -79.5t-165.5 -29.5q-104 0 -182.5 44.5zM375 800l-106 127q-10 13 -10 23q0 13 15 25q8 7 19 7q15 0 31 -20l83 -112l84 112q14 20 32 20q8 0 17 -6q15 -10 15 -26
q0 -13 -10 -24l-105 -126q-14 -17 -33 -17q-18 0 -32 17z" />
    <glyph glyph-name="Ccedilla" unicode="&#xc7;" horiz-adv-x="747" 
d="M693 122q0 -12 -9 -23q-38 -47 -106 -75.5t-150 -32.5l-1 -3l-24 -45q41 1 62.5 -19t21.5 -51q0 -37 -26 -60.5t-73 -23.5q-33 0 -61 14.5t-43 35.5q-6 7 -6 15q0 10 11 20q8 6 15 6q11 0 20 -12q10 -14 26 -22t35 -8q22 0 33 10t11 27q0 36 -36 36q-8 0 -12 -1
q-15 -2 -25.5 5.5t-10.5 20.5q0 6 3 12l20 43q-95 7 -165.5 53.5t-109 124.5t-38.5 180q0 108 43 190t121.5 126.5t181.5 44.5q86 0 158.5 -29t113.5 -81q8 -9 8 -22q0 -16 -14 -26q-9 -6 -20 -6q-19 0 -32 15q-32 41 -87 63t-127 22q-83 0 -144 -36t-93.5 -103t-32.5 -158
q0 -90 32.5 -156.5t94 -102.5t144.5 -36q77 0 134.5 22.5t90.5 62.5q15 16 32 16q12 0 20 -7q14 -12 14 -26z" />
    <glyph glyph-name="Ccircumflex" unicode="&#x108;" horiz-adv-x="747" 
d="M219.5 34.5q-78.5 44.5 -121.5 126t-43 188.5q0 108 43 190t121.5 126.5t181.5 44.5q86 0 158.5 -29t113.5 -81q8 -9 8 -22q0 -16 -14 -26q-9 -6 -20 -6q-19 0 -32 15q-32 41 -87 63t-127 22q-83 0 -144 -36t-93.5 -103t-32.5 -158q0 -90 32.5 -156.5t94 -102.5
t144.5 -36q77 0 134.5 22.5t90.5 62.5q15 16 32 16q12 0 20 -7q14 -12 14 -26q0 -12 -9 -23q-41 -50 -116.5 -79.5t-165.5 -29.5q-104 0 -182.5 44.5zM259 816q0 10 10 23l106 126q14 17 32 17t32 -17l106 -126q10 -12 10 -23q0 -14 -14 -25q-10 -7 -20 -7q-15 0 -30 19
l-84 112l-84 -112q-15 -20 -31 -20q-7 0 -18 7q-15 12 -15 26z" />
    <glyph glyph-name="Cdotaccent" unicode="&#x10a;" horiz-adv-x="747" 
d="M219.5 34.5q-78.5 44.5 -121.5 126t-43 188.5q0 108 43 190t121.5 126.5t181.5 44.5q86 0 158.5 -29t113.5 -81q8 -9 8 -22q0 -16 -14 -26q-9 -6 -20 -6q-19 0 -32 15q-32 41 -87 63t-127 22q-83 0 -144 -36t-93.5 -103t-32.5 -158q0 -90 32.5 -156.5t94 -102.5
t144.5 -36q77 0 134.5 22.5t90.5 62.5q15 16 32 16q12 0 20 -7q14 -12 14 -26q0 -12 -9 -23q-41 -50 -116.5 -79.5t-165.5 -29.5q-104 0 -182.5 44.5zM369 817.5q-16 15.5 -16 35.5q0 21 16 36.5t38 15.5q21 0 36.5 -15.5t15.5 -36.5q0 -20 -15.5 -35.5t-36.5 -15.5
q-22 0 -38 15.5z" />
    <glyph glyph-name="D" unicode="D" horiz-adv-x="746" 
d="M114 32.5q-34 32.5 -34 89.5v458q0 56 33.5 88t93.5 32h140q104 0 181.5 -43.5t119.5 -122.5t42 -185t-42 -184.5t-119.5 -121.5t-181.5 -43h-138q-61 0 -95 32.5zM337 62q132 0 204.5 75t72.5 212t-73 213t-204 76h-129q-24 0 -38.5 -16t-14.5 -42v-460q0 -26 14.5 -42
t38.5 -16h129z" />
    <glyph glyph-name="Eth" unicode="&#xd0;" horiz-adv-x="799" 
d="M171 32q-34 32 -34 90v199h-58q-19 0 -29.5 7.5t-10.5 21.5q0 32 40 32h58v198q0 56 34 88t93 32h141q104 0 181.5 -43.5t119.5 -122.5t42 -185t-42 -184.5t-119.5 -121.5t-181.5 -43h-139q-61 0 -95 32zM395 62q131 0 203.5 75t72.5 212t-72.5 213t-203.5 76h-129
q-24 0 -38.5 -16t-14.5 -42v-198h166q39 0 39 -32q0 -29 -39 -29h-166v-201q0 -26 14.5 -42t38.5 -16h129z" />
    <glyph glyph-name="Dcaron" unicode="&#x10e;" horiz-adv-x="746" 
d="M114 32.5q-34 32.5 -34 89.5v458q0 56 33.5 88t93.5 32h140q104 0 181.5 -43.5t119.5 -122.5t42 -185t-42 -184.5t-119.5 -121.5t-181.5 -43h-138q-61 0 -95 32.5zM337 62q132 0 204.5 75t72.5 212t-73 213t-204 76h-129q-24 0 -38.5 -16t-14.5 -42v-460q0 -26 14.5 -42
t38.5 -16h129zM313 800l-106 127q-10 13 -10 23q0 13 15 25q8 7 19 7q15 0 31 -20l83 -112l84 112q14 20 32 20q8 0 17 -6q15 -10 15 -26q0 -13 -10 -24l-105 -126q-14 -17 -33 -17q-18 0 -32 17z" />
    <glyph glyph-name="Dcroat" unicode="&#x110;" horiz-adv-x="799" 
d="M171 32q-34 32 -34 90v199h-58q-19 0 -29.5 7.5t-10.5 21.5q0 32 40 32h58v198q0 56 34 88t93 32h141q104 0 181.5 -43.5t119.5 -122.5t42 -185t-42 -184.5t-119.5 -121.5t-181.5 -43h-139q-61 0 -95 32zM395 62q131 0 203.5 75t72.5 212t-72.5 213t-203.5 76h-129
q-24 0 -38.5 -16t-14.5 -42v-198h166q39 0 39 -32q0 -29 -39 -29h-166v-201q0 -26 14.5 -42t38.5 -16h129z" />
    <glyph glyph-name="uni1E0C" unicode="&#x1e0c;" horiz-adv-x="746" 
d="M114 32.5q-34 32.5 -34 89.5v458q0 56 33.5 88t93.5 32h140q104 0 181.5 -43.5t119.5 -122.5t42 -185t-42 -184.5t-119.5 -121.5t-181.5 -43h-138q-61 0 -95 32.5zM337 62q132 0 204.5 75t72.5 212t-73 213t-204 76h-129q-24 0 -38.5 -16t-14.5 -42v-460q0 -26 14.5 -42
t38.5 -16h129zM336.5 -164.5q-15.5 14.5 -15.5 35.5q0 22 15.5 37t38.5 15q22 0 37 -15t15 -37q0 -21 -15 -35.5t-37 -14.5q-23 0 -38.5 14.5z" />
    <glyph glyph-name="uni1E0E" unicode="&#x1e0e;" horiz-adv-x="746" 
d="M114 32.5q-34 32.5 -34 89.5v458q0 56 33.5 88t93.5 32h140q104 0 181.5 -43.5t119.5 -122.5t42 -185t-42 -184.5t-119.5 -121.5t-181.5 -43h-138q-61 0 -95 32.5zM337 62q132 0 204.5 75t72.5 212t-73 213t-204 76h-129q-24 0 -38.5 -16t-14.5 -42v-460q0 -26 14.5 -42
t38.5 -16h129zM217 -114q0 16 9.5 21.5t26.5 5.5h245q18 0 27 -6t9 -21q0 -26 -36 -26h-245q-36 0 -36 26z" />
    <glyph glyph-name="E" unicode="E" horiz-adv-x="633" 
d="M114 32q-34 32 -34 90v458q0 56 33.5 88t93.5 32h310q39 0 39 -32q0 -14 -10 -22t-29 -8h-309q-24 0 -38.5 -16t-14.5 -42v-191h286q39 0 39 -32q0 -15 -10.5 -23t-28.5 -8h-286v-206q0 -26 14.5 -42t38.5 -16h331q39 0 39 -31q0 -15 -10.5 -23t-28.5 -8h-330
q-61 0 -95 32z" />
    <glyph glyph-name="Eacute" unicode="&#xc9;" horiz-adv-x="633" 
d="M114 32q-34 32 -34 90v458q0 56 33.5 88t93.5 32h310q39 0 39 -32q0 -14 -10 -22t-29 -8h-309q-24 0 -38.5 -16t-14.5 -42v-191h286q39 0 39 -32q0 -15 -10.5 -23t-28.5 -8h-286v-206q0 -26 14.5 -42t38.5 -16h331q39 0 39 -31q0 -15 -10.5 -23t-28.5 -8h-330
q-61 0 -95 32zM313 810q0 7 3 13l62 141q12 28 33 28q10 0 19 -5q20 -10 20 -27q0 -9 -6 -20l-78 -138q-9 -17 -26 -17q-6 0 -12 3q-15 7 -15 22z" />
    <glyph glyph-name="Ebreve" unicode="&#x114;" horiz-adv-x="633" 
d="M114 32q-34 32 -34 90v458q0 56 33.5 88t93.5 32h310q39 0 39 -32q0 -14 -10 -22t-29 -8h-309q-24 0 -38.5 -16t-14.5 -42v-191h286q39 0 39 -32q0 -15 -10.5 -23t-28.5 -8h-286v-206q0 -26 14.5 -42t38.5 -16h331q39 0 39 -31q0 -15 -10.5 -23t-28.5 -8h-330
q-61 0 -95 32zM222 827q-42 42 -42 105q0 39 35 39q33 0 33 -39q0 -42 22 -67t65 -25t64.5 25t21.5 67q0 39 34 39t34 -39q0 -63 -41.5 -105t-112.5 -42t-113 42z" />
    <glyph glyph-name="Ecaron" unicode="&#x11a;" horiz-adv-x="633" 
d="M114 32q-34 32 -34 90v458q0 56 33.5 88t93.5 32h310q39 0 39 -32q0 -14 -10 -22t-29 -8h-309q-24 0 -38.5 -16t-14.5 -42v-191h286q39 0 39 -32q0 -15 -10.5 -23t-28.5 -8h-286v-206q0 -26 14.5 -42t38.5 -16h331q39 0 39 -31q0 -15 -10.5 -23t-28.5 -8h-330
q-61 0 -95 32zM306 800l-106 127q-10 13 -10 23q0 13 15 25q8 7 19 7q15 0 31 -20l83 -112l84 112q14 20 32 20q8 0 17 -6q15 -10 15 -26q0 -13 -10 -24l-105 -126q-14 -17 -33 -17q-18 0 -32 17z" />
    <glyph glyph-name="Ecircumflex" unicode="&#xca;" horiz-adv-x="633" 
d="M114 32q-34 32 -34 90v458q0 56 33.5 88t93.5 32h310q39 0 39 -32q0 -14 -10 -22t-29 -8h-309q-24 0 -38.5 -16t-14.5 -42v-191h286q39 0 39 -32q0 -15 -10.5 -23t-28.5 -8h-286v-206q0 -26 14.5 -42t38.5 -16h331q39 0 39 -31q0 -15 -10.5 -23t-28.5 -8h-330
q-61 0 -95 32zM190 816q0 10 10 23l106 126q14 17 32 17q19 0 33 -17l105 -126q10 -13 10 -23q0 -14 -14 -25q-10 -7 -20 -7q-15 0 -30 19l-84 112l-83 -112q-15 -20 -32 -20q-8 0 -18 7q-15 12 -15 26z" />
    <glyph glyph-name="uni1EBE" unicode="&#x1ebe;" horiz-adv-x="633" 
d="M114 32q-34 32 -34 90v458q0 56 33.5 88t93.5 32h310q39 0 39 -32q0 -14 -10 -22t-29 -8h-309q-24 0 -38.5 -16t-14.5 -42v-191h286q39 0 39 -32q0 -15 -10.5 -23t-28.5 -8h-286v-206q0 -26 14.5 -42t38.5 -16h331q39 0 39 -31q0 -15 -10.5 -23t-28.5 -8h-330
q-61 0 -95 32zM424 949q0 8 5 16l62 103q12 21 31 21q9 0 20 -6q15 -9 15 -24q0 -12 -8 -22l-77 -98q-12 -14 -23 -14q-6 0 -14 5q-11 6 -11 19zM190 816q0 12 10 22l106 112q9 9 15.5 13t16.5 4t16.5 -4t15.5 -13l106 -111q10 -10 10 -23q0 -15 -15 -26q-9 -6 -17 -6
q-16 0 -32 19l-84 97l-84 -98q-17 -19 -31 -19q-8 0 -18 7q-15 12 -15 26z" />
    <glyph glyph-name="uni1EC6" unicode="&#x1ec6;" horiz-adv-x="633" 
d="M114 32q-34 32 -34 90v458q0 56 33.5 88t93.5 32h310q39 0 39 -32q0 -14 -10 -22t-29 -8h-309q-24 0 -38.5 -16t-14.5 -42v-191h286q39 0 39 -32q0 -15 -10.5 -23t-28.5 -8h-286v-206q0 -26 14.5 -42t38.5 -16h331q39 0 39 -31q0 -15 -10.5 -23t-28.5 -8h-330
q-61 0 -95 32zM302.5 -164.5q-15.5 14.5 -15.5 35.5q0 22 15.5 37t38.5 15q22 0 37 -15t15 -37q0 -21 -15 -35.5t-37 -14.5q-23 0 -38.5 14.5zM190 816q0 10 10 23l106 126q14 17 32 17q19 0 33 -17l105 -126q10 -13 10 -23q0 -14 -14 -25q-10 -7 -20 -7q-15 0 -30 19
l-84 112l-83 -112q-15 -20 -32 -20q-8 0 -18 7q-15 12 -15 26z" />
    <glyph glyph-name="uni1EC0" unicode="&#x1ec0;" horiz-adv-x="633" 
d="M114 32q-34 32 -34 90v458q0 56 33.5 88t93.5 32h310q39 0 39 -32q0 -14 -10 -22t-29 -8h-309q-24 0 -38.5 -16t-14.5 -42v-191h286q39 0 39 -32q0 -15 -10.5 -23t-28.5 -8h-286v-206q0 -26 14.5 -42t38.5 -16h331q39 0 39 -31q0 -15 -10.5 -23t-28.5 -8h-330
q-61 0 -95 32zM484 925q-11 0 -23 14l-77 98q-8 10 -8 21q0 16 17 26q10 5 18 5q19 0 32 -21l61 -103q5 -10 5 -17q0 -11 -12 -19q-5 -4 -13 -4zM190 816q0 12 10 22l106 112q9 9 15.5 13t16.5 4q16 0 32 -17l106 -111q10 -10 10 -23q0 -15 -15 -26q-9 -6 -17 -6
q-16 0 -32 19l-84 97l-84 -98q-17 -19 -31 -19q-8 0 -18 7q-15 12 -15 26z" />
    <glyph glyph-name="uni1EC2" unicode="&#x1ec2;" horiz-adv-x="633" 
d="M114 32q-34 32 -34 90v458q0 56 33.5 88t93.5 32h310q39 0 39 -32q0 -14 -10 -22t-29 -8h-309q-24 0 -38.5 -16t-14.5 -42v-191h286q39 0 39 -32q0 -15 -10.5 -23t-28.5 -8h-286v-206q0 -26 14.5 -42t38.5 -16h331q39 0 39 -31q0 -15 -10.5 -23t-28.5 -8h-330
q-61 0 -95 32zM416 945v8q0 15 9 26t27 26q14 10 21 18t7 18q0 13 -9 21t-26 8q-16 0 -27 -5t-20 -16q-10 -12 -20 -12q-6 0 -13 4q-13 8 -13 18q0 6 5 14q13 20 36.5 32t56.5 12q45 0 66.5 -20t21.5 -51q0 -19 -9 -31t-27 -27q-13 -10 -19.5 -18t-6.5 -18v-7q0 -25 -30 -25
t-30 25zM190 816q0 12 10 22l106 112q9 9 15.5 13t16.5 4q16 0 32 -17l106 -111q10 -10 10 -23q0 -15 -15 -26q-9 -6 -17 -6q-16 0 -32 19l-84 97l-84 -98q-17 -19 -31 -19q-8 0 -18 7q-15 12 -15 26z" />
    <glyph glyph-name="uni1EC4" unicode="&#x1ec4;" horiz-adv-x="633" 
d="M114 32q-34 32 -34 90v458q0 56 33.5 88t93.5 32h310q39 0 39 -32q0 -14 -10 -22t-29 -8h-309q-24 0 -38.5 -16t-14.5 -42v-191h286q39 0 39 -32q0 -15 -10.5 -23t-28.5 -8h-286v-206q0 -26 14.5 -42t38.5 -16h331q39 0 39 -31q0 -15 -10.5 -23t-28.5 -8h-330
q-61 0 -95 32zM184 1006q0 3 2 13q8 33 32.5 53t57.5 20q23 0 41 -8.5t41 -23.5q16 -12 27.5 -17.5t22.5 -5.5q31 0 44 40q7 21 23 21q28 0 28 -23q0 -4 -2 -14q-8 -31 -32 -52t-58 -21q-21 0 -38 8t-37 22q-19 12 -30.5 18t-26.5 6t-26.5 -10t-16.5 -27q-7 -23 -23 -23
l-12 2q-17 5 -17 22zM191 816q0 13 10 23l105 112q16 17 32 17q20 0 32 -17l106 -112q10 -10 10 -23q0 -14 -14 -25q-8 -7 -19 -7q-15 0 -31 19l-84 98l-83 -98q-16 -19 -31 -19q-9 0 -20 8q-13 9 -13 24z" />
    <glyph glyph-name="Edieresis" unicode="&#xcb;" horiz-adv-x="633" 
d="M114 32q-34 32 -34 90v458q0 56 33.5 88t93.5 32h310q39 0 39 -32q0 -14 -10 -22t-29 -8h-309q-24 0 -38.5 -16t-14.5 -42v-191h286q39 0 39 -32q0 -15 -10.5 -23t-28.5 -8h-286v-206q0 -26 14.5 -42t38.5 -16h331q39 0 39 -31q0 -15 -10.5 -23t-28.5 -8h-330
q-61 0 -95 32zM199 819.5q-15 14.5 -15 34.5q0 21 15 35.5t36 14.5q20 0 34.5 -15t14.5 -35t-14.5 -34.5t-34.5 -14.5q-21 0 -36 14.5zM406 819.5q-15 14.5 -15 34.5t15 35t36 15q20 0 35 -15t15 -35t-15 -34.5t-35 -14.5q-21 0 -36 14.5z" />
    <glyph glyph-name="Edotaccent" unicode="&#x116;" horiz-adv-x="633" 
d="M114 32q-34 32 -34 90v458q0 56 33.5 88t93.5 32h310q39 0 39 -32q0 -14 -10 -22t-29 -8h-309q-24 0 -38.5 -16t-14.5 -42v-191h286q39 0 39 -32q0 -15 -10.5 -23t-28.5 -8h-286v-206q0 -26 14.5 -42t38.5 -16h331q39 0 39 -31q0 -15 -10.5 -23t-28.5 -8h-330
q-61 0 -95 32zM300 817.5q-16 15.5 -16 35.5q0 21 16 36.5t38 15.5q21 0 36.5 -15.5t15.5 -36.5q0 -20 -15.5 -35.5t-36.5 -15.5q-22 0 -38 15.5z" />
    <glyph glyph-name="uni1EB8" unicode="&#x1eb8;" horiz-adv-x="633" 
d="M114 32q-34 32 -34 90v458q0 56 33.5 88t93.5 32h310q39 0 39 -32q0 -14 -10 -22t-29 -8h-309q-24 0 -38.5 -16t-14.5 -42v-191h286q39 0 39 -32q0 -15 -10.5 -23t-28.5 -8h-286v-206q0 -26 14.5 -42t38.5 -16h331q39 0 39 -31q0 -15 -10.5 -23t-28.5 -8h-330
q-61 0 -95 32zM302.5 -164.5q-15.5 14.5 -15.5 35.5q0 22 15.5 37t38.5 15q22 0 37 -15t15 -37q0 -21 -15 -35.5t-37 -14.5q-23 0 -38.5 14.5z" />
    <glyph glyph-name="Egrave" unicode="&#xc8;" horiz-adv-x="633" 
d="M114 32q-34 32 -34 90v458q0 56 33.5 88t93.5 32h310q39 0 39 -32q0 -14 -10 -22t-29 -8h-309q-24 0 -38.5 -16t-14.5 -42v-191h286q39 0 39 -32q0 -15 -10.5 -23t-28.5 -8h-286v-206q0 -26 14.5 -42t38.5 -16h331q39 0 39 -31q0 -15 -10.5 -23t-28.5 -8h-330
q-61 0 -95 32zM343 785q-17 0 -26 17l-78 138q-6 11 -6 20q0 17 20 27q9 5 19 5q21 0 33 -28l62 -141q3 -7 3 -14q0 -14 -15 -21q-6 -3 -12 -3z" />
    <glyph glyph-name="uni1EBA" unicode="&#x1eba;" horiz-adv-x="633" 
d="M114 32q-34 32 -34 90v458q0 56 33.5 88t93.5 32h310q39 0 39 -32q0 -14 -10 -22t-29 -8h-309q-24 0 -38.5 -16t-14.5 -42v-191h286q39 0 39 -32q0 -15 -10.5 -23t-28.5 -8h-286v-206q0 -26 14.5 -42t38.5 -16h331q39 0 39 -31q0 -15 -10.5 -23t-28.5 -8h-330
q-61 0 -95 32zM306 786v8q0 17 10 29.5t29 27.5q17 14 24 21.5t7 18.5q0 15 -9.5 23.5t-28.5 8.5q-34 0 -54 -26q-10 -13 -23 -13q-6 0 -13 3q-15 9 -15 21q0 6 5 14q14 22 42 37.5t64 15.5q48 0 73 -22.5t25 -56.5q0 -21 -10.5 -34.5t-30.5 -28.5q-16 -13 -22.5 -20.5
t-6.5 -18.5v-8q0 -28 -34 -28q-32 0 -32 28z" />
    <glyph glyph-name="Emacron" unicode="&#x112;" horiz-adv-x="633" 
d="M114 32q-34 32 -34 90v458q0 56 33.5 88t93.5 32h310q39 0 39 -32q0 -14 -10 -22t-29 -8h-309q-24 0 -38.5 -16t-14.5 -42v-191h286q39 0 39 -32q0 -15 -10.5 -23t-28.5 -8h-286v-206q0 -26 14.5 -42t38.5 -16h331q39 0 39 -31q0 -15 -10.5 -23t-28.5 -8h-330
q-61 0 -95 32zM179 814q0 16 9.5 21.5t26.5 5.5h245q18 0 27 -6t9 -21q0 -26 -36 -26h-245q-36 0 -36 26z" />
    <glyph glyph-name="Eogonek" unicode="&#x118;" horiz-adv-x="633" 
d="M583 -152q0 -10 -10 -20q-19 -19 -40 -27.5t-49 -8.5q-49 0 -78.5 24.5t-29.5 64.5q0 32 16.5 61t49.5 58h-233q-61 0 -95 32t-34 90v458q0 56 33.5 88t93.5 32h310q39 0 39 -32q0 -14 -10 -22t-29 -8h-309q-24 0 -38.5 -16t-14.5 -42v-191h286q39 0 39 -32
q0 -15 -10.5 -23t-28.5 -8h-286v-206q0 -26 14.5 -42t38.5 -16h331q39 0 39 -31q0 -15 -10.5 -23t-28.5 -8h-16l-6 -5q-44 -36 -61.5 -58t-17.5 -52q0 -18 13.5 -29.5t36.5 -11.5q31 0 53 20q8 8 18 8q9 0 16 -7q8 -8 8 -17z" />
    <glyph glyph-name="uni1EBC" unicode="&#x1ebc;" horiz-adv-x="633" 
d="M114 32q-34 32 -34 90v458q0 56 33.5 88t93.5 32h310q39 0 39 -32q0 -14 -10 -22t-29 -8h-309q-24 0 -38.5 -16t-14.5 -42v-191h286q39 0 39 -32q0 -15 -10.5 -23t-28.5 -8h-286v-206q0 -26 14.5 -42t38.5 -16h331q39 0 39 -31q0 -15 -10.5 -23t-28.5 -8h-330
q-61 0 -95 32zM170 828q0 9 2 15q9 34 33.5 56t60.5 22q24 0 42.5 -8.5t43.5 -24.5q17 -12 28.5 -18t24.5 -6q34 0 46 42q7 21 25 21q14 0 21.5 -6.5t7.5 -18.5l-2 -12q-10 -36 -35 -57.5t-60 -21.5q-23 0 -39.5 8t-39.5 23q-19 13 -32 19.5t-28 6.5q-32 0 -45 -41
q-8 -22 -25 -22q-29 0 -29 23z" />
    <glyph glyph-name="F" unicode="F" horiz-adv-x="611" 
d="M90 0.5q-10 10.5 -10 29.5v550q0 56 33.5 88t93.5 32h310q39 0 39 -32q0 -14 -10 -22t-29 -8h-309q-24 0 -38.5 -16t-14.5 -42v-201h286q39 0 39 -32q0 -15 -10.5 -23t-28.5 -8h-286v-286q0 -19 -10 -29.5t-28 -10.5q-17 0 -27 10.5z" />
    <glyph glyph-name="G" unicode="G" horiz-adv-x="764" 
d="M219 34q-79 44 -122 125.5t-43 189.5t43 190t122.5 126.5t184.5 44.5q85 0 158.5 -29t112.5 -80q9 -10 9 -24q0 -16 -14 -25q-9 -6 -20 -6q-9 0 -18 4.5t-15 11.5q-31 39 -86 61.5t-127 22.5q-84 0 -146 -36t-95 -103t-33 -158q0 -138 73 -216.5t201 -78.5q67 0 119 21.5
t81.5 60t29.5 87.5v34q0 27 -10.5 39t-39.5 12h-152q-38 0 -38 30q0 32 38 32h165q57 0 85 -25t28 -77v-38q0 -67 -40 -122t-110 -86.5t-156 -31.5q-106 0 -185 44z" />
    <glyph glyph-name="Gbreve" unicode="&#x11e;" horiz-adv-x="764" 
d="M219 34q-79 44 -122 125.5t-43 189.5t43 190t122.5 126.5t184.5 44.5q85 0 158.5 -29t112.5 -80q9 -10 9 -24q0 -16 -14 -25q-9 -6 -20 -6q-9 0 -18 4.5t-15 11.5q-31 39 -86 61.5t-127 22.5q-84 0 -146 -36t-95 -103t-33 -158q0 -138 73 -216.5t201 -78.5q67 0 119 21.5
t81.5 60t29.5 87.5v34q0 27 -10.5 39t-39.5 12h-152q-38 0 -38 30q0 32 38 32h165q57 0 85 -25t28 -77v-38q0 -67 -40 -122t-110 -86.5t-156 -31.5q-106 0 -185 44zM272 827q-42 42 -42 105q0 39 35 39q33 0 33 -39q0 -42 22 -67t65 -25t64.5 25t21.5 67q0 39 34 39t34 -39
q0 -63 -41.5 -105t-112.5 -42t-113 42z" />
    <glyph glyph-name="Gcaron" unicode="&#x1e6;" horiz-adv-x="764" 
d="M219 34q-79 44 -122 125.5t-43 189.5t43 190t122.5 126.5t184.5 44.5q85 0 158.5 -29t112.5 -80q9 -10 9 -24q0 -16 -14 -25q-9 -6 -20 -6q-9 0 -18 4.5t-15 11.5q-31 39 -86 61.5t-127 22.5q-84 0 -146 -36t-95 -103t-33 -158q0 -138 73 -216.5t201 -78.5q67 0 119 21.5
t81.5 60t29.5 87.5v34q0 27 -10.5 39t-39.5 12h-152q-38 0 -38 30q0 32 38 32h165q57 0 85 -25t28 -77v-38q0 -67 -40 -122t-110 -86.5t-156 -31.5q-106 0 -185 44zM356 800l-106 127q-10 13 -10 23q0 13 15 25q8 7 19 7q15 0 31 -20l83 -112l84 112q14 20 32 20q8 0 17 -6
q15 -10 15 -26q0 -13 -10 -24l-105 -126q-14 -17 -33 -17q-18 0 -32 17z" />
    <glyph glyph-name="Gcircumflex" unicode="&#x11c;" horiz-adv-x="764" 
d="M219 34q-79 44 -122 125.5t-43 189.5t43 190t122.5 126.5t184.5 44.5q85 0 158.5 -29t112.5 -80q9 -10 9 -24q0 -16 -14 -25q-9 -6 -20 -6q-9 0 -18 4.5t-15 11.5q-31 39 -86 61.5t-127 22.5q-84 0 -146 -36t-95 -103t-33 -158q0 -138 73 -216.5t201 -78.5q67 0 119 21.5
t81.5 60t29.5 87.5v34q0 27 -10.5 39t-39.5 12h-152q-38 0 -38 30q0 32 38 32h165q57 0 85 -25t28 -77v-38q0 -67 -40 -122t-110 -86.5t-156 -31.5q-106 0 -185 44zM240 816q0 10 10 23l106 126q14 17 32 17q19 0 33 -17l105 -126q10 -13 10 -23q0 -14 -14 -25
q-10 -7 -20 -7q-15 0 -30 19l-84 112l-83 -112q-15 -20 -32 -20q-8 0 -18 7q-15 12 -15 26z" />
    <glyph glyph-name="uni0122" unicode="&#x122;" horiz-adv-x="764" 
d="M219 34q-79 44 -122 125.5t-43 189.5t43 190t122.5 126.5t184.5 44.5q85 0 158.5 -29t112.5 -80q9 -10 9 -24q0 -16 -14 -25q-9 -6 -20 -6q-9 0 -18 4.5t-15 11.5q-31 39 -86 61.5t-127 22.5q-84 0 -146 -36t-95 -103t-33 -158q0 -138 73 -216.5t201 -78.5q67 0 119 21.5
t81.5 60t29.5 87.5v34q0 27 -10.5 39t-39.5 12h-152q-38 0 -38 30q0 32 38 32h165q57 0 85 -25t28 -77v-38q0 -67 -40 -122t-110 -86.5t-156 -31.5q-106 0 -185 44zM315 -287q0 10 16 24q26 23 39.5 41t15.5 38q-8 -2 -13 -2q-21 0 -36.5 14.5t-15.5 35.5q0 27 17 43t46 16
q30 0 47.5 -20t17.5 -56t-21.5 -72t-59.5 -66q-22 -17 -32 -17q-8 0 -14 7q-7 7 -7 14z" />
    <glyph glyph-name="Gdotaccent" unicode="&#x120;" horiz-adv-x="764" 
d="M219 34q-79 44 -122 125.5t-43 189.5t43 190t122.5 126.5t184.5 44.5q85 0 158.5 -29t112.5 -80q9 -10 9 -24q0 -16 -14 -25q-9 -6 -20 -6q-9 0 -18 4.5t-15 11.5q-31 39 -86 61.5t-127 22.5q-84 0 -146 -36t-95 -103t-33 -158q0 -138 73 -216.5t201 -78.5q67 0 119 21.5
t81.5 60t29.5 87.5v34q0 27 -10.5 39t-39.5 12h-152q-38 0 -38 30q0 32 38 32h165q57 0 85 -25t28 -77v-38q0 -67 -40 -122t-110 -86.5t-156 -31.5q-106 0 -185 44zM350 817.5q-16 15.5 -16 35.5q0 21 16 36.5t38 15.5q21 0 36.5 -15.5t15.5 -36.5q0 -20 -15.5 -35.5
t-36.5 -15.5q-22 0 -38 15.5z" />
    <glyph glyph-name="uni1E20" unicode="&#x1e20;" horiz-adv-x="764" 
d="M219 34q-79 44 -122 125.5t-43 189.5t43 190t122.5 126.5t184.5 44.5q85 0 158.5 -29t112.5 -80q9 -10 9 -24q0 -16 -14 -25q-9 -6 -20 -6q-9 0 -18 4.5t-15 11.5q-31 39 -86 61.5t-127 22.5q-84 0 -146 -36t-95 -103t-33 -158q0 -138 73 -216.5t201 -78.5q67 0 119 21.5
t81.5 60t29.5 87.5v34q0 27 -10.5 39t-39.5 12h-152q-38 0 -38 30q0 32 38 32h165q57 0 85 -25t28 -77v-38q0 -67 -40 -122t-110 -86.5t-156 -31.5q-106 0 -185 44zM229 814q0 16 9.5 21.5t26.5 5.5h245q18 0 27 -6t9 -21q0 -26 -36 -26h-245q-36 0 -36 26z" />
    <glyph glyph-name="H" unicode="H" horiz-adv-x="747" 
d="M89 0.5q-10 10.5 -10 29.5v640q0 19 10 29.5t27 10.5q18 0 28 -10.5t10 -29.5v-279h439v279q0 19 10 29.5t28 10.5q17 0 27 -10.5t10 -29.5v-640q0 -19 -10 -29.5t-27 -10.5t-27.5 10.5t-10.5 29.5v298h-439v-298q0 -19 -10 -29.5t-28 -10.5q-17 0 -27 10.5z" />
    <glyph glyph-name="Hbar" unicode="&#x126;" horiz-adv-x="797" 
d="M773 534q0 -30 -38 -30h-42v-474q0 -19 -10 -29.5t-27 -10.5t-27.5 10.5t-10.5 29.5v298h-439v-298q0 -19 -10 -29.5t-28 -10.5q-17 0 -27 10.5t-10 29.5v474h-42q-38 0 -38 30q0 31 38 31h42v105q0 19 10 29.5t27 10.5q18 0 28 -10.5t10 -29.5v-105h439v105
q0 19 10 29.5t28 10.5q17 0 27 -10.5t10 -29.5v-105h42q38 0 38 -31zM618 504h-439v-113h439v113z" />
    <glyph glyph-name="uni1E2A" unicode="&#x1e2a;" horiz-adv-x="747" 
d="M89 0.5q-10 10.5 -10 29.5v640q0 19 10 29.5t27 10.5q18 0 28 -10.5t10 -29.5v-279h439v279q0 19 10 29.5t28 10.5q17 0 27 -10.5t10 -29.5v-640q0 -19 -10 -29.5t-27 -10.5t-27.5 10.5t-10.5 29.5v298h-439v-298q0 -19 -10 -29.5t-28 -10.5q-17 0 -27 10.5zM267 -213.5
q-41 40.5 -41 101.5q0 39 33 39q17 0 24.5 -9.5t7.5 -29.5q0 -40 22.5 -64.5t65.5 -24.5t65 24.5t22 64.5q0 20 7.5 29.5t24.5 9.5q33 0 33 -39q0 -61 -40.5 -101.5t-111.5 -40.5t-112 40.5z" />
    <glyph glyph-name="Hcircumflex" unicode="&#x124;" horiz-adv-x="747" 
d="M89 0.5q-10 10.5 -10 29.5v640q0 19 10 29.5t27 10.5q18 0 28 -10.5t10 -29.5v-279h439v279q0 19 10 29.5t28 10.5q17 0 27 -10.5t10 -29.5v-640q0 -19 -10 -29.5t-27 -10.5t-27.5 10.5t-10.5 29.5v298h-439v-298q0 -19 -10 -29.5t-28 -10.5q-17 0 -27 10.5zM225 816
q0 10 10 23l106 126q14 17 32 17q19 0 33 -17l105 -126q10 -13 10 -23q0 -14 -14 -25q-10 -7 -20 -7q-15 0 -30 19l-84 112l-83 -112q-15 -20 -32 -20q-8 0 -18 7q-15 12 -15 26z" />
    <glyph glyph-name="uni1E24" unicode="&#x1e24;" horiz-adv-x="747" 
d="M89 0.5q-10 10.5 -10 29.5v640q0 19 10 29.5t27 10.5q18 0 28 -10.5t10 -29.5v-279h439v279q0 19 10 29.5t28 10.5q17 0 27 -10.5t10 -29.5v-640q0 -19 -10 -29.5t-27 -10.5t-27.5 10.5t-10.5 29.5v298h-439v-298q0 -19 -10 -29.5t-28 -10.5q-17 0 -27 10.5z
M339.5 -164.5q-15.5 14.5 -15.5 35.5q0 22 15.5 37t38.5 15q22 0 37 -15t15 -37q0 -21 -15 -35.5t-37 -14.5q-23 0 -38.5 14.5z" />
    <glyph glyph-name="I" unicode="I" horiz-adv-x="297" 
d="M121 0.5q-10 10.5 -10 29.5v640q0 19 10 29.5t27 10.5q18 0 28 -11t10 -29v-640q0 -18 -10 -29t-28 -11q-17 0 -27 10.5z" />
    <glyph glyph-name="IJ" unicode="&#x132;" horiz-adv-x="801" 
d="M121 0.5q-10 10.5 -10 29.5v640q0 19 10 29.5t27 10.5q18 0 28 -10.5t10 -29.5v-640q0 -19 -10 -29.5t-28 -10.5q-17 0 -27 10.5zM256 104q-8 11 -8 23q0 14 12 24q12 9 24 9q17 0 30 -16q33 -47 76.5 -68t108.5 -21q73 0 112 42.5t39 119.5v453q0 18 10 29t28 11
t28 -10.5t10 -29.5v-449q0 -68 -29 -120.5t-80.5 -81.5t-117.5 -29q-159 0 -243 114z" />
    <glyph glyph-name="Iacute" unicode="&#xcd;" horiz-adv-x="297" 
d="M121 0.5q-10 10.5 -10 29.5v640q0 19 10 29.5t27 10.5q18 0 28 -11t10 -29v-640q0 -18 -10 -29t-28 -11q-17 0 -27 10.5zM123 810q0 7 3 13l62 141q12 28 33 28q10 0 19 -5q20 -10 20 -27q0 -9 -6 -20l-78 -138q-9 -17 -26 -17q-6 0 -12 3q-15 7 -15 22z" />
    <glyph glyph-name="Ibreve" unicode="&#x12c;" horiz-adv-x="297" 
d="M121 0.5q-10 10.5 -10 29.5v640q0 19 10 29.5t27 10.5q18 0 28 -11t10 -29v-640q0 -18 -10 -29t-28 -11q-17 0 -27 10.5zM32 827q-42 42 -42 105q0 39 35 39q33 0 33 -39q0 -42 22 -67t65 -25t64.5 25t21.5 67q0 39 34 39t34 -39q0 -63 -41.5 -105t-112.5 -42t-113 42z
" />
    <glyph glyph-name="uni01CF" unicode="&#x1cf;" horiz-adv-x="297" 
d="M121 0.5q-10 10.5 -10 29.5v640q0 19 10 29.5t27 10.5q18 0 28 -11t10 -29v-640q0 -18 -10 -29t-28 -11q-17 0 -27 10.5zM116 800l-106 127q-10 13 -10 23q0 13 15 25q8 7 19 7q15 0 31 -20l83 -112l84 112q14 20 32 20q8 0 17 -6q15 -10 15 -26q0 -13 -10 -24l-105 -126
q-14 -17 -33 -17q-18 0 -32 17z" />
    <glyph glyph-name="Icircumflex" unicode="&#xce;" horiz-adv-x="297" 
d="M121 0.5q-10 10.5 -10 29.5v640q0 19 10 29.5t27 10.5q18 0 28 -11t10 -29v-640q0 -18 -10 -29t-28 -11q-17 0 -27 10.5zM0 816q0 10 10 23l106 126q14 17 32 17q19 0 33 -17l105 -126q10 -13 10 -23q0 -14 -14 -25q-10 -7 -20 -7q-15 0 -30 19l-84 112l-83 -112
q-15 -20 -32 -20q-8 0 -18 7q-15 12 -15 26z" />
    <glyph glyph-name="Idieresis" unicode="&#xcf;" horiz-adv-x="297" 
d="M121 0.5q-10 10.5 -10 29.5v640q0 19 10 29.5t27 10.5q18 0 28 -11t10 -29v-640q0 -18 -10 -29t-28 -11q-17 0 -27 10.5zM9 819.5q-15 14.5 -15 34.5q0 21 15 35.5t36 14.5q20 0 34.5 -15t14.5 -35t-14.5 -34.5t-34.5 -14.5q-21 0 -36 14.5zM216 819.5q-15 14.5 -15 34.5
t15 35t36 15q20 0 35 -15t15 -35t-15 -34.5t-35 -14.5q-21 0 -36 14.5z" />
    <glyph glyph-name="Idotaccent" unicode="&#x130;" horiz-adv-x="297" 
d="M121 0.5q-10 10.5 -10 29.5v640q0 19 10 29.5t27 10.5q18 0 28 -11t10 -29v-640q0 -18 -10 -29t-28 -11q-17 0 -27 10.5zM110 817.5q-16 15.5 -16 35.5q0 21 16 36.5t38 15.5q21 0 36.5 -15.5t15.5 -36.5q0 -20 -15.5 -35.5t-36.5 -15.5q-22 0 -38 15.5z" />
    <glyph glyph-name="uni1ECA" unicode="&#x1eca;" horiz-adv-x="297" 
d="M121 0.5q-10 10.5 -10 29.5v640q0 19 10 29.5t27 10.5q18 0 28 -11t10 -29v-640q0 -18 -10 -29t-28 -11q-17 0 -27 10.5zM109.5 -164.5q-15.5 14.5 -15.5 35.5q0 22 15.5 37t38.5 15q22 0 37 -15t15 -37q0 -21 -15 -35.5t-37 -14.5q-23 0 -38.5 14.5z" />
    <glyph glyph-name="Igrave" unicode="&#xcc;" horiz-adv-x="297" 
d="M121 0.5q-10 10.5 -10 29.5v640q0 19 10 29.5t27 10.5q18 0 28 -11t10 -29v-640q0 -18 -10 -29t-28 -11q-17 0 -27 10.5zM153 785q-17 0 -26 17l-78 138q-6 11 -6 20q0 17 20 27q9 5 19 5q21 0 33 -28l62 -141q3 -7 3 -14q0 -14 -15 -21q-6 -3 -12 -3z" />
    <glyph glyph-name="uni1EC8" unicode="&#x1ec8;" horiz-adv-x="297" 
d="M121 0.5q-10 10.5 -10 29.5v640q0 19 10 29.5t27 10.5q18 0 28 -11t10 -29v-640q0 -18 -10 -29t-28 -11q-17 0 -27 10.5zM116 786v8q0 17 10 29.5t29 27.5q17 14 24 21.5t7 18.5q0 15 -9.5 23.5t-28.5 8.5q-34 0 -54 -26q-10 -13 -23 -13q-6 0 -13 3q-15 9 -15 21
q0 6 5 14q14 22 42 37.5t64 15.5q48 0 73 -22.5t25 -56.5q0 -21 -10.5 -34.5t-30.5 -28.5q-16 -13 -22.5 -20.5t-6.5 -18.5v-8q0 -28 -34 -28q-32 0 -32 28z" />
    <glyph glyph-name="Imacron" unicode="&#x12a;" horiz-adv-x="297" 
d="M121 0.5q-10 10.5 -10 29.5v640q0 19 10 29.5t27 10.5q18 0 28 -11t10 -29v-640q0 -18 -10 -29t-28 -11q-17 0 -27 10.5zM-11 814q0 16 9.5 21.5t26.5 5.5h245q18 0 27 -6t9 -21q0 -26 -36 -26h-245q-36 0 -36 26z" />
    <glyph glyph-name="Iogonek" unicode="&#x12e;" horiz-adv-x="297" 
d="M234 -152q0 -10 -10 -20q-19 -19 -40 -27.5t-49 -8.5q-49 0 -78.5 24.5t-29.5 64.5q0 37 21.5 69t64.5 67q-2 8 -2 13v640q0 19 10 29.5t27 10.5q18 0 28 -11t10 -29v-640q0 -25 -19 -36q-43 -35 -60.5 -57t-17.5 -52q0 -18 13.5 -29.5t36.5 -11.5q31 0 53 20q8 8 18 8
q9 0 16 -7q8 -8 8 -17z" />
    <glyph glyph-name="Itilde" unicode="&#x128;" horiz-adv-x="297" 
d="M121 0.5q-10 10.5 -10 29.5v640q0 19 10 29.5t27 10.5q18 0 28 -11t10 -29v-640q0 -18 -10 -29t-28 -11q-17 0 -27 10.5zM-20 828q0 9 2 15q9 34 33.5 56t60.5 22q24 0 42.5 -8.5t43.5 -24.5q17 -12 28.5 -18t24.5 -6q34 0 46 42q7 21 25 21q14 0 21.5 -6.5t7.5 -18.5
l-2 -12q-10 -36 -35 -57.5t-60 -21.5q-23 0 -39.5 8t-39.5 23q-19 13 -32 19.5t-28 6.5q-32 0 -45 -41q-8 -22 -25 -22q-29 0 -29 23z" />
    <glyph glyph-name="J" unicode="J" horiz-adv-x="598" 
d="M53 104q-9 11 -9 22q0 15 14 26q9 8 22 8q19 0 31 -16q34 -47 77.5 -68t107.5 -21q72 0 111.5 42.5t39.5 119.5v453q0 19 9.5 29.5t27.5 10.5t28.5 -10.5t10.5 -29.5v-449q0 -68 -29 -120.5t-80.5 -81.5t-117.5 -29q-157 0 -243 114z" />
    <glyph glyph-name="Jcircumflex" unicode="&#x134;" horiz-adv-x="598" 
d="M53 104q-9 11 -9 22q0 15 14 26q9 8 22 8q19 0 31 -16q34 -47 77.5 -68t107.5 -21q72 0 111.5 42.5t39.5 119.5v453q0 19 9.5 29.5t27.5 10.5t28.5 -10.5t10.5 -29.5v-449q0 -68 -29 -120.5t-80.5 -81.5t-117.5 -29q-157 0 -243 114zM336 816q0 10 10 23l106 126
q14 17 32 17q19 0 33 -17l105 -126q10 -13 10 -23q0 -14 -14 -25q-10 -7 -20 -7q-15 0 -30 19l-84 112l-83 -112q-15 -20 -32 -20q-8 0 -18 7q-15 12 -15 26z" />
    <glyph glyph-name="K" unicode="K" horiz-adv-x="683" 
d="M559 21q-32 120 -97 201.5t-180 147.5l-126 -103v-237q0 -19 -10 -29.5t-28 -10.5q-17 0 -27 10.5t-10 29.5v640q0 19 10 29.5t27 10.5q18 0 28 -10.5t10 -29.5v-317l399 344q11 9 22 9q14 0 25 -11q10 -10 10 -24q0 -13 -12 -24l-267 -233q130 -77 202.5 -170t92.5 -211
l1 -8q0 -16 -9.5 -25t-24.5 -9q-27 0 -36 30z" />
    <glyph glyph-name="uni0136" unicode="&#x136;" horiz-adv-x="683" 
d="M559 21q-32 120 -97 201.5t-180 147.5l-126 -103v-237q0 -19 -10 -29.5t-28 -10.5q-17 0 -27 10.5t-10 29.5v640q0 19 10 29.5t27 10.5q18 0 28 -10.5t10 -29.5v-317l399 344q11 9 22 9q14 0 25 -11q10 -10 10 -24q0 -13 -12 -24l-267 -233q130 -77 202.5 -170t92.5 -211
l1 -8q0 -16 -9.5 -25t-24.5 -9q-27 0 -36 30zM270 -287q0 10 16 24q26 23 39.5 41t15.5 38q-8 -2 -13 -2q-21 0 -36.5 14.5t-15.5 35.5q0 27 17 43t46 16q30 0 47.5 -20t17.5 -56t-21.5 -72t-59.5 -66q-22 -17 -32 -17q-8 0 -14 7q-7 7 -7 14z" />
    <glyph glyph-name="L" unicode="L" horiz-adv-x="627" 
d="M116 32.5q-34 32.5 -34 89.5v548q0 19 10 29.5t27 10.5q18 0 28 -10.5t10 -29.5v-550q0 -26 14.5 -42t38.5 -16h333q39 0 39 -31q0 -15 -10 -23t-29 -8h-332q-61 0 -95 32.5z" />
    <glyph glyph-name="Lacute" unicode="&#x139;" horiz-adv-x="616" 
d="M116 32.5q-34 32.5 -34 89.5v548q0 19 10 29.5t27 10.5q18 0 28 -10.5t10 -29.5v-550q0 -26 14.5 -42t38.5 -16h333q39 0 39 -31q0 -15 -10 -23t-29 -8h-332q-61 0 -95 32.5zM100 810q0 7 3 13l62 141q12 28 33 28q10 0 19 -5q20 -10 20 -27q0 -9 -6 -20l-78 -138
q-9 -17 -26 -17q-6 0 -12 3q-15 7 -15 22z" />
    <glyph glyph-name="Lcaron" unicode="&#x13d;" horiz-adv-x="616" 
d="M116 32.5q-34 32.5 -34 89.5v548q0 19 10 29.5t27 10.5q18 0 28 -10.5t10 -29.5v-550q0 -26 14.5 -42t38.5 -16h333q39 0 39 -31q0 -15 -10 -23t-29 -8h-332q-61 0 -95 32.5zM357 498q0 11 17 25q51 43 54 77q-8 -2 -13 -2q-21 0 -36 14.5t-15 35.5q0 27 17 42.5t46 15.5
t46 -20.5t17 -54.5q0 -70 -79 -135q-22 -18 -34 -18q-8 0 -15 8q-5 7 -5 12z" />
    <glyph glyph-name="uni013B" unicode="&#x13b;" horiz-adv-x="627" 
d="M116 32.5q-34 32.5 -34 89.5v548q0 19 10 29.5t27 10.5q18 0 28 -10.5t10 -29.5v-550q0 -26 14.5 -42t38.5 -16h333q39 0 39 -31q0 -15 -10 -23t-29 -8h-332q-61 0 -95 32.5zM238 -287q0 10 16 24q26 23 39.5 41t15.5 38q-8 -2 -13 -2q-21 0 -36.5 14.5t-15.5 35.5
q0 27 17 43t46 16q30 0 47.5 -20t17.5 -56t-21.5 -72t-59.5 -66q-22 -17 -32 -17q-8 0 -14 7q-7 7 -7 14z" />
    <glyph glyph-name="Ldot" unicode="&#x13f;" horiz-adv-x="627" 
d="M116 32.5q-34 32.5 -34 89.5v548q0 19 10 29.5t27 10.5q18 0 28 -10.5t10 -29.5v-550q0 -26 14.5 -42t38.5 -16h333q39 0 39 -31q0 -15 -10 -23t-29 -8h-332q-61 0 -95 32.5zM317 301.5q-17 16.5 -17 38.5q0 23 17 40t41 17q23 0 40 -17t17 -40q0 -22 -17 -38.5
t-40 -16.5q-24 0 -41 16.5z" />
    <glyph glyph-name="uni1E36" unicode="&#x1e36;" horiz-adv-x="627" 
d="M116 32.5q-34 32.5 -34 89.5v548q0 19 10 29.5t27 10.5q18 0 28 -10.5t10 -29.5v-550q0 -26 14.5 -42t38.5 -16h333q39 0 39 -31q0 -15 -10 -23t-29 -8h-332q-61 0 -95 32.5zM272.5 -164.5q-15.5 14.5 -15.5 35.5q0 22 15.5 37t38.5 15q22 0 37 -15t15 -37
q0 -21 -15 -35.5t-37 -14.5q-23 0 -38.5 14.5z" />
    <glyph glyph-name="uni1E38" unicode="&#x1e38;" horiz-adv-x="616" 
d="M116 32.5q-34 32.5 -34 89.5v548q0 19 10 29.5t27 10.5q18 0 28 -10.5t10 -29.5v-550q0 -26 14.5 -42t38.5 -16h333q39 0 39 -31q0 -15 -10 -23t-29 -8h-332q-61 0 -95 32.5zM272.5 -164.5q-15.5 14.5 -15.5 35.5q0 22 15.5 37t38.5 15q22 0 37 -15t15 -37
q0 -21 -15 -35.5t-37 -14.5q-23 0 -38.5 14.5zM-42 814q0 16 9.5 21.5t26.5 5.5h245q18 0 27 -6t9 -21q0 -26 -36 -26h-245q-36 0 -36 26z" />
    <glyph glyph-name="uni1E3A" unicode="&#x1e3a;" horiz-adv-x="627" 
d="M116 32.5q-34 32.5 -34 89.5v548q0 19 10 29.5t27 10.5q18 0 28 -10.5t10 -29.5v-550q0 -26 14.5 -42t38.5 -16h333q39 0 39 -31q0 -15 -10 -23t-29 -8h-332q-61 0 -95 32.5zM153 -114q0 16 9.5 21.5t26.5 5.5h245q18 0 27 -6t9 -21q0 -26 -36 -26h-245q-36 0 -36 26z
" />
    <glyph glyph-name="Lslash" unicode="&#x141;" horiz-adv-x="689" 
d="M644 31q0 -15 -10 -23t-29 -8h-332q-61 0 -95 32.5t-34 89.5v215l-53 -38q-8 -7 -20 -7q-17 0 -28 15q-8 11 -8 22q0 18 15 27l94 67v247q0 19 10 29.5t27 10.5q18 0 28 -10.5t10 -29.5v-194l58 41q9 6 20 6q17 0 28 -15q8 -11 8 -21q0 -15 -15 -27l-99 -70v-270
q0 -26 14.5 -42t38.5 -16h333q39 0 39 -31z" />
    <glyph glyph-name="M" unicode="M" horiz-adv-x="980" 
d="M85 0.5q-10 10.5 -10 29.5v452q0 106 60 167t165 61q61 0 112.5 -31.5t77.5 -83.5q26 53 76.5 84t113.5 31q105 0 165 -60.5t60 -167.5v-452q0 -19 -10.5 -29.5t-27.5 -10.5q-18 0 -27.5 10.5t-9.5 29.5v452q0 79 -35.5 121t-116.5 42q-71 0 -111 -43.5t-40 -119.5v-452
q0 -19 -10 -29.5t-27 -10.5t-26.5 10.5t-9.5 29.5v452q0 74 -42 118.5t-110 44.5q-81 0 -116.5 -42t-35.5 -121v-452q0 -19 -10 -29.5t-28 -10.5q-17 0 -27 10.5z" />
    <glyph glyph-name="uni1E42" unicode="&#x1e42;" horiz-adv-x="980" 
d="M85 0.5q-10 10.5 -10 29.5v452q0 106 60 167t165 61q61 0 112.5 -31.5t77.5 -83.5q26 53 76.5 84t113.5 31q105 0 165 -60.5t60 -167.5v-452q0 -19 -10.5 -29.5t-27.5 -10.5q-18 0 -27.5 10.5t-9.5 29.5v452q0 79 -35.5 121t-116.5 42q-71 0 -111 -43.5t-40 -119.5v-452
q0 -19 -10 -29.5t-27 -10.5t-26.5 10.5t-9.5 29.5v452q0 74 -42 118.5t-110 44.5q-81 0 -116.5 -42t-35.5 -121v-452q0 -19 -10 -29.5t-28 -10.5q-17 0 -27 10.5zM453.5 -164.5q-15.5 14.5 -15.5 35.5q0 22 15.5 37t38.5 15q22 0 37 -15t15 -37q0 -21 -15 -35.5t-37 -14.5
q-23 0 -38.5 14.5z" />
    <glyph glyph-name="N" unicode="N" horiz-adv-x="731" 
d="M84 0.5q-10 10.5 -10 29.5v408q0 83 35.5 144.5t101.5 94.5t155 33t154.5 -33t101 -94.5t35.5 -144.5v-408q0 -19 -9.5 -29.5t-27.5 -10.5q-17 0 -27.5 10.5t-10.5 29.5v411q0 97 -57 151t-159 54q-100 0 -158.5 -55t-58.5 -150v-411q0 -19 -10 -29.5t-28 -10.5
q-17 0 -27 10.5z" />
    <glyph glyph-name="Nacute" unicode="&#x143;" horiz-adv-x="731" 
d="M84 0.5q-10 10.5 -10 29.5v408q0 83 35.5 144.5t101.5 94.5t155 33t154.5 -33t101 -94.5t35.5 -144.5v-408q0 -19 -9.5 -29.5t-27.5 -10.5q-17 0 -27.5 10.5t-10.5 29.5v411q0 97 -57 151t-159 54q-100 0 -158.5 -55t-58.5 -150v-411q0 -19 -10 -29.5t-28 -10.5
q-17 0 -27 10.5zM340 810q0 7 3 13l62 141q12 28 33 28q10 0 19 -5q20 -10 20 -27q0 -9 -6 -20l-78 -138q-9 -17 -26 -17q-6 0 -12 3q-15 7 -15 22z" />
    <glyph glyph-name="Ncaron" unicode="&#x147;" horiz-adv-x="731" 
d="M84 0.5q-10 10.5 -10 29.5v408q0 83 35.5 144.5t101.5 94.5t155 33t154.5 -33t101 -94.5t35.5 -144.5v-408q0 -19 -9.5 -29.5t-27.5 -10.5q-17 0 -27.5 10.5t-10.5 29.5v411q0 97 -57 151t-159 54q-100 0 -158.5 -55t-58.5 -150v-411q0 -19 -10 -29.5t-28 -10.5
q-17 0 -27 10.5zM333 800l-106 127q-10 13 -10 23q0 13 15 25q8 7 19 7q15 0 31 -20l83 -112l84 112q14 20 32 20q8 0 17 -6q15 -10 15 -26q0 -13 -10 -24l-105 -126q-14 -17 -33 -17q-18 0 -32 17z" />
    <glyph glyph-name="uni0145" unicode="&#x145;" horiz-adv-x="731" 
d="M84 0.5q-10 10.5 -10 29.5v408q0 83 35.5 144.5t101.5 94.5t155 33t154.5 -33t101 -94.5t35.5 -144.5v-408q0 -19 -9.5 -29.5t-27.5 -10.5q-17 0 -27.5 10.5t-10.5 29.5v411q0 97 -57 151t-159 54q-100 0 -158.5 -55t-58.5 -150v-411q0 -19 -10 -29.5t-28 -10.5
q-17 0 -27 10.5zM292 -287q0 10 16 24q26 23 39.5 41t15.5 38q-8 -2 -13 -2q-21 0 -36.5 14.5t-15.5 35.5q0 27 17 43t46 16q30 0 47.5 -20t17.5 -56t-21.5 -72t-59.5 -66q-22 -17 -32 -17q-8 0 -14 7q-7 7 -7 14z" />
    <glyph glyph-name="uni1E44" unicode="&#x1e44;" horiz-adv-x="731" 
d="M84 0.5q-10 10.5 -10 29.5v408q0 83 35.5 144.5t101.5 94.5t155 33t154.5 -33t101 -94.5t35.5 -144.5v-408q0 -19 -9.5 -29.5t-27.5 -10.5q-17 0 -27.5 10.5t-10.5 29.5v411q0 97 -57 151t-159 54q-100 0 -158.5 -55t-58.5 -150v-411q0 -19 -10 -29.5t-28 -10.5
q-17 0 -27 10.5zM327 817.5q-16 15.5 -16 35.5q0 21 16 36.5t38 15.5q21 0 36.5 -15.5t15.5 -36.5q0 -20 -15.5 -35.5t-36.5 -15.5q-22 0 -38 15.5z" />
    <glyph glyph-name="uni1E46" unicode="&#x1e46;" horiz-adv-x="731" 
d="M84 0.5q-10 10.5 -10 29.5v408q0 83 35.5 144.5t101.5 94.5t155 33t154.5 -33t101 -94.5t35.5 -144.5v-408q0 -19 -9.5 -29.5t-27.5 -10.5q-17 0 -27.5 10.5t-10.5 29.5v411q0 97 -57 151t-159 54q-100 0 -158.5 -55t-58.5 -150v-411q0 -19 -10 -29.5t-28 -10.5
q-17 0 -27 10.5zM326.5 -164.5q-15.5 14.5 -15.5 35.5q0 22 15.5 37t38.5 15q22 0 37 -15t15 -37q0 -21 -15 -35.5t-37 -14.5q-23 0 -38.5 14.5z" />
    <glyph glyph-name="Eng" unicode="&#x14a;" horiz-adv-x="719" 
d="M184 -156q-10 13 -10 24q0 13 14 25q10 9 23 9q18 0 30 -17q34 -48 75.5 -67t106.5 -19q73 0 112.5 42.5t39.5 119.5v480q0 97 -57 151t-159 54q-100 0 -158.5 -55t-58.5 -150v-411q0 -19 -10 -29.5t-28 -10.5q-17 0 -27 10.5t-10 29.5v408q0 83 35.5 144.5t101.5 94.5
t155 33t154.5 -33t101 -94.5t35.5 -144.5v-473q0 -68 -29 -120.5t-80.5 -81.5t-117.5 -29q-159 0 -239 110z" />
    <glyph glyph-name="uni1E48" unicode="&#x1e48;" horiz-adv-x="731" 
d="M84 0.5q-10 10.5 -10 29.5v408q0 83 35.5 144.5t101.5 94.5t155 33t154.5 -33t101 -94.5t35.5 -144.5v-408q0 -19 -9.5 -29.5t-27.5 -10.5q-17 0 -27.5 10.5t-10.5 29.5v411q0 97 -57 151t-159 54q-100 0 -158.5 -55t-58.5 -150v-411q0 -19 -10 -29.5t-28 -10.5
q-17 0 -27 10.5zM207 -114q0 16 9.5 21.5t26.5 5.5h245q18 0 27 -6t9 -21q0 -26 -36 -26h-245q-36 0 -36 26z" />
    <glyph glyph-name="Ntilde" unicode="&#xd1;" horiz-adv-x="731" 
d="M84 0.5q-10 10.5 -10 29.5v408q0 83 35.5 144.5t101.5 94.5t155 33t154.5 -33t101 -94.5t35.5 -144.5v-408q0 -19 -9.5 -29.5t-27.5 -10.5q-17 0 -27.5 10.5t-10.5 29.5v411q0 97 -57 151t-159 54q-100 0 -158.5 -55t-58.5 -150v-411q0 -19 -10 -29.5t-28 -10.5
q-17 0 -27 10.5zM197 828q0 9 2 15q9 34 33.5 56t60.5 22q24 0 42.5 -8.5t43.5 -24.5q17 -12 28.5 -18t24.5 -6q34 0 46 42q7 21 25 21q14 0 21.5 -6.5t7.5 -18.5l-2 -12q-10 -36 -35 -57.5t-60 -21.5q-23 0 -39.5 8t-39.5 23q-19 13 -32 19.5t-28 6.5q-32 0 -45 -41
q-8 -22 -25 -22q-29 0 -29 23z" />
    <glyph glyph-name="O" unicode="O" horiz-adv-x="820" 
d="M228 34.5q-81 44.5 -127.5 126.5t-46.5 189q0 108 46.5 189.5t127.5 126t182 44.5t182 -44.5t127.5 -126t46.5 -189.5q0 -107 -46.5 -189t-127.5 -126.5t-182 -44.5t-182 44.5zM554.5 89q63.5 35 100 101.5t36.5 159.5q0 94 -37.5 161t-102 101t-143.5 34
q-80 0 -143.5 -35t-99.5 -102t-36 -159q0 -93 36.5 -159.5t100 -101.5t144.5 -35t144.5 35z" />
    <glyph glyph-name="Oacute" unicode="&#xd3;" horiz-adv-x="820" 
d="M228 34.5q-81 44.5 -127.5 126.5t-46.5 189q0 108 46.5 189.5t127.5 126t182 44.5t182 -44.5t127.5 -126t46.5 -189.5q0 -107 -46.5 -189t-127.5 -126.5t-182 -44.5t-182 44.5zM554.5 89q63.5 35 100 101.5t36.5 159.5q0 94 -37.5 161t-102 101t-143.5 34
q-80 0 -143.5 -35t-99.5 -102t-36 -159q0 -93 36.5 -159.5t100 -101.5t144.5 -35t144.5 35zM385 810q0 7 3 13l62 141q12 28 33 28q10 0 19 -5q20 -10 20 -27q0 -9 -6 -20l-78 -138q-9 -17 -26 -17q-6 0 -12 3q-15 7 -15 22z" />
    <glyph glyph-name="Obreve" unicode="&#x14e;" horiz-adv-x="820" 
d="M228 34.5q-81 44.5 -127.5 126.5t-46.5 189q0 108 46.5 189.5t127.5 126t182 44.5t182 -44.5t127.5 -126t46.5 -189.5q0 -107 -46.5 -189t-127.5 -126.5t-182 -44.5t-182 44.5zM554.5 89q63.5 35 100 101.5t36.5 159.5q0 94 -37.5 161t-102 101t-143.5 34
q-80 0 -143.5 -35t-99.5 -102t-36 -159q0 -93 36.5 -159.5t100 -101.5t144.5 -35t144.5 35zM294 827q-42 42 -42 105q0 39 35 39q33 0 33 -39q0 -42 22 -67t65 -25t64.5 25t21.5 67q0 39 34 39t34 -39q0 -63 -41.5 -105t-112.5 -42t-113 42z" />
    <glyph glyph-name="uni01D1" unicode="&#x1d1;" horiz-adv-x="820" 
d="M228 34.5q-81 44.5 -127.5 126.5t-46.5 189q0 108 46.5 189.5t127.5 126t182 44.5t182 -44.5t127.5 -126t46.5 -189.5q0 -107 -46.5 -189t-127.5 -126.5t-182 -44.5t-182 44.5zM554.5 89q63.5 35 100 101.5t36.5 159.5q0 94 -37.5 161t-102 101t-143.5 34
q-80 0 -143.5 -35t-99.5 -102t-36 -159q0 -93 36.5 -159.5t100 -101.5t144.5 -35t144.5 35zM378 800l-106 127q-10 13 -10 23q0 13 15 25q8 7 19 7q15 0 31 -20l83 -112l84 112q14 20 32 20q8 0 17 -6q15 -10 15 -26q0 -13 -10 -24l-105 -126q-14 -17 -33 -17q-18 0 -32 17z
" />
    <glyph glyph-name="Ocircumflex" unicode="&#xd4;" horiz-adv-x="820" 
d="M228 34.5q-81 44.5 -127.5 126.5t-46.5 189q0 108 46.5 189.5t127.5 126t182 44.5t182 -44.5t127.5 -126t46.5 -189.5q0 -107 -46.5 -189t-127.5 -126.5t-182 -44.5t-182 44.5zM554.5 89q63.5 35 100 101.5t36.5 159.5q0 94 -37.5 161t-102 101t-143.5 34
q-80 0 -143.5 -35t-99.5 -102t-36 -159q0 -93 36.5 -159.5t100 -101.5t144.5 -35t144.5 35zM262 816q0 10 10 23l106 126q14 17 32 17q19 0 33 -17l105 -126q10 -13 10 -23q0 -14 -14 -25q-10 -7 -20 -7q-15 0 -30 19l-84 112l-83 -112q-15 -20 -32 -20q-8 0 -18 7
q-15 12 -15 26z" />
    <glyph glyph-name="uni1ED0" unicode="&#x1ed0;" horiz-adv-x="820" 
d="M228 34.5q-81 44.5 -127.5 126.5t-46.5 189q0 108 46.5 189.5t127.5 126t182 44.5t182 -44.5t127.5 -126t46.5 -189.5q0 -107 -46.5 -189t-127.5 -126.5t-182 -44.5t-182 44.5zM554.5 89q63.5 35 100 101.5t36.5 159.5q0 94 -37.5 161t-102 101t-143.5 34
q-80 0 -143.5 -35t-99.5 -102t-36 -159q0 -93 36.5 -159.5t100 -101.5t144.5 -35t144.5 35zM496 949q0 8 5 16l62 103q12 21 31 21q9 0 20 -6q15 -9 15 -24q0 -12 -8 -22l-77 -98q-12 -14 -23 -14q-6 0 -14 5q-11 6 -11 19zM262 816q0 12 10 22l106 112q9 9 15.5 13t16.5 4
t16.5 -4t15.5 -13l106 -111q10 -10 10 -23q0 -15 -15 -26q-9 -6 -17 -6q-16 0 -32 19l-84 97l-84 -98q-17 -19 -31 -19q-8 0 -18 7q-15 12 -15 26z" />
    <glyph glyph-name="uni1ED8" unicode="&#x1ed8;" horiz-adv-x="820" 
d="M228 34.5q-81 44.5 -127.5 126.5t-46.5 189q0 108 46.5 189.5t127.5 126t182 44.5t182 -44.5t127.5 -126t46.5 -189.5q0 -107 -46.5 -189t-127.5 -126.5t-182 -44.5t-182 44.5zM554.5 89q63.5 35 100 101.5t36.5 159.5q0 94 -37.5 161t-102 101t-143.5 34
q-80 0 -143.5 -35t-99.5 -102t-36 -159q0 -93 36.5 -159.5t100 -101.5t144.5 -35t144.5 35zM371.5 -164.5q-15.5 14.5 -15.5 35.5q0 22 15.5 37t38.5 15q22 0 37 -15t15 -37q0 -21 -15 -35.5t-37 -14.5q-23 0 -38.5 14.5zM262 816q0 10 10 23l106 126q14 17 32 17
q19 0 33 -17l105 -126q10 -13 10 -23q0 -14 -14 -25q-10 -7 -20 -7q-15 0 -30 19l-84 112l-83 -112q-15 -20 -32 -20q-8 0 -18 7q-15 12 -15 26z" />
    <glyph glyph-name="uni1ED2" unicode="&#x1ed2;" horiz-adv-x="820" 
d="M228 34.5q-81 44.5 -127.5 126.5t-46.5 189q0 108 46.5 189.5t127.5 126t182 44.5t182 -44.5t127.5 -126t46.5 -189.5q0 -107 -46.5 -189t-127.5 -126.5t-182 -44.5t-182 44.5zM554.5 89q63.5 35 100 101.5t36.5 159.5q0 94 -37.5 161t-102 101t-143.5 34
q-80 0 -143.5 -35t-99.5 -102t-36 -159q0 -93 36.5 -159.5t100 -101.5t144.5 -35t144.5 35zM556 925q-11 0 -23 14l-77 98q-8 10 -8 21q0 16 17 26q10 5 18 5q19 0 32 -21l61 -103q5 -10 5 -17q0 -11 -12 -19q-5 -4 -13 -4zM262 816q0 12 10 22l106 112q9 9 15.5 13t16.5 4
q16 0 32 -17l106 -111q10 -10 10 -23q0 -15 -15 -26q-9 -6 -17 -6q-16 0 -32 19l-84 97l-84 -98q-17 -19 -31 -19q-8 0 -18 7q-15 12 -15 26z" />
    <glyph glyph-name="uni1ED4" unicode="&#x1ed4;" horiz-adv-x="820" 
d="M228 34.5q-81 44.5 -127.5 126.5t-46.5 189q0 108 46.5 189.5t127.5 126t182 44.5t182 -44.5t127.5 -126t46.5 -189.5q0 -107 -46.5 -189t-127.5 -126.5t-182 -44.5t-182 44.5zM554.5 89q63.5 35 100 101.5t36.5 159.5q0 94 -37.5 161t-102 101t-143.5 34
q-80 0 -143.5 -35t-99.5 -102t-36 -159q0 -93 36.5 -159.5t100 -101.5t144.5 -35t144.5 35zM488 945v8q0 15 9 26t27 26q14 10 21 18t7 18q0 13 -9 21t-26 8q-16 0 -27 -5t-20 -16q-10 -12 -20 -12q-6 0 -13 4q-13 8 -13 18q0 6 5 14q13 20 36.5 32t56.5 12q45 0 66.5 -20
t21.5 -51q0 -19 -9 -31t-27 -27q-13 -10 -19.5 -18t-6.5 -18v-7q0 -25 -30 -25t-30 25zM262 816q0 12 10 22l106 112q9 9 15.5 13t16.5 4q16 0 32 -17l106 -111q10 -10 10 -23q0 -15 -15 -26q-9 -6 -17 -6q-16 0 -32 19l-84 97l-84 -98q-17 -19 -31 -19q-8 0 -18 7
q-15 12 -15 26z" />
    <glyph glyph-name="uni1ED6" unicode="&#x1ed6;" horiz-adv-x="820" 
d="M228 34.5q-81 44.5 -127.5 126.5t-46.5 189q0 108 46.5 189.5t127.5 126t182 44.5t182 -44.5t127.5 -126t46.5 -189.5q0 -107 -46.5 -189t-127.5 -126.5t-182 -44.5t-182 44.5zM554.5 89q63.5 35 100 101.5t36.5 159.5q0 94 -37.5 161t-102 101t-143.5 34
q-80 0 -143.5 -35t-99.5 -102t-36 -159q0 -93 36.5 -159.5t100 -101.5t144.5 -35t144.5 35zM256 1006q0 3 2 13q8 33 32.5 53t57.5 20q23 0 41 -8.5t41 -23.5q16 -12 27.5 -17.5t22.5 -5.5q31 0 44 40q7 21 23 21q28 0 28 -23q0 -4 -2 -14q-8 -31 -32 -52t-58 -21
q-21 0 -38 8t-37 22q-19 12 -30.5 18t-26.5 6t-26.5 -10t-16.5 -27q-7 -23 -23 -23l-12 2q-17 5 -17 22zM263 816q0 13 10 23l105 112q16 17 32 17q20 0 32 -17l106 -112q10 -10 10 -23q0 -14 -14 -25q-8 -7 -19 -7q-15 0 -31 19l-84 98l-83 -98q-16 -19 -31 -19q-9 0 -20 8
q-13 9 -13 24z" />
    <glyph glyph-name="Odieresis" unicode="&#xd6;" horiz-adv-x="820" 
d="M228 34.5q-81 44.5 -127.5 126.5t-46.5 189q0 108 46.5 189.5t127.5 126t182 44.5t182 -44.5t127.5 -126t46.5 -189.5q0 -107 -46.5 -189t-127.5 -126.5t-182 -44.5t-182 44.5zM554.5 89q63.5 35 100 101.5t36.5 159.5q0 94 -37.5 161t-102 101t-143.5 34
q-80 0 -143.5 -35t-99.5 -102t-36 -159q0 -93 36.5 -159.5t100 -101.5t144.5 -35t144.5 35zM271 819.5q-15 14.5 -15 34.5q0 21 15 35.5t36 14.5q20 0 34.5 -15t14.5 -35t-14.5 -34.5t-34.5 -14.5q-21 0 -36 14.5zM478 819.5q-15 14.5 -15 34.5t15 35t36 15q20 0 35 -15
t15 -35t-15 -34.5t-35 -14.5q-21 0 -36 14.5z" />
    <glyph glyph-name="uni1ECC" unicode="&#x1ecc;" horiz-adv-x="820" 
d="M228 34.5q-81 44.5 -127.5 126.5t-46.5 189q0 108 46.5 189.5t127.5 126t182 44.5t182 -44.5t127.5 -126t46.5 -189.5q0 -107 -46.5 -189t-127.5 -126.5t-182 -44.5t-182 44.5zM554.5 89q63.5 35 100 101.5t36.5 159.5q0 94 -37.5 161t-102 101t-143.5 34
q-80 0 -143.5 -35t-99.5 -102t-36 -159q0 -93 36.5 -159.5t100 -101.5t144.5 -35t144.5 35zM371.5 -164.5q-15.5 14.5 -15.5 35.5q0 22 15.5 37t38.5 15q22 0 37 -15t15 -37q0 -21 -15 -35.5t-37 -14.5q-23 0 -38.5 14.5z" />
    <glyph glyph-name="Ograve" unicode="&#xd2;" horiz-adv-x="820" 
d="M228 34.5q-81 44.5 -127.5 126.5t-46.5 189q0 108 46.5 189.5t127.5 126t182 44.5t182 -44.5t127.5 -126t46.5 -189.5q0 -107 -46.5 -189t-127.5 -126.5t-182 -44.5t-182 44.5zM554.5 89q63.5 35 100 101.5t36.5 159.5q0 94 -37.5 161t-102 101t-143.5 34
q-80 0 -143.5 -35t-99.5 -102t-36 -159q0 -93 36.5 -159.5t100 -101.5t144.5 -35t144.5 35zM415 785q-17 0 -26 17l-78 138q-6 11 -6 20q0 17 20 27q9 5 19 5q21 0 33 -28l62 -141q3 -7 3 -14q0 -14 -15 -21q-6 -3 -12 -3z" />
    <glyph glyph-name="uni1ECE" unicode="&#x1ece;" horiz-adv-x="820" 
d="M228 34.5q-81 44.5 -127.5 126.5t-46.5 189q0 108 46.5 189.5t127.5 126t182 44.5t182 -44.5t127.5 -126t46.5 -189.5q0 -107 -46.5 -189t-127.5 -126.5t-182 -44.5t-182 44.5zM554.5 89q63.5 35 100 101.5t36.5 159.5q0 94 -37.5 161t-102 101t-143.5 34
q-80 0 -143.5 -35t-99.5 -102t-36 -159q0 -93 36.5 -159.5t100 -101.5t144.5 -35t144.5 35zM378 786v8q0 17 10 29.5t29 27.5q17 14 24 21.5t7 18.5q0 15 -9.5 23.5t-28.5 8.5q-34 0 -54 -26q-10 -13 -23 -13q-6 0 -13 3q-15 9 -15 21q0 6 5 14q14 22 42 37.5t64 15.5
q48 0 73 -22.5t25 -56.5q0 -21 -10.5 -34.5t-30.5 -28.5q-16 -13 -22.5 -20.5t-6.5 -18.5v-8q0 -28 -34 -28q-32 0 -32 28z" />
    <glyph glyph-name="Ohorn" unicode="&#x1a0;" horiz-adv-x="820" 
d="M788 626.5q-36 -39.5 -96 -45.5q36 -45 55 -103.5t19 -127.5q0 -107 -46.5 -189t-127.5 -126.5t-182 -44.5t-182 44.5t-127.5 126.5t-46.5 189q0 108 46.5 189.5t127.5 126t182 44.5q67 0 126.5 -20.5t106.5 -58.5q1 1 3 1l39 5q73 9 73 88q0 38 32 38q17 0 25.5 -10
t8.5 -28q0 -59 -36 -98.5zM554.5 89q63.5 35 100 101.5t36.5 159.5q0 94 -37.5 161t-102 101t-143.5 34q-80 0 -143.5 -35t-99.5 -102t-36 -159q0 -93 36.5 -159.5t100 -101.5t144.5 -35t144.5 35z" />
    <glyph glyph-name="uni1EDA" unicode="&#x1eda;" horiz-adv-x="820" 
d="M788 626.5q-36 -39.5 -96 -45.5q36 -45 55 -103.5t19 -127.5q0 -107 -46.5 -189t-127.5 -126.5t-182 -44.5t-182 44.5t-127.5 126.5t-46.5 189q0 108 46.5 189.5t127.5 126t182 44.5q67 0 126.5 -20.5t106.5 -58.5q1 1 3 1l39 5q73 9 73 88q0 38 32 38q17 0 25.5 -10
t8.5 -28q0 -59 -36 -98.5zM554.5 89q63.5 35 100 101.5t36.5 159.5q0 94 -37.5 161t-102 101t-143.5 34q-80 0 -143.5 -35t-99.5 -102t-36 -159q0 -93 36.5 -159.5t100 -101.5t144.5 -35t144.5 35zM385 810q0 7 3 13l62 141q12 28 33 28q10 0 19 -5q20 -10 20 -27
q0 -9 -6 -20l-78 -138q-9 -17 -26 -17q-6 0 -12 3q-15 7 -15 22z" />
    <glyph glyph-name="uni1EE2" unicode="&#x1ee2;" horiz-adv-x="820" 
d="M788 626.5q-36 -39.5 -96 -45.5q36 -45 55 -103.5t19 -127.5q0 -107 -46.5 -189t-127.5 -126.5t-182 -44.5t-182 44.5t-127.5 126.5t-46.5 189q0 108 46.5 189.5t127.5 126t182 44.5q67 0 126.5 -20.5t106.5 -58.5q1 1 3 1l39 5q73 9 73 88q0 38 32 38q17 0 25.5 -10
t8.5 -28q0 -59 -36 -98.5zM554.5 89q63.5 35 100 101.5t36.5 159.5q0 94 -37.5 161t-102 101t-143.5 34q-80 0 -143.5 -35t-99.5 -102t-36 -159q0 -93 36.5 -159.5t100 -101.5t144.5 -35t144.5 35zM371.5 -164.5q-15.5 14.5 -15.5 35.5q0 22 15.5 37t38.5 15q22 0 37 -15
t15 -37q0 -21 -15 -35.5t-37 -14.5q-23 0 -38.5 14.5z" />
    <glyph glyph-name="uni1EDC" unicode="&#x1edc;" horiz-adv-x="820" 
d="M788 626.5q-36 -39.5 -96 -45.5q36 -45 55 -103.5t19 -127.5q0 -107 -46.5 -189t-127.5 -126.5t-182 -44.5t-182 44.5t-127.5 126.5t-46.5 189q0 108 46.5 189.5t127.5 126t182 44.5q67 0 126.5 -20.5t106.5 -58.5q1 1 3 1l39 5q73 9 73 88q0 38 32 38q17 0 25.5 -10
t8.5 -28q0 -59 -36 -98.5zM554.5 89q63.5 35 100 101.5t36.5 159.5q0 94 -37.5 161t-102 101t-143.5 34q-80 0 -143.5 -35t-99.5 -102t-36 -159q0 -93 36.5 -159.5t100 -101.5t144.5 -35t144.5 35zM410 785q-17 0 -26 17l-78 138q-6 11 -6 20q0 17 20 27q9 5 19 5
q21 0 33 -28l62 -141q3 -7 3 -14q0 -14 -15 -21q-6 -3 -12 -3z" />
    <glyph glyph-name="uni1EDE" unicode="&#x1ede;" horiz-adv-x="820" 
d="M788 626.5q-36 -39.5 -96 -45.5q36 -45 55 -103.5t19 -127.5q0 -107 -46.5 -189t-127.5 -126.5t-182 -44.5t-182 44.5t-127.5 126.5t-46.5 189q0 108 46.5 189.5t127.5 126t182 44.5q67 0 126.5 -20.5t106.5 -58.5q1 1 3 1l39 5q73 9 73 88q0 38 32 38q17 0 25.5 -10
t8.5 -28q0 -59 -36 -98.5zM554.5 89q63.5 35 100 101.5t36.5 159.5q0 94 -37.5 161t-102 101t-143.5 34q-80 0 -143.5 -35t-99.5 -102t-36 -159q0 -93 36.5 -159.5t100 -101.5t144.5 -35t144.5 35zM378 786v8q0 17 10 29.5t29 27.5q17 14 24 21.5t7 18.5q0 15 -9.5 23.5
t-28.5 8.5q-34 0 -54 -26q-10 -13 -23 -13q-6 0 -13 3q-15 9 -15 21q0 6 5 14q14 22 42 37.5t64 15.5q48 0 73 -22.5t25 -56.5q0 -21 -10.5 -34.5t-30.5 -28.5q-16 -13 -22.5 -20.5t-6.5 -18.5v-8q0 -28 -34 -28q-32 0 -32 28z" />
    <glyph glyph-name="uni1EE0" unicode="&#x1ee0;" horiz-adv-x="820" 
d="M788 626.5q-36 -39.5 -96 -45.5q36 -45 55 -103.5t19 -127.5q0 -107 -46.5 -189t-127.5 -126.5t-182 -44.5t-182 44.5t-127.5 126.5t-46.5 189q0 108 46.5 189.5t127.5 126t182 44.5q67 0 126.5 -20.5t106.5 -58.5q1 1 3 1l39 5q73 9 73 88q0 38 32 38q17 0 25.5 -10
t8.5 -28q0 -59 -36 -98.5zM554.5 89q63.5 35 100 101.5t36.5 159.5q0 94 -37.5 161t-102 101t-143.5 34q-80 0 -143.5 -35t-99.5 -102t-36 -159q0 -93 36.5 -159.5t100 -101.5t144.5 -35t144.5 35zM243 831q0 9 2 15q9 34 33.5 56t60.5 22q24 0 42.5 -8.5t43.5 -24.5
q17 -12 28.5 -18t24.5 -6q34 0 46 42q7 21 25 21q14 0 21.5 -6.5t7.5 -18.5l-2 -12q-10 -36 -35 -57.5t-60 -21.5q-23 0 -39.5 8t-39.5 23q-19 13 -32 19.5t-28 6.5q-32 0 -45 -41q-8 -22 -25 -22q-29 0 -29 23z" />
    <glyph glyph-name="Ohungarumlaut" unicode="&#x150;" horiz-adv-x="820" 
d="M228 34.5q-81 44.5 -127.5 126.5t-46.5 189q0 108 46.5 189.5t127.5 126t182 44.5t182 -44.5t127.5 -126t46.5 -189.5q0 -107 -46.5 -189t-127.5 -126.5t-182 -44.5t-182 44.5zM554.5 89q63.5 35 100 101.5t36.5 159.5q0 94 -37.5 161t-102 101t-143.5 34
q-80 0 -143.5 -35t-99.5 -102t-36 -159q0 -93 36.5 -159.5t100 -101.5t144.5 -35t144.5 35zM471.5 791q-3.5 6 -3.5 13q0 10 6 19l87 144q14 25 34 25q10 0 19 -5q22 -10 22 -28q0 -10 -8 -21l-104 -142q-12 -17 -29 -17q-6 0 -13 3t-10.5 9zM299 804q0 12 5 19l83 145
q14 24 34 24q7 0 19 -5q21 -10 21 -28q0 -9 -7 -20l-100 -143q-11 -17 -28 -17q-7 0 -14 3q-13 6 -13 22z" />
    <glyph glyph-name="Omacron" unicode="&#x14c;" horiz-adv-x="820" 
d="M228 34.5q-81 44.5 -127.5 126.5t-46.5 189q0 108 46.5 189.5t127.5 126t182 44.5t182 -44.5t127.5 -126t46.5 -189.5q0 -107 -46.5 -189t-127.5 -126.5t-182 -44.5t-182 44.5zM554.5 89q63.5 35 100 101.5t36.5 159.5q0 94 -37.5 161t-102 101t-143.5 34
q-80 0 -143.5 -35t-99.5 -102t-36 -159q0 -93 36.5 -159.5t100 -101.5t144.5 -35t144.5 35zM251 814q0 16 9.5 21.5t26.5 5.5h245q18 0 27 -6t9 -21q0 -26 -36 -26h-245q-36 0 -36 26z" />
    <glyph glyph-name="Oslash" unicode="&#xd8;" horiz-adv-x="808" 
d="M716 539.5q47 -82.5 47 -189.5q0 -105 -45.5 -187t-127 -127.5t-186.5 -45.5q-64 0 -121 17l-25 -55q-4 -10 -13.5 -15.5t-20.5 -5.5q-17 0 -27.5 10.5t-10.5 24.5q0 8 3 16l25 55q-80 46 -124.5 127t-44.5 186t45.5 187t127 127.5t186.5 45.5q61 0 112 -15l25 54
q4 10 14 16t21 6q9 0 16 -4q11 -5 17 -13.5t6 -18.5q0 -6 -3 -12l-26 -56q83 -45 130 -127.5zM158.5 203.5q30.5 -63.5 86.5 -100.5l241 527q-41 11 -86 11q-82 0 -143.5 -36t-95 -102t-33.5 -153q0 -83 30.5 -146.5zM549.5 95q62.5 36 96.5 101.5t34 153.5q0 85 -32.5 150
t-91.5 101l-243 -529q40 -13 91 -13q83 0 145.5 36z" />
    <glyph glyph-name="Oslashacute" unicode="&#x1fe;" horiz-adv-x="808" 
d="M716 539.5q47 -82.5 47 -189.5q0 -105 -45.5 -187t-127 -127.5t-186.5 -45.5q-64 0 -121 17l-25 -55q-4 -10 -13.5 -15.5t-20.5 -5.5q-17 0 -27.5 10.5t-10.5 24.5q0 8 3 16l25 55q-80 46 -124.5 127t-44.5 186t45.5 187t127 127.5t186.5 45.5q61 0 112 -15l25 54
q4 10 14 16t21 6q9 0 16 -4q11 -5 17 -13.5t6 -18.5q0 -6 -3 -12l-26 -56q83 -45 130 -127.5zM158.5 203.5q30.5 -63.5 86.5 -100.5l241 527q-41 11 -86 11q-82 0 -143.5 -36t-95 -102t-33.5 -153q0 -83 30.5 -146.5zM549.5 95q62.5 36 96.5 101.5t34 153.5q0 85 -32.5 150
t-91.5 101l-243 -529q40 -13 91 -13q83 0 145.5 36zM379 810q0 7 3 13l62 141q12 28 33 28q10 0 19 -5q20 -10 20 -27q0 -9 -6 -20l-78 -138q-9 -17 -26 -17q-6 0 -12 3q-15 7 -15 22z" />
    <glyph glyph-name="Otilde" unicode="&#xd5;" horiz-adv-x="820" 
d="M228 34.5q-81 44.5 -127.5 126.5t-46.5 189q0 108 46.5 189.5t127.5 126t182 44.5t182 -44.5t127.5 -126t46.5 -189.5q0 -107 -46.5 -189t-127.5 -126.5t-182 -44.5t-182 44.5zM554.5 89q63.5 35 100 101.5t36.5 159.5q0 94 -37.5 161t-102 101t-143.5 34
q-80 0 -143.5 -35t-99.5 -102t-36 -159q0 -93 36.5 -159.5t100 -101.5t144.5 -35t144.5 35zM242 828q0 9 2 15q9 34 33.5 56t60.5 22q24 0 42.5 -8.5t43.5 -24.5q17 -12 28.5 -18t24.5 -6q34 0 46 42q7 21 25 21q14 0 21.5 -6.5t7.5 -18.5l-2 -12q-10 -36 -35 -57.5
t-60 -21.5q-23 0 -39.5 8t-39.5 23q-19 13 -32 19.5t-28 6.5q-32 0 -45 -41q-8 -22 -25 -22q-29 0 -29 23z" />
    <glyph glyph-name="OE" unicode="&#x152;" horiz-adv-x="1238" 
d="M226.5 35.5q-81.5 45.5 -127 127.5t-45.5 187t45.5 187t127 127.5t186.5 45.5q83 0 153.5 -37.5t120.5 -109.5v30q0 49 32 78t88 29h311q43 0 43 -35q0 -34 -43 -34h-301q-23 0 -37 -15t-14 -41v-183h276q43 0 43 -35q0 -34 -43 -34h-276v-198q0 -26 14 -41t37 -15h323
q43 0 43 -35q0 -16 -11.5 -25t-31.5 -9h-331q-54 0 -87.5 29.5t-33.5 77.5v30q-102 -147 -275 -147q-105 0 -186.5 45.5zM554.5 96.5q60.5 35.5 93.5 101t33 152.5t-33.5 152.5t-95 101t-143.5 35.5q-81 0 -142 -35.5t-94.5 -101t-33.5 -152.5t33.5 -152.5t95.5 -101
t145 -35.5q81 0 141.5 35.5z" />
    <glyph glyph-name="P" unicode="P" horiz-adv-x="717" 
d="M90 0.5q-10 10.5 -10 29.5v550q0 56 33.5 88t93.5 32h170q285 0 285 -239q0 -110 -72.5 -169.5t-208.5 -59.5h-226v-202q0 -19 -10 -29.5t-28 -10.5q-17 0 -27 10.5zM531.5 333q53.5 38 53.5 128q0 94 -52 135.5t-151 41.5h-174q-24 0 -38.5 -16t-14.5 -42v-285h226
q97 0 150.5 38z" />
    <glyph glyph-name="Thorn" unicode="&#xde;" horiz-adv-x="621" 
d="M81 1.5q-11 11.5 -11 31.5v635q0 20 11 31.5t31 11.5t31.5 -11.5t11.5 -31.5v-86h190q106 0 168.5 -58t62.5 -156t-62.5 -156t-168.5 -58h-190v-121q0 -20 -11.5 -31.5t-31.5 -11.5t-31 11.5zM345 223q68 0 106.5 38.5t38.5 106.5t-38.5 106.5t-106.5 38.5h-190v-290h190
z" />
    <glyph glyph-name="Q" unicode="Q" horiz-adv-x="820" 
d="M663 -40q-18 0 -26 15q-8 16 -36 68q-87 -53 -191 -53q-101 0 -182 44.5t-127.5 126.5t-46.5 189q0 108 46.5 189.5t127.5 126t182 44.5t182 -44.5t127.5 -126t46.5 -189.5q0 -85 -29.5 -153.5t-81.5 -115.5q8 -17 18 -34l18 -35q6 -14 6 -23q0 -15 -15 -24q-7 -5 -19 -5
zM295.5 215.5q54.5 29.5 118.5 29.5q66 0 116.5 -28t85.5 -77q36 38 55.5 91t19.5 119q0 94 -37.5 161t-102 101t-143.5 34q-80 0 -143.5 -35t-99.5 -102t-36 -159q0 -67 20.5 -121t56.5 -92q35 49 89.5 78.5zM566 98q-55 83 -150 83q-53 0 -94.5 -23t-65.5 -62
q67 -42 154 -42q88 0 156 44z" />
    <glyph glyph-name="R" unicode="R" horiz-adv-x="717" 
d="M76 575q0 57 33.5 91t97.5 34h187q272 0 272 -226q0 -109 -66 -165t-199 -56l194 -201q9 -9 9 -23q0 -18 -15 -29q-12 -9 -25 -9q-20 0 -38 20l-230 242h-135v-220q0 -20 -11.5 -31.5t-31.5 -11.5t-31 11.5t-11 31.5v542zM399 322q92 0 136.5 34.5t44.5 117.5
q0 84 -45 120.5t-136 36.5h-187q-23 0 -37 -15t-14 -41v-253h238z" />
    <glyph glyph-name="Racute" unicode="&#x154;" horiz-adv-x="717" 
d="M76 575q0 57 33.5 91t97.5 34h187q272 0 272 -226q0 -109 -66 -165t-199 -56l194 -201q9 -9 9 -23q0 -18 -15 -29q-12 -9 -25 -9q-20 0 -38 20l-230 242h-135v-220q0 -20 -11.5 -31.5t-31.5 -11.5t-31 11.5t-11 31.5v542zM399 322q92 0 136.5 34.5t44.5 117.5
q0 84 -45 120.5t-136 36.5h-187q-23 0 -37 -15t-14 -41v-253h238zM320 810q0 7 3 13l62 141q12 28 33 28q10 0 19 -5q20 -10 20 -27q0 -9 -6 -20l-78 -138q-9 -17 -26 -17q-6 0 -12 3q-15 7 -15 22z" />
    <glyph glyph-name="Rcaron" unicode="&#x158;" horiz-adv-x="717" 
d="M76 575q0 57 33.5 91t97.5 34h187q272 0 272 -226q0 -109 -66 -165t-199 -56l194 -201q9 -9 9 -23q0 -18 -15 -29q-12 -9 -25 -9q-20 0 -38 20l-230 242h-135v-220q0 -20 -11.5 -31.5t-31.5 -11.5t-31 11.5t-11 31.5v542zM399 322q92 0 136.5 34.5t44.5 117.5
q0 84 -45 120.5t-136 36.5h-187q-23 0 -37 -15t-14 -41v-253h238zM313 800l-106 127q-10 13 -10 23q0 13 15 25q8 7 19 7q15 0 31 -20l83 -112l84 112q14 20 32 20q8 0 17 -6q15 -10 15 -26q0 -13 -10 -24l-105 -126q-14 -17 -33 -17q-18 0 -32 17z" />
    <glyph glyph-name="uni0156" unicode="&#x156;" horiz-adv-x="717" 
d="M76 575q0 57 33.5 91t97.5 34h187q272 0 272 -226q0 -109 -66 -165t-199 -56l194 -201q9 -9 9 -23q0 -18 -15 -29q-12 -9 -25 -9q-20 0 -38 20l-230 242h-135v-220q0 -20 -11.5 -31.5t-31.5 -11.5t-31 11.5t-11 31.5v542zM399 322q92 0 136.5 34.5t44.5 117.5
q0 84 -45 120.5t-136 36.5h-187q-23 0 -37 -15t-14 -41v-253h238zM272 -287q0 10 16 24q26 23 39.5 41t15.5 38q-8 -2 -13 -2q-21 0 -36.5 14.5t-15.5 35.5q0 27 17 43t46 16q30 0 47.5 -20t17.5 -56t-21.5 -72t-59.5 -66q-22 -17 -32 -17q-8 0 -14 7q-7 7 -7 14z" />
    <glyph glyph-name="uni1E5A" unicode="&#x1e5a;" horiz-adv-x="717" 
d="M76 575q0 57 33.5 91t97.5 34h187q272 0 272 -226q0 -109 -66 -165t-199 -56l194 -201q9 -9 9 -23q0 -18 -15 -29q-12 -9 -25 -9q-20 0 -38 20l-230 242h-135v-220q0 -20 -11.5 -31.5t-31.5 -11.5t-31 11.5t-11 31.5v542zM399 322q92 0 136.5 34.5t44.5 117.5
q0 84 -45 120.5t-136 36.5h-187q-23 0 -37 -15t-14 -41v-253h238zM306.5 -164.5q-15.5 14.5 -15.5 35.5q0 22 15.5 37t38.5 15q22 0 37 -15t15 -37q0 -21 -15 -35.5t-37 -14.5q-23 0 -38.5 14.5z" />
    <glyph glyph-name="uni1E5C" unicode="&#x1e5c;" horiz-adv-x="717" 
d="M76 575q0 57 33.5 91t97.5 34h187q272 0 272 -226q0 -109 -66 -165t-199 -56l194 -201q9 -9 9 -23q0 -18 -15 -29q-12 -9 -25 -9q-20 0 -38 20l-230 242h-135v-220q0 -20 -11.5 -31.5t-31.5 -11.5t-31 11.5t-11 31.5v542zM399 322q92 0 136.5 34.5t44.5 117.5
q0 84 -45 120.5t-136 36.5h-187q-23 0 -37 -15t-14 -41v-253h238zM306.5 -164.5q-15.5 14.5 -15.5 35.5q0 22 15.5 37t38.5 15q22 0 37 -15t15 -37q0 -21 -15 -35.5t-37 -14.5q-23 0 -38.5 14.5zM186 814q0 16 9.5 21.5t26.5 5.5h245q18 0 27 -6t9 -21q0 -26 -36 -26h-245
q-36 0 -36 26z" />
    <glyph glyph-name="uni1E5E" unicode="&#x1e5e;" horiz-adv-x="717" 
d="M76 575q0 57 33.5 91t97.5 34h187q272 0 272 -226q0 -109 -66 -165t-199 -56l194 -201q9 -9 9 -23q0 -18 -15 -29q-12 -9 -25 -9q-20 0 -38 20l-230 242h-135v-220q0 -20 -11.5 -31.5t-31.5 -11.5t-31 11.5t-11 31.5v542zM399 322q92 0 136.5 34.5t44.5 117.5
q0 84 -45 120.5t-136 36.5h-187q-23 0 -37 -15t-14 -41v-253h238zM187 -114q0 16 9.5 21.5t26.5 5.5h245q18 0 27 -6t9 -21q0 -26 -36 -26h-245q-36 0 -36 26z" />
    <glyph glyph-name="S" unicode="S" horiz-adv-x="681" 
d="M188.5 22.5q-80.5 32.5 -125.5 89.5q-8 10 -8 21q0 14 15 27q8 6 17 6q18 0 32 -17q41 -45 103.5 -69.5t142.5 -24.5q88 0 136 32.5t48 92.5q0 52 -46.5 84t-157.5 57q-145 32 -208.5 80.5t-63.5 128.5q0 83 70.5 131.5t190.5 48.5q91 0 164.5 -32t104.5 -86q6 -10 6 -19
q0 -16 -17 -28q-7 -4 -16 -4q-22 0 -34 17q-29 42 -82 64.5t-126 22.5q-185 0 -185 -115q0 -35 19 -58.5t61.5 -42t118.5 -36.5q148 -35 213 -84.5t65 -128.5q0 -88 -70.5 -139t-190.5 -51q-96 0 -176.5 32.5z" />
    <glyph glyph-name="Sacute" unicode="&#x15a;" horiz-adv-x="681" 
d="M188.5 22.5q-80.5 32.5 -125.5 89.5q-8 10 -8 21q0 14 15 27q8 6 17 6q18 0 32 -17q41 -45 103.5 -69.5t142.5 -24.5q88 0 136 32.5t48 92.5q0 52 -46.5 84t-157.5 57q-145 32 -208.5 80.5t-63.5 128.5q0 83 70.5 131.5t190.5 48.5q91 0 164.5 -32t104.5 -86q6 -10 6 -19
q0 -16 -17 -28q-7 -4 -16 -4q-22 0 -34 17q-29 42 -82 64.5t-126 22.5q-185 0 -185 -115q0 -35 19 -58.5t61.5 -42t118.5 -36.5q148 -35 213 -84.5t65 -128.5q0 -88 -70.5 -139t-190.5 -51q-96 0 -176.5 32.5zM317 810q0 7 3 13l62 141q12 28 33 28q10 0 19 -5
q20 -10 20 -27q0 -9 -6 -20l-78 -138q-9 -17 -26 -17q-6 0 -12 3q-15 7 -15 22z" />
    <glyph glyph-name="Scaron" unicode="&#x160;" horiz-adv-x="681" 
d="M188.5 22.5q-80.5 32.5 -125.5 89.5q-8 10 -8 21q0 14 15 27q8 6 17 6q18 0 32 -17q41 -45 103.5 -69.5t142.5 -24.5q88 0 136 32.5t48 92.5q0 52 -46.5 84t-157.5 57q-145 32 -208.5 80.5t-63.5 128.5q0 83 70.5 131.5t190.5 48.5q91 0 164.5 -32t104.5 -86q6 -10 6 -19
q0 -16 -17 -28q-7 -4 -16 -4q-22 0 -34 17q-29 42 -82 64.5t-126 22.5q-185 0 -185 -115q0 -35 19 -58.5t61.5 -42t118.5 -36.5q148 -35 213 -84.5t65 -128.5q0 -88 -70.5 -139t-190.5 -51q-96 0 -176.5 32.5zM310 800l-106 127q-10 13 -10 23q0 13 15 25q8 7 19 7
q15 0 31 -20l83 -112l84 112q14 20 32 20q8 0 17 -6q15 -10 15 -26q0 -13 -10 -24l-105 -126q-14 -17 -33 -17q-18 0 -32 17z" />
    <glyph glyph-name="Scedilla" unicode="&#x15e;" horiz-adv-x="681" 
d="M380 -12l-23 -45q41 1 62 -19t21 -51q0 -37 -26 -60.5t-72 -23.5q-35 0 -62 14.5t-42 35.5q-7 10 -7 16q0 8 12 19q7 6 15 6q10 0 19 -12q10 -14 26 -22t36 -8q21 0 32.5 10t11.5 27q0 36 -36 36q-9 0 -14 -1q-14 -2 -24.5 5.5t-10.5 20.5q0 6 3 12l21 44
q-82 7 -150.5 38.5t-108.5 81.5q-8 10 -8 21q0 14 15 27q8 6 17 6q18 0 32 -17q41 -45 103.5 -69.5t142.5 -24.5q88 0 136 32.5t48 92.5q0 52 -46.5 84t-157.5 57q-145 32 -208.5 80.5t-63.5 128.5q0 83 70.5 131.5t190.5 48.5q91 0 164.5 -32t104.5 -86q6 -10 6 -19
q0 -16 -17 -28q-7 -4 -16 -4q-22 0 -34 17q-29 42 -82 64.5t-126 22.5q-185 0 -185 -115q0 -35 19 -58.5t61.5 -42t118.5 -36.5q148 -35 213 -84.5t65 -128.5q0 -85 -66 -135.5t-179 -54.5z" />
    <glyph glyph-name="Scircumflex" unicode="&#x15c;" horiz-adv-x="681" 
d="M188.5 22.5q-80.5 32.5 -125.5 89.5q-8 10 -8 21q0 14 15 27q8 6 17 6q18 0 32 -17q41 -45 103.5 -69.5t142.5 -24.5q88 0 136 32.5t48 92.5q0 52 -46.5 84t-157.5 57q-145 32 -208.5 80.5t-63.5 128.5q0 83 70.5 131.5t190.5 48.5q91 0 164.5 -32t104.5 -86q6 -10 6 -19
q0 -16 -17 -28q-7 -4 -16 -4q-22 0 -34 17q-29 42 -82 64.5t-126 22.5q-185 0 -185 -115q0 -35 19 -58.5t61.5 -42t118.5 -36.5q148 -35 213 -84.5t65 -128.5q0 -88 -70.5 -139t-190.5 -51q-96 0 -176.5 32.5zM194 816q0 10 10 23l106 126q14 17 32 17q19 0 33 -17l105 -126
q10 -13 10 -23q0 -14 -14 -25q-10 -7 -20 -7q-15 0 -30 19l-84 112l-83 -112q-15 -20 -32 -20q-8 0 -18 7q-15 12 -15 26z" />
    <glyph glyph-name="uni0218" unicode="&#x218;" horiz-adv-x="681" 
d="M188.5 22.5q-80.5 32.5 -125.5 89.5q-8 10 -8 21q0 14 15 27q8 6 17 6q18 0 32 -17q41 -45 103.5 -69.5t142.5 -24.5q88 0 136 32.5t48 92.5q0 52 -46.5 84t-157.5 57q-145 32 -208.5 80.5t-63.5 128.5q0 83 70.5 131.5t190.5 48.5q91 0 164.5 -32t104.5 -86q6 -10 6 -19
q0 -16 -17 -28q-7 -4 -16 -4q-22 0 -34 17q-29 42 -82 64.5t-126 22.5q-185 0 -185 -115q0 -35 19 -58.5t61.5 -42t118.5 -36.5q148 -35 213 -84.5t65 -128.5q0 -88 -70.5 -139t-190.5 -51q-96 0 -176.5 32.5zM278 -287q0 10 16 24q26 23 39.5 41t15.5 38q-8 -2 -13 -2
q-21 0 -36.5 14.5t-15.5 35.5q0 27 17 43t46 16q30 0 47.5 -20t17.5 -56t-21.5 -72t-59.5 -66q-22 -17 -32 -17q-8 0 -14 7q-7 7 -7 14z" />
    <glyph glyph-name="uni1E60" unicode="&#x1e60;" horiz-adv-x="681" 
d="M188.5 22.5q-80.5 32.5 -125.5 89.5q-8 10 -8 21q0 14 15 27q8 6 17 6q18 0 32 -17q41 -45 103.5 -69.5t142.5 -24.5q88 0 136 32.5t48 92.5q0 52 -46.5 84t-157.5 57q-145 32 -208.5 80.5t-63.5 128.5q0 83 70.5 131.5t190.5 48.5q91 0 164.5 -32t104.5 -86q6 -10 6 -19
q0 -16 -17 -28q-7 -4 -16 -4q-22 0 -34 17q-29 42 -82 64.5t-126 22.5q-185 0 -185 -115q0 -35 19 -58.5t61.5 -42t118.5 -36.5q148 -35 213 -84.5t65 -128.5q0 -88 -70.5 -139t-190.5 -51q-96 0 -176.5 32.5zM304 817.5q-16 15.5 -16 35.5q0 21 16 36.5t38 15.5
q21 0 36.5 -15.5t15.5 -36.5q0 -20 -15.5 -35.5t-36.5 -15.5q-22 0 -38 15.5z" />
    <glyph glyph-name="uni1E62" unicode="&#x1e62;" horiz-adv-x="681" 
d="M188.5 22.5q-80.5 32.5 -125.5 89.5q-8 10 -8 21q0 14 15 27q8 6 17 6q18 0 32 -17q41 -45 103.5 -69.5t142.5 -24.5q88 0 136 32.5t48 92.5q0 52 -46.5 84t-157.5 57q-145 32 -208.5 80.5t-63.5 128.5q0 83 70.5 131.5t190.5 48.5q91 0 164.5 -32t104.5 -86q6 -10 6 -19
q0 -16 -17 -28q-7 -4 -16 -4q-22 0 -34 17q-29 42 -82 64.5t-126 22.5q-185 0 -185 -115q0 -35 19 -58.5t61.5 -42t118.5 -36.5q148 -35 213 -84.5t65 -128.5q0 -88 -70.5 -139t-190.5 -51q-96 0 -176.5 32.5zM312.5 -164.5q-15.5 14.5 -15.5 35.5q0 22 15.5 37t38.5 15
q22 0 37 -15t15 -37q0 -21 -15 -35.5t-37 -14.5q-23 0 -38.5 14.5z" />
    <glyph glyph-name="uni1E9E" unicode="&#x1e9e;" horiz-adv-x="639" 
d="M281 6.5q-44 17.5 -67 44.5q-9 12 -9 22q0 14 12 24q10 8 19 8q14 0 30 -14q44 -39 107 -39q143 0 143 133q0 77 -38.5 110t-111.5 33h-52q-41 0 -41 29q0 15 13 22.5t35 7.5l127 138q-1 52 -39.5 82t-103.5 30q-77 0 -119 -41t-42 -117v-451q0 -11 -10.5 -20t-25.5 -9
q-14 0 -25.5 9t-11.5 20v456q0 63 29.5 112t82.5 76.5t122 27.5q64 0 113.5 -23t76.5 -64.5t27 -95.5l-129 -136q94 -5 145.5 -56t51.5 -140q0 -91 -58.5 -143.5t-158.5 -52.5q-48 0 -92 17.5z" />
    <glyph glyph-name="uni018F" unicode="&#x18f;" horiz-adv-x="803" 
d="M216.5 27q-80.5 36 -124 102t-43.5 155q0 46 26 73t72 27h532q0 122 -73.5 192t-201.5 70q-88 0 -149 -19.5t-105 -60.5q-17 -17 -37 -17q-13 0 -21 7q-11 11 -11 22q0 14 12 27q45 49 128 77t183 28q167 0 259 -96t92 -269q0 -110 -42 -189.5t-120.5 -122t-187.5 -42.5
q-108 0 -188.5 36zM606.5 125q72.5 70 72.5 196h-517q-17 0 -27 -10t-10 -28q0 -107 74 -167.5t206 -60.5q129 0 201.5 70z" />
    <glyph glyph-name="T" unicode="T" horiz-adv-x="699" 
d="M321.5 0.5q-9.5 10.5 -9.5 29.5v608h-229q-18 0 -28.5 7.5t-10.5 22.5q0 32 39 32h534q39 0 39 -32q0 -14 -10 -22t-29 -8h-229v-608q0 -19 -10.5 -29.5t-28.5 -10.5t-27.5 10.5z" />
    <glyph glyph-name="Tbar" unicode="&#x166;" horiz-adv-x="699" 
d="M656 668q0 -14 -10 -22t-29 -8h-229v-257h112q38 0 38 -31q0 -29 -38 -29h-112v-291q0 -19 -10.5 -29.5t-28.5 -10.5t-27.5 10.5t-9.5 29.5v291h-105q-38 0 -38 29q0 31 38 31h105v257h-229q-18 0 -28.5 7.5t-10.5 22.5q0 32 39 32h534q39 0 39 -32z" />
    <glyph glyph-name="Tcaron" unicode="&#x164;" horiz-adv-x="699" 
d="M321.5 0.5q-9.5 10.5 -9.5 29.5v608h-229q-18 0 -28.5 7.5t-10.5 22.5q0 32 39 32h534q39 0 39 -32q0 -14 -10 -22t-29 -8h-229v-608q0 -19 -10.5 -29.5t-28.5 -10.5t-27.5 10.5zM318 800l-106 127q-10 13 -10 23q0 13 15 25q8 7 19 7q15 0 31 -20l83 -112l84 112
q14 20 32 20q8 0 17 -6q15 -10 15 -26q0 -13 -10 -24l-105 -126q-14 -17 -33 -17q-18 0 -32 17z" />
    <glyph glyph-name="uni0162" unicode="&#x162;" horiz-adv-x="699" 
d="M656 668q0 -14 -10 -22t-29 -8h-229v-608q0 -19 -11 -30q0 -6 -3 -12l-24 -45q41 1 62.5 -19t21.5 -51q0 -37 -26 -60.5t-73 -23.5q-33 0 -61 14.5t-43 35.5q-6 7 -6 15q0 10 11 20q8 6 15 6q11 0 20 -12q10 -14 26 -22t35 -8q22 0 33 10t11 27q0 36 -36 36q-8 0 -12 -1
q-15 -2 -25.5 5.5t-10.5 20.5q0 6 3 12l24 51l1 3q-8 11 -8 28v608h-229q-18 0 -28.5 7.5t-10.5 22.5q0 32 39 32h534q39 0 39 -32z" />
    <glyph glyph-name="uni021A" unicode="&#x21a;" horiz-adv-x="699" 
d="M321.5 0.5q-9.5 10.5 -9.5 29.5v608h-229q-18 0 -28.5 7.5t-10.5 22.5q0 32 39 32h534q39 0 39 -32q0 -14 -10 -22t-29 -8h-229v-608q0 -19 -10.5 -29.5t-28.5 -10.5t-27.5 10.5zM277 -287q0 10 16 24q26 23 39.5 41t15.5 38q-8 -2 -13 -2q-21 0 -36.5 14.5t-15.5 35.5
q0 27 17 43t46 16q30 0 47.5 -20t17.5 -56t-21.5 -72t-59.5 -66q-22 -17 -32 -17q-8 0 -14 7q-7 7 -7 14z" />
    <glyph glyph-name="uni1E6C" unicode="&#x1e6c;" horiz-adv-x="699" 
d="M321.5 0.5q-9.5 10.5 -9.5 29.5v608h-229q-18 0 -28.5 7.5t-10.5 22.5q0 32 39 32h534q39 0 39 -32q0 -14 -10 -22t-29 -8h-229v-608q0 -19 -10.5 -29.5t-28.5 -10.5t-27.5 10.5zM311.5 -164.5q-15.5 14.5 -15.5 35.5q0 22 15.5 37t38.5 15q22 0 37 -15t15 -37
q0 -21 -15 -35.5t-37 -14.5q-23 0 -38.5 14.5z" />
    <glyph glyph-name="uni1E6E" unicode="&#x1e6e;" horiz-adv-x="699" 
d="M321.5 0.5q-9.5 10.5 -9.5 29.5v608h-229q-18 0 -28.5 7.5t-10.5 22.5q0 32 39 32h534q39 0 39 -32q0 -14 -10 -22t-29 -8h-229v-608q0 -19 -10.5 -29.5t-28.5 -10.5t-27.5 10.5zM192 -114q0 16 9.5 21.5t26.5 5.5h245q18 0 27 -6t9 -21q0 -26 -36 -26h-245q-36 0 -36 26
z" />
    <glyph glyph-name="U" unicode="U" horiz-adv-x="737" 
d="M209.5 25q-65.5 35 -100.5 101t-35 157v387q0 19 10 29.5t27 10.5q18 0 28 -10.5t10 -29.5v-390q0 -108 57 -167t160 -59q104 0 162.5 59.5t58.5 166.5v390q0 19 10.5 29.5t27.5 10.5q18 0 27.5 -10.5t9.5 -29.5v-387q0 -88 -36 -154.5t-103.5 -102.5t-158.5 -36
q-89 0 -154.5 35z" />
    <glyph glyph-name="Uacute" unicode="&#xda;" horiz-adv-x="737" 
d="M209.5 25q-65.5 35 -100.5 101t-35 157v387q0 19 10 29.5t27 10.5q18 0 28 -10.5t10 -29.5v-390q0 -108 57 -167t160 -59q104 0 162.5 59.5t58.5 166.5v390q0 19 10.5 29.5t27.5 10.5q18 0 27.5 -10.5t9.5 -29.5v-387q0 -88 -36 -154.5t-103.5 -102.5t-158.5 -36
q-89 0 -154.5 35zM343 810q0 7 3 13l62 141q12 28 33 28q10 0 19 -5q20 -10 20 -27q0 -9 -6 -20l-78 -138q-9 -17 -26 -17q-6 0 -12 3q-15 7 -15 22z" />
    <glyph glyph-name="Ubreve" unicode="&#x16c;" horiz-adv-x="737" 
d="M209.5 25q-65.5 35 -100.5 101t-35 157v387q0 19 10 29.5t27 10.5q18 0 28 -10.5t10 -29.5v-390q0 -108 57 -167t160 -59q104 0 162.5 59.5t58.5 166.5v390q0 19 10.5 29.5t27.5 10.5q18 0 27.5 -10.5t9.5 -29.5v-387q0 -88 -36 -154.5t-103.5 -102.5t-158.5 -36
q-89 0 -154.5 35zM252 827q-42 42 -42 105q0 39 35 39q33 0 33 -39q0 -42 22 -67t65 -25t64.5 25t21.5 67q0 39 34 39t34 -39q0 -63 -41.5 -105t-112.5 -42t-113 42z" />
    <glyph glyph-name="uni01D3" unicode="&#x1d3;" horiz-adv-x="737" 
d="M209.5 25q-65.5 35 -100.5 101t-35 157v387q0 19 10 29.5t27 10.5q18 0 28 -10.5t10 -29.5v-390q0 -108 57 -167t160 -59q104 0 162.5 59.5t58.5 166.5v390q0 19 10.5 29.5t27.5 10.5q18 0 27.5 -10.5t9.5 -29.5v-387q0 -88 -36 -154.5t-103.5 -102.5t-158.5 -36
q-89 0 -154.5 35zM336 800l-106 127q-10 13 -10 23q0 13 15 25q8 7 19 7q15 0 31 -20l83 -112l84 112q14 20 32 20q8 0 17 -6q15 -10 15 -26q0 -13 -10 -24l-105 -126q-14 -17 -33 -17q-18 0 -32 17z" />
    <glyph glyph-name="Ucircumflex" unicode="&#xdb;" horiz-adv-x="737" 
d="M209.5 25q-65.5 35 -100.5 101t-35 157v387q0 19 10 29.5t27 10.5q18 0 28 -10.5t10 -29.5v-390q0 -108 57 -167t160 -59q104 0 162.5 59.5t58.5 166.5v390q0 19 10.5 29.5t27.5 10.5q18 0 27.5 -10.5t9.5 -29.5v-387q0 -88 -36 -154.5t-103.5 -102.5t-158.5 -36
q-89 0 -154.5 35zM220 816q0 10 10 23l106 126q14 17 32 17q19 0 33 -17l105 -126q10 -13 10 -23q0 -14 -14 -25q-10 -7 -20 -7q-15 0 -30 19l-84 112l-83 -112q-15 -20 -32 -20q-8 0 -18 7q-15 12 -15 26z" />
    <glyph glyph-name="Udieresis" unicode="&#xdc;" horiz-adv-x="737" 
d="M209.5 25q-65.5 35 -100.5 101t-35 157v387q0 19 10 29.5t27 10.5q18 0 28 -10.5t10 -29.5v-390q0 -108 57 -167t160 -59q104 0 162.5 59.5t58.5 166.5v390q0 19 10.5 29.5t27.5 10.5q18 0 27.5 -10.5t9.5 -29.5v-387q0 -88 -36 -154.5t-103.5 -102.5t-158.5 -36
q-89 0 -154.5 35zM229 819.5q-15 14.5 -15 34.5q0 21 15 35.5t36 14.5q20 0 34.5 -15t14.5 -35t-14.5 -34.5t-34.5 -14.5q-21 0 -36 14.5zM436 819.5q-15 14.5 -15 34.5t15 35t36 15q20 0 35 -15t15 -35t-15 -34.5t-35 -14.5q-21 0 -36 14.5z" />
    <glyph glyph-name="uni01D7" unicode="&#x1d7;" horiz-adv-x="737" 
d="M209.5 25q-65.5 35 -100.5 101t-35 157v387q0 19 10 29.5t27 10.5q18 0 28 -10.5t10 -29.5v-390q0 -108 57 -167t160 -59q104 0 162.5 59.5t58.5 166.5v390q0 19 10.5 29.5t27.5 10.5q18 0 27.5 -10.5t9.5 -29.5v-387q0 -88 -36 -154.5t-103.5 -102.5t-158.5 -36
q-89 0 -154.5 35zM347 931q0 8 3 15l48 119q11 28 34 28q6 0 18 -5q19 -9 19 -27q0 -9 -6 -20l-65 -116q-9 -17 -26 -17q-6 0 -12 3q-13 5 -13 20zM227 819.5q-15 14.5 -15 34.5q0 21 15 35.5t36 14.5q20 0 34.5 -15t14.5 -35t-14.5 -34.5t-34.5 -14.5q-21 0 -36 14.5z
M434 819.5q-15 14.5 -15 34.5t15 35t36 15q20 0 35 -15t15 -35t-15 -34.5t-35 -14.5q-21 0 -36 14.5z" />
    <glyph glyph-name="uni01D9" unicode="&#x1d9;" horiz-adv-x="737" 
d="M209.5 25q-65.5 35 -100.5 101t-35 157v387q0 19 10 29.5t27 10.5q18 0 28 -10.5t10 -29.5v-390q0 -108 57 -167t160 -59q104 0 162.5 59.5t58.5 166.5v390q0 19 10.5 29.5t27.5 10.5q18 0 27.5 -10.5t9.5 -29.5v-387q0 -88 -36 -154.5t-103.5 -102.5t-158.5 -36
q-89 0 -154.5 35zM339 929l-103 110q-9 11 -9 21q0 13 14 24q8 7 17 7q13 0 29 -19l81 -96l81 96q16 19 30 19q9 0 19 -7q12 -9 12 -23q0 -11 -9 -22l-102 -109q-13 -17 -31 -17q-14 0 -29 16zM230.5 819.5q-14.5 14.5 -14.5 34.5t14.5 35t35.5 15t35.5 -15t14.5 -35
t-14.5 -34.5t-35.5 -14.5t-35.5 14.5zM438 819.5q-15 14.5 -15 34.5t15 35t35 15q21 0 36 -15t15 -35t-15 -34.5t-36 -14.5q-20 0 -35 14.5z" />
    <glyph glyph-name="uni01DB" unicode="&#x1db;" horiz-adv-x="737" 
d="M209.5 25q-65.5 35 -100.5 101t-35 157v387q0 19 10 29.5t27 10.5q18 0 28 -10.5t10 -29.5v-390q0 -108 57 -167t160 -59q104 0 162.5 59.5t58.5 166.5v390q0 19 10.5 29.5t27.5 10.5q18 0 27.5 -10.5t9.5 -29.5v-387q0 -88 -36 -154.5t-103.5 -102.5t-158.5 -36
q-89 0 -154.5 35zM361 908q-16 0 -25 17l-65 116q-6 11 -6 20q0 18 20 27q10 5 18 5q21 0 32 -28l49 -119q3 -9 3 -15q0 -13 -13 -20q-6 -3 -13 -3zM228.5 819.5q-14.5 14.5 -14.5 34.5t14.5 35t35.5 15t35.5 -15t14.5 -35t-14.5 -34.5t-35.5 -14.5t-35.5 14.5zM436 819.5
q-15 14.5 -15 34.5t15 35t35 15q21 0 36 -15t15 -35t-15 -34.5t-36 -14.5q-20 0 -35 14.5z" />
    <glyph glyph-name="uni01D5" unicode="&#x1d5;" horiz-adv-x="737" 
d="M209.5 25q-65.5 35 -100.5 101t-35 157v387q0 19 10 29.5t27 10.5q18 0 28 -10.5t10 -29.5v-390q0 -108 57 -167t160 -59q104 0 162.5 59.5t58.5 166.5v390q0 19 10.5 29.5t27.5 10.5q18 0 27.5 -10.5t9.5 -29.5v-387q0 -88 -36 -154.5t-103.5 -102.5t-158.5 -36
q-89 0 -154.5 35zM229 819.5q-15 14.5 -15 34.5q0 21 15 35.5t36 14.5q20 0 34.5 -15t14.5 -35t-14.5 -34.5t-34.5 -14.5q-21 0 -36 14.5zM436 819.5q-15 14.5 -15 34.5t15 35t36 15q20 0 35 -15t15 -35t-15 -34.5t-35 -14.5q-21 0 -36 14.5zM206 999q0 16 9.5 21.5
t26.5 5.5h245q18 0 27 -6t9 -21q0 -26 -36 -26h-245q-36 0 -36 26z" />
    <glyph glyph-name="uni1EE4" unicode="&#x1ee4;" horiz-adv-x="737" 
d="M209.5 25q-65.5 35 -100.5 101t-35 157v387q0 19 10 29.5t27 10.5q18 0 28 -10.5t10 -29.5v-390q0 -108 57 -167t160 -59q104 0 162.5 59.5t58.5 166.5v390q0 19 10.5 29.5t27.5 10.5q18 0 27.5 -10.5t9.5 -29.5v-387q0 -88 -36 -154.5t-103.5 -102.5t-158.5 -36
q-89 0 -154.5 35zM329.5 -164.5q-15.5 14.5 -15.5 35.5q0 22 15.5 37t38.5 15q22 0 37 -15t15 -37q0 -21 -15 -35.5t-37 -14.5q-23 0 -38.5 14.5z" />
    <glyph glyph-name="Ugrave" unicode="&#xd9;" horiz-adv-x="737" 
d="M209.5 25q-65.5 35 -100.5 101t-35 157v387q0 19 10 29.5t27 10.5q18 0 28 -10.5t10 -29.5v-390q0 -108 57 -167t160 -59q104 0 162.5 59.5t58.5 166.5v390q0 19 10.5 29.5t27.5 10.5q18 0 27.5 -10.5t9.5 -29.5v-387q0 -88 -36 -154.5t-103.5 -102.5t-158.5 -36
q-89 0 -154.5 35zM373 785q-17 0 -26 17l-78 138q-6 11 -6 20q0 17 20 27q9 5 19 5q21 0 33 -28l62 -141q3 -7 3 -14q0 -14 -15 -21q-6 -3 -12 -3z" />
    <glyph glyph-name="uni1EE6" unicode="&#x1ee6;" horiz-adv-x="737" 
d="M209.5 25q-65.5 35 -100.5 101t-35 157v387q0 19 10 29.5t27 10.5q18 0 28 -10.5t10 -29.5v-390q0 -108 57 -167t160 -59q104 0 162.5 59.5t58.5 166.5v390q0 19 10.5 29.5t27.5 10.5q18 0 27.5 -10.5t9.5 -29.5v-387q0 -88 -36 -154.5t-103.5 -102.5t-158.5 -36
q-89 0 -154.5 35zM336 786v8q0 17 10 29.5t29 27.5q17 14 24 21.5t7 18.5q0 15 -9.5 23.5t-28.5 8.5q-34 0 -54 -26q-10 -13 -23 -13q-6 0 -13 3q-15 9 -15 21q0 6 5 14q14 22 42 37.5t64 15.5q48 0 73 -22.5t25 -56.5q0 -21 -10.5 -34.5t-30.5 -28.5q-16 -13 -22.5 -20.5
t-6.5 -18.5v-8q0 -28 -34 -28q-32 0 -32 28z" />
    <glyph glyph-name="Uhorn" unicode="&#x1af;" horiz-adv-x="771" 
d="M802.5 769q8.5 -10 8.5 -28q0 -61 -38 -100.5t-101 -43.5l-10 -1v-313q0 -88 -36 -154.5t-103.5 -102.5t-158.5 -36q-89 0 -154.5 35t-100.5 101t-35 157v387q0 19 10 29.5t27 10.5q18 0 28 -10.5t10 -29.5v-390q0 -108 57 -167t160 -59q104 0 162.5 59.5t58.5 166.5v390
q0 19 10.5 29.5t27.5 10.5q18 0 27.5 -10.5t9.5 -29.5v-18l10 1q73 9 73 88q0 38 32 38q17 0 25.5 -10z" />
    <glyph glyph-name="uni1EE8" unicode="&#x1ee8;" horiz-adv-x="771" 
d="M802.5 769q8.5 -10 8.5 -28q0 -61 -38 -100.5t-101 -43.5l-10 -1v-313q0 -88 -36 -154.5t-103.5 -102.5t-158.5 -36q-89 0 -154.5 35t-100.5 101t-35 157v387q0 19 10 29.5t27 10.5q18 0 28 -10.5t10 -29.5v-390q0 -108 57 -167t160 -59q104 0 162.5 59.5t58.5 166.5v390
q0 19 10.5 29.5t27.5 10.5q18 0 27.5 -10.5t9.5 -29.5v-18l10 1q73 9 73 88q0 38 32 38q17 0 25.5 -10zM343 810q0 7 3 13l62 141q12 28 33 28q10 0 19 -5q20 -10 20 -27q0 -9 -6 -20l-78 -138q-9 -17 -26 -17q-6 0 -12 3q-15 7 -15 22z" />
    <glyph glyph-name="uni1EF0" unicode="&#x1ef0;" horiz-adv-x="771" 
d="M802.5 769q8.5 -10 8.5 -28q0 -61 -38 -100.5t-101 -43.5l-10 -1v-313q0 -88 -36 -154.5t-103.5 -102.5t-158.5 -36q-89 0 -154.5 35t-100.5 101t-35 157v387q0 19 10 29.5t27 10.5q18 0 28 -10.5t10 -29.5v-390q0 -108 57 -167t160 -59q104 0 162.5 59.5t58.5 166.5v390
q0 19 10.5 29.5t27.5 10.5q18 0 27.5 -10.5t9.5 -29.5v-18l10 1q73 9 73 88q0 38 32 38q17 0 25.5 -10zM329.5 -164.5q-15.5 14.5 -15.5 35.5q0 22 15.5 37t38.5 15q22 0 37 -15t15 -37q0 -21 -15 -35.5t-37 -14.5q-23 0 -38.5 14.5z" />
    <glyph glyph-name="uni1EEA" unicode="&#x1eea;" horiz-adv-x="771" 
d="M802.5 769q8.5 -10 8.5 -28q0 -61 -38 -100.5t-101 -43.5l-10 -1v-313q0 -88 -36 -154.5t-103.5 -102.5t-158.5 -36q-89 0 -154.5 35t-100.5 101t-35 157v387q0 19 10 29.5t27 10.5q18 0 28 -10.5t10 -29.5v-390q0 -108 57 -167t160 -59q104 0 162.5 59.5t58.5 166.5v390
q0 19 10.5 29.5t27.5 10.5q18 0 27.5 -10.5t9.5 -29.5v-18l10 1q73 9 73 88q0 38 32 38q17 0 25.5 -10zM368 785q-17 0 -26 17l-78 138q-6 11 -6 20q0 17 20 27q9 5 19 5q21 0 33 -28l62 -141q3 -7 3 -14q0 -14 -15 -21q-6 -3 -12 -3z" />
    <glyph glyph-name="uni1EEC" unicode="&#x1eec;" horiz-adv-x="771" 
d="M802.5 769q8.5 -10 8.5 -28q0 -61 -38 -100.5t-101 -43.5l-10 -1v-313q0 -88 -36 -154.5t-103.5 -102.5t-158.5 -36q-89 0 -154.5 35t-100.5 101t-35 157v387q0 19 10 29.5t27 10.5q18 0 28 -10.5t10 -29.5v-390q0 -108 57 -167t160 -59q104 0 162.5 59.5t58.5 166.5v390
q0 19 10.5 29.5t27.5 10.5q18 0 27.5 -10.5t9.5 -29.5v-18l10 1q73 9 73 88q0 38 32 38q17 0 25.5 -10zM336 786v8q0 17 10 29.5t29 27.5q17 14 24 21.5t7 18.5q0 15 -9.5 23.5t-28.5 8.5q-34 0 -54 -26q-10 -13 -23 -13q-6 0 -13 3q-15 9 -15 21q0 6 5 14q14 22 42 37.5
t64 15.5q48 0 73 -22.5t25 -56.5q0 -21 -10.5 -34.5t-30.5 -28.5q-16 -13 -22.5 -20.5t-6.5 -18.5v-8q0 -28 -34 -28q-32 0 -32 28z" />
    <glyph glyph-name="uni1EEE" unicode="&#x1eee;" horiz-adv-x="771" 
d="M802.5 769q8.5 -10 8.5 -28q0 -61 -38 -100.5t-101 -43.5l-10 -1v-313q0 -88 -36 -154.5t-103.5 -102.5t-158.5 -36q-89 0 -154.5 35t-100.5 101t-35 157v387q0 19 10 29.5t27 10.5q18 0 28 -10.5t10 -29.5v-390q0 -108 57 -167t160 -59q104 0 162.5 59.5t58.5 166.5v390
q0 19 10.5 29.5t27.5 10.5q18 0 27.5 -10.5t9.5 -29.5v-18l10 1q73 9 73 88q0 38 32 38q17 0 25.5 -10zM201 831q0 9 2 15q9 34 33.5 56t60.5 22q24 0 42.5 -8.5t43.5 -24.5q17 -12 28.5 -18t24.5 -6q34 0 46 42q7 21 25 21q14 0 21.5 -6.5t7.5 -18.5l-2 -12
q-10 -36 -35 -57.5t-60 -21.5q-23 0 -39.5 8t-39.5 23q-19 13 -32 19.5t-28 6.5q-32 0 -45 -41q-8 -22 -25 -22q-29 0 -29 23z" />
    <glyph glyph-name="Uhungarumlaut" unicode="&#x170;" horiz-adv-x="737" 
d="M209.5 25q-65.5 35 -100.5 101t-35 157v387q0 19 10 29.5t27 10.5q18 0 28 -10.5t10 -29.5v-390q0 -108 57 -167t160 -59q104 0 162.5 59.5t58.5 166.5v390q0 19 10.5 29.5t27.5 10.5q18 0 27.5 -10.5t9.5 -29.5v-387q0 -88 -36 -154.5t-103.5 -102.5t-158.5 -36
q-89 0 -154.5 35zM429.5 791q-3.5 6 -3.5 13q0 10 6 19l87 144q14 25 34 25q10 0 19 -5q22 -10 22 -28q0 -10 -8 -21l-104 -142q-12 -17 -29 -17q-6 0 -13 3t-10.5 9zM257 804q0 12 5 19l83 145q14 24 34 24q7 0 19 -5q21 -10 21 -28q0 -9 -7 -20l-100 -143q-11 -17 -28 -17
q-7 0 -14 3q-13 6 -13 22z" />
    <glyph glyph-name="Umacron" unicode="&#x16a;" horiz-adv-x="737" 
d="M209.5 25q-65.5 35 -100.5 101t-35 157v387q0 19 10 29.5t27 10.5q18 0 28 -10.5t10 -29.5v-390q0 -108 57 -167t160 -59q104 0 162.5 59.5t58.5 166.5v390q0 19 10.5 29.5t27.5 10.5q18 0 27.5 -10.5t9.5 -29.5v-387q0 -88 -36 -154.5t-103.5 -102.5t-158.5 -36
q-89 0 -154.5 35zM209 814q0 16 9.5 21.5t26.5 5.5h245q18 0 27 -6t9 -21q0 -26 -36 -26h-245q-36 0 -36 26z" />
    <glyph glyph-name="Uogonek" unicode="&#x172;" horiz-adv-x="737" 
d="M652.5 699.5q9.5 -10.5 9.5 -29.5v-387q0 -122 -67.5 -199.5t-185.5 -91.5q-42 -34 -59 -55.5t-17 -51.5q0 -18 13.5 -29.5t36.5 -11.5q31 0 53 20q8 8 18 8q9 0 16 -7q8 -8 8 -17q0 -10 -10 -20q-19 -19 -40 -27.5t-49 -8.5q-49 0 -78.5 24.5t-29.5 64.5q0 30 14.5 56.5
t42.5 54.5q-119 10 -186.5 87t-67.5 204v387q0 19 10 29.5t27 10.5q18 0 28 -10.5t10 -29.5v-390q0 -108 57 -167t160 -59q104 0 162.5 59.5t58.5 166.5v390q0 19 10.5 29.5t27.5 10.5q18 0 27.5 -10.5z" />
    <glyph glyph-name="Uring" unicode="&#x16e;" horiz-adv-x="737" 
d="M209.5 25q-65.5 35 -100.5 101t-35 157v387q0 19 10 29.5t27 10.5q18 0 28 -10.5t10 -29.5v-390q0 -108 57 -167t160 -59q104 0 162.5 59.5t58.5 166.5v390q0 19 10.5 29.5t27.5 10.5q18 0 27.5 -10.5t9.5 -29.5v-387q0 -88 -36 -154.5t-103.5 -102.5t-158.5 -36
q-89 0 -154.5 35zM286.5 784.5q-31.5 29.5 -31.5 73.5t31.5 73t82.5 29t82 -29t31 -73t-31 -73.5t-82 -29.5t-82.5 29.5zM413.5 816.5q16.5 15.5 16.5 41.5t-16.5 41.5t-44.5 15.5t-44 -15.5t-16 -41.5t16 -41.5t44 -15.5t44.5 15.5z" />
    <glyph glyph-name="Utilde" unicode="&#x168;" horiz-adv-x="737" 
d="M209.5 25q-65.5 35 -100.5 101t-35 157v387q0 19 10 29.5t27 10.5q18 0 28 -10.5t10 -29.5v-390q0 -108 57 -167t160 -59q104 0 162.5 59.5t58.5 166.5v390q0 19 10.5 29.5t27.5 10.5q18 0 27.5 -10.5t9.5 -29.5v-387q0 -88 -36 -154.5t-103.5 -102.5t-158.5 -36
q-89 0 -154.5 35zM200 828q0 9 2 15q9 34 33.5 56t60.5 22q24 0 42.5 -8.5t43.5 -24.5q17 -12 28.5 -18t24.5 -6q34 0 46 42q7 21 25 21q14 0 21.5 -6.5t7.5 -18.5l-2 -12q-10 -36 -35 -57.5t-60 -21.5q-23 0 -39.5 8t-39.5 23q-19 13 -32 19.5t-28 6.5q-32 0 -45 -41
q-8 -22 -25 -22q-29 0 -29 23z" />
    <glyph glyph-name="V" unicode="V" horiz-adv-x="733" 
d="M270 37.5q-36 47.5 -68 153.5l-143 474q-3 11 -3 18q0 27 35 27q18 0 27 -7.5t15 -28.5l142 -476q24 -80 44.5 -112.5t47.5 -32.5q26 0 47 33t45 112l142 477q6 20 15 27.5t27 7.5q35 0 35 -27q0 -7 -3 -18l-144 -474q-34 -111 -70.5 -156t-93.5 -45q-61 0 -97 47.5z" />
    <glyph glyph-name="W" unicode="W" horiz-adv-x="947" 
d="M202 18q-26 28 -37 87l-109 561q-2 10 -2 14q0 30 34 30q21 0 30 -9t12 -27l106 -571q5 -28 13 -38.5t23 -10.5q16 0 24 11.5t12 36.5l79 515q7 46 29.5 69.5t57.5 23.5q72 0 86 -93l79 -515q4 -26 12 -37t24 -11q14 0 22.5 11t13.5 38l106 571q3 19 12.5 27.5t29.5 8.5
q34 0 34 -30q0 -4 -2 -14l-109 -561q-11 -56 -35.5 -85.5t-70.5 -29.5q-43 0 -67.5 28t-33.5 86l-78 505q-3 20 -8.5 28.5t-14.5 8.5q-10 0 -15.5 -8.5t-8.5 -28.5l-78 -505q-9 -58 -33.5 -86t-67.5 -28t-69 28z" />
    <glyph glyph-name="Wacute" unicode="&#x1e82;" horiz-adv-x="947" 
d="M202 18q-26 28 -37 87l-109 561q-2 10 -2 14q0 30 34 30q21 0 30 -9t12 -27l106 -571q5 -28 13 -38.5t23 -10.5q16 0 24 11.5t12 36.5l79 515q7 46 29.5 69.5t57.5 23.5q72 0 86 -93l79 -515q4 -26 12 -37t24 -11q14 0 22.5 11t13.5 38l106 571q3 19 12.5 27.5t29.5 8.5
q34 0 34 -30q0 -4 -2 -14l-109 -561q-11 -56 -35.5 -85.5t-70.5 -29.5q-43 0 -67.5 28t-33.5 86l-78 505q-3 20 -8.5 28.5t-14.5 8.5q-10 0 -15.5 -8.5t-8.5 -28.5l-78 -505q-9 -58 -33.5 -86t-67.5 -28t-69 28zM449 810q0 7 3 13l62 141q12 28 33 28q10 0 19 -5
q20 -10 20 -27q0 -9 -6 -20l-78 -138q-9 -17 -26 -17q-6 0 -12 3q-15 7 -15 22z" />
    <glyph glyph-name="Wcircumflex" unicode="&#x174;" horiz-adv-x="947" 
d="M202 18q-26 28 -37 87l-109 561q-2 10 -2 14q0 30 34 30q21 0 30 -9t12 -27l106 -571q5 -28 13 -38.5t23 -10.5q16 0 24 11.5t12 36.5l79 515q7 46 29.5 69.5t57.5 23.5q72 0 86 -93l79 -515q4 -26 12 -37t24 -11q14 0 22.5 11t13.5 38l106 571q3 19 12.5 27.5t29.5 8.5
q34 0 34 -30q0 -4 -2 -14l-109 -561q-11 -56 -35.5 -85.5t-70.5 -29.5q-43 0 -67.5 28t-33.5 86l-78 505q-3 20 -8.5 28.5t-14.5 8.5q-10 0 -15.5 -8.5t-8.5 -28.5l-78 -505q-9 -58 -33.5 -86t-67.5 -28t-69 28zM326 816q0 10 10 23l106 126q14 17 32 17q19 0 33 -17
l105 -126q10 -13 10 -23q0 -14 -14 -25q-10 -7 -20 -7q-15 0 -30 19l-84 112l-83 -112q-15 -20 -32 -20q-8 0 -18 7q-15 12 -15 26z" />
    <glyph glyph-name="Wdieresis" unicode="&#x1e84;" horiz-adv-x="947" 
d="M202 18q-26 28 -37 87l-109 561q-2 10 -2 14q0 30 34 30q21 0 30 -9t12 -27l106 -571q5 -28 13 -38.5t23 -10.5q16 0 24 11.5t12 36.5l79 515q7 46 29.5 69.5t57.5 23.5q72 0 86 -93l79 -515q4 -26 12 -37t24 -11q14 0 22.5 11t13.5 38l106 571q3 19 12.5 27.5t29.5 8.5
q34 0 34 -30q0 -4 -2 -14l-109 -561q-11 -56 -35.5 -85.5t-70.5 -29.5q-43 0 -67.5 28t-33.5 86l-78 505q-3 20 -8.5 28.5t-14.5 8.5q-10 0 -15.5 -8.5t-8.5 -28.5l-78 -505q-9 -58 -33.5 -86t-67.5 -28t-69 28zM335 819.5q-15 14.5 -15 34.5q0 21 15 35.5t36 14.5
q20 0 34.5 -15t14.5 -35t-14.5 -34.5t-34.5 -14.5q-21 0 -36 14.5zM542 819.5q-15 14.5 -15 34.5t15 35t36 15q20 0 35 -15t15 -35t-15 -34.5t-35 -14.5q-21 0 -36 14.5z" />
    <glyph glyph-name="Wgrave" unicode="&#x1e80;" horiz-adv-x="947" 
d="M202 18q-26 28 -37 87l-109 561q-2 10 -2 14q0 30 34 30q21 0 30 -9t12 -27l106 -571q5 -28 13 -38.5t23 -10.5q16 0 24 11.5t12 36.5l79 515q7 46 29.5 69.5t57.5 23.5q72 0 86 -93l79 -515q4 -26 12 -37t24 -11q14 0 22.5 11t13.5 38l106 571q3 19 12.5 27.5t29.5 8.5
q34 0 34 -30q0 -4 -2 -14l-109 -561q-11 -56 -35.5 -85.5t-70.5 -29.5q-43 0 -67.5 28t-33.5 86l-78 505q-3 20 -8.5 28.5t-14.5 8.5q-10 0 -15.5 -8.5t-8.5 -28.5l-78 -505q-9 -58 -33.5 -86t-67.5 -28t-69 28zM479 785q-17 0 -26 17l-78 138q-6 11 -6 20q0 17 20 27
q9 5 19 5q21 0 33 -28l62 -141q3 -7 3 -14q0 -14 -15 -21q-6 -3 -12 -3z" />
    <glyph glyph-name="X" unicode="X" horiz-adv-x="712" 
d="M658 22q0 -17 -15 -26q-10 -6 -19 -6q-17 0 -32 20l-236 295l-237 -295q-15 -20 -32 -20q-15 0 -24 9.5t-9 22.5q0 14 9 24l250 312l-236 295q-8 11 -8 24q0 19 14 27q9 6 18 6q15 0 31 -20l224 -279l223 279q15 20 32 20q8 0 17 -6q15 -9 15 -27q0 -15 -8 -24l-237 -295
l251 -312q9 -10 9 -24z" />
    <glyph glyph-name="Y" unicode="Y" horiz-adv-x="696" 
d="M630 699.5q10 -10.5 10 -29.5v-125q0 -85 -31.5 -153.5t-89.5 -110.5t-133 -51v-200q0 -19 -10 -29.5t-28 -10.5q-17 0 -27 10.5t-10 29.5v200q-78 8 -135.5 49t-88.5 109t-31 157v125q0 19 10 29.5t27 10.5q18 0 28 -10.5t10 -29.5v-128q0 -118 57.5 -184t159.5 -66
q101 0 159 66.5t58 183.5v128q0 19 10.5 29.5t27.5 10.5t27 -10.5z" />
    <glyph glyph-name="Yacute" unicode="&#xdd;" horiz-adv-x="696" 
d="M630 699.5q10 -10.5 10 -29.5v-125q0 -85 -31.5 -153.5t-89.5 -110.5t-133 -51v-200q0 -19 -10 -29.5t-28 -10.5q-17 0 -27 10.5t-10 29.5v200q-78 8 -135.5 49t-88.5 109t-31 157v125q0 19 10 29.5t27 10.5q18 0 28 -10.5t10 -29.5v-128q0 -118 57.5 -184t159.5 -66
q101 0 159 66.5t58 183.5v128q0 19 10.5 29.5t27.5 10.5t27 -10.5zM323 810q0 7 3 13l62 141q12 28 33 28q10 0 19 -5q20 -10 20 -27q0 -9 -6 -20l-78 -138q-9 -17 -26 -17q-6 0 -12 3q-15 7 -15 22z" />
    <glyph glyph-name="Ycircumflex" unicode="&#x176;" horiz-adv-x="696" 
d="M630 699.5q10 -10.5 10 -29.5v-125q0 -85 -31.5 -153.5t-89.5 -110.5t-133 -51v-200q0 -19 -10 -29.5t-28 -10.5q-17 0 -27 10.5t-10 29.5v200q-78 8 -135.5 49t-88.5 109t-31 157v125q0 19 10 29.5t27 10.5q18 0 28 -10.5t10 -29.5v-128q0 -118 57.5 -184t159.5 -66
q101 0 159 66.5t58 183.5v128q0 19 10.5 29.5t27.5 10.5t27 -10.5zM200 816q0 10 10 23l106 126q14 17 32 17q19 0 33 -17l105 -126q10 -13 10 -23q0 -14 -14 -25q-10 -7 -20 -7q-15 0 -30 19l-84 112l-83 -112q-15 -20 -32 -20q-8 0 -18 7q-15 12 -15 26z" />
    <glyph glyph-name="Ydieresis" unicode="&#x178;" horiz-adv-x="696" 
d="M630 699.5q10 -10.5 10 -29.5v-125q0 -85 -31.5 -153.5t-89.5 -110.5t-133 -51v-200q0 -19 -10 -29.5t-28 -10.5q-17 0 -27 10.5t-10 29.5v200q-78 8 -135.5 49t-88.5 109t-31 157v125q0 19 10 29.5t27 10.5q18 0 28 -10.5t10 -29.5v-128q0 -118 57.5 -184t159.5 -66
q101 0 159 66.5t58 183.5v128q0 19 10.5 29.5t27.5 10.5t27 -10.5zM209 819.5q-15 14.5 -15 34.5q0 21 15 35.5t36 14.5q20 0 34.5 -15t14.5 -35t-14.5 -34.5t-34.5 -14.5q-21 0 -36 14.5zM416 819.5q-15 14.5 -15 34.5t15 35t36 15q20 0 35 -15t15 -35t-15 -34.5t-35 -14.5
q-21 0 -36 14.5z" />
    <glyph glyph-name="uni1E8E" unicode="&#x1e8e;" horiz-adv-x="696" 
d="M630 699.5q10 -10.5 10 -29.5v-125q0 -85 -31.5 -153.5t-89.5 -110.5t-133 -51v-200q0 -19 -10 -29.5t-28 -10.5q-17 0 -27 10.5t-10 29.5v200q-78 8 -135.5 49t-88.5 109t-31 157v125q0 19 10 29.5t27 10.5q18 0 28 -10.5t10 -29.5v-128q0 -118 57.5 -184t159.5 -66
q101 0 159 66.5t58 183.5v128q0 19 10.5 29.5t27.5 10.5t27 -10.5zM310 817.5q-16 15.5 -16 35.5q0 21 16 36.5t38 15.5q21 0 36.5 -15.5t15.5 -36.5q0 -20 -15.5 -35.5t-36.5 -15.5q-22 0 -38 15.5z" />
    <glyph glyph-name="uni1EF4" unicode="&#x1ef4;" horiz-adv-x="696" 
d="M630 699.5q10 -10.5 10 -29.5v-125q0 -85 -31.5 -153.5t-89.5 -110.5t-133 -51v-200q0 -19 -10 -29.5t-28 -10.5q-17 0 -27 10.5t-10 29.5v200q-78 8 -135.5 49t-88.5 109t-31 157v125q0 19 10 29.5t27 10.5q18 0 28 -10.5t10 -29.5v-128q0 -118 57.5 -184t159.5 -66
q101 0 159 66.5t58 183.5v128q0 19 10.5 29.5t27.5 10.5t27 -10.5zM309.5 -164.5q-15.5 14.5 -15.5 35.5q0 22 15.5 37t38.5 15q22 0 37 -15t15 -37q0 -21 -15 -35.5t-37 -14.5q-23 0 -38.5 14.5z" />
    <glyph glyph-name="Ygrave" unicode="&#x1ef2;" horiz-adv-x="696" 
d="M630 699.5q10 -10.5 10 -29.5v-125q0 -85 -31.5 -153.5t-89.5 -110.5t-133 -51v-200q0 -19 -10 -29.5t-28 -10.5q-17 0 -27 10.5t-10 29.5v200q-78 8 -135.5 49t-88.5 109t-31 157v125q0 19 10 29.5t27 10.5q18 0 28 -10.5t10 -29.5v-128q0 -118 57.5 -184t159.5 -66
q101 0 159 66.5t58 183.5v128q0 19 10.5 29.5t27.5 10.5t27 -10.5zM353 785q-17 0 -26 17l-78 138q-6 11 -6 20q0 17 20 27q9 5 19 5q21 0 33 -28l62 -141q3 -7 3 -14q0 -14 -15 -21q-6 -3 -12 -3z" />
    <glyph glyph-name="uni1EF6" unicode="&#x1ef6;" horiz-adv-x="696" 
d="M630 699.5q10 -10.5 10 -29.5v-125q0 -85 -31.5 -153.5t-89.5 -110.5t-133 -51v-200q0 -19 -10 -29.5t-28 -10.5q-17 0 -27 10.5t-10 29.5v200q-78 8 -135.5 49t-88.5 109t-31 157v125q0 19 10 29.5t27 10.5q18 0 28 -10.5t10 -29.5v-128q0 -118 57.5 -184t159.5 -66
q101 0 159 66.5t58 183.5v128q0 19 10.5 29.5t27.5 10.5t27 -10.5zM316 786v8q0 17 10 29.5t29 27.5q17 14 24 21.5t7 18.5q0 15 -9.5 23.5t-28.5 8.5q-34 0 -54 -26q-10 -13 -23 -13q-6 0 -13 3q-15 9 -15 21q0 6 5 14q14 22 42 37.5t64 15.5q48 0 73 -22.5t25 -56.5
q0 -21 -10.5 -34.5t-30.5 -28.5q-16 -13 -22.5 -20.5t-6.5 -18.5v-8q0 -28 -34 -28q-32 0 -32 28z" />
    <glyph glyph-name="uni1EF8" unicode="&#x1ef8;" horiz-adv-x="696" 
d="M630 699.5q10 -10.5 10 -29.5v-125q0 -85 -31.5 -153.5t-89.5 -110.5t-133 -51v-200q0 -19 -10 -29.5t-28 -10.5q-17 0 -27 10.5t-10 29.5v200q-78 8 -135.5 49t-88.5 109t-31 157v125q0 19 10 29.5t27 10.5q18 0 28 -10.5t10 -29.5v-128q0 -118 57.5 -184t159.5 -66
q101 0 159 66.5t58 183.5v128q0 19 10.5 29.5t27.5 10.5t27 -10.5zM180 828q0 9 2 15q9 34 33.5 56t60.5 22q24 0 42.5 -8.5t43.5 -24.5q17 -12 28.5 -18t24.5 -6q34 0 46 42q7 21 25 21q14 0 21.5 -6.5t7.5 -18.5l-2 -12q-10 -36 -35 -57.5t-60 -21.5q-23 0 -39.5 8
t-39.5 23q-19 13 -32 19.5t-28 6.5q-32 0 -45 -41q-8 -22 -25 -22q-29 0 -29 23z" />
    <glyph glyph-name="Z" unicode="Z" horiz-adv-x="703" 
d="M83 23.5q-29 23.5 -29 69.5q0 36 13.5 60t49.5 53l413 336q20 16 27.5 29.5t7.5 32.5q0 34 -42 34h-408q-19 0 -30.5 7.5t-11.5 22.5q0 32 42 32h417q51 0 80 -23t29 -70q0 -37 -13.5 -60t-49.5 -52l-414 -337q-19 -15 -26.5 -29t-7.5 -33q0 -34 45 -34h433q19 0 30 -7.5
t11 -22.5q0 -16 -11 -24t-30 -8h-445q-51 0 -80 23.5z" />
    <glyph glyph-name="Zacute" unicode="&#x179;" horiz-adv-x="703" 
d="M83 23.5q-29 23.5 -29 69.5q0 36 13.5 60t49.5 53l413 336q20 16 27.5 29.5t7.5 32.5q0 34 -42 34h-408q-19 0 -30.5 7.5t-11.5 22.5q0 32 42 32h417q51 0 80 -23t29 -70q0 -37 -13.5 -60t-49.5 -52l-414 -337q-19 -15 -26.5 -29t-7.5 -33q0 -34 45 -34h433q19 0 30 -7.5
t11 -22.5q0 -16 -11 -24t-30 -8h-445q-51 0 -80 23.5zM331 810q0 7 3 13l62 141q12 28 33 28q10 0 19 -5q20 -10 20 -27q0 -9 -6 -20l-78 -138q-9 -17 -26 -17q-6 0 -12 3q-15 7 -15 22z" />
    <glyph glyph-name="Zcaron" unicode="&#x17d;" horiz-adv-x="703" 
d="M83 23.5q-29 23.5 -29 69.5q0 36 13.5 60t49.5 53l413 336q20 16 27.5 29.5t7.5 32.5q0 34 -42 34h-408q-19 0 -30.5 7.5t-11.5 22.5q0 32 42 32h417q51 0 80 -23t29 -70q0 -37 -13.5 -60t-49.5 -52l-414 -337q-19 -15 -26.5 -29t-7.5 -33q0 -34 45 -34h433q19 0 30 -7.5
t11 -22.5q0 -16 -11 -24t-30 -8h-445q-51 0 -80 23.5zM324 800l-106 127q-10 13 -10 23q0 13 15 25q8 7 19 7q15 0 31 -20l83 -112l84 112q14 20 32 20q8 0 17 -6q15 -10 15 -26q0 -13 -10 -24l-105 -126q-14 -17 -33 -17q-18 0 -32 17z" />
    <glyph glyph-name="Zdotaccent" unicode="&#x17b;" horiz-adv-x="703" 
d="M83 23.5q-29 23.5 -29 69.5q0 36 13.5 60t49.5 53l413 336q20 16 27.5 29.5t7.5 32.5q0 34 -42 34h-408q-19 0 -30.5 7.5t-11.5 22.5q0 32 42 32h417q51 0 80 -23t29 -70q0 -37 -13.5 -60t-49.5 -52l-414 -337q-19 -15 -26.5 -29t-7.5 -33q0 -34 45 -34h433q19 0 30 -7.5
t11 -22.5q0 -16 -11 -24t-30 -8h-445q-51 0 -80 23.5zM318 817.5q-16 15.5 -16 35.5q0 21 16 36.5t38 15.5q21 0 36.5 -15.5t15.5 -36.5q0 -20 -15.5 -35.5t-36.5 -15.5q-22 0 -38 15.5z" />
    <glyph glyph-name="uni1E92" unicode="&#x1e92;" horiz-adv-x="703" 
d="M83 23.5q-29 23.5 -29 69.5q0 36 13.5 60t49.5 53l413 336q20 16 27.5 29.5t7.5 32.5q0 34 -42 34h-408q-19 0 -30.5 7.5t-11.5 22.5q0 32 42 32h417q51 0 80 -23t29 -70q0 -37 -13.5 -60t-49.5 -52l-414 -337q-19 -15 -26.5 -29t-7.5 -33q0 -34 45 -34h433q19 0 30 -7.5
t11 -22.5q0 -16 -11 -24t-30 -8h-445q-51 0 -80 23.5zM317.5 -164.5q-15.5 14.5 -15.5 35.5q0 22 15.5 37t38.5 15q22 0 37 -15t15 -37q0 -21 -15 -35.5t-37 -14.5q-23 0 -38.5 14.5z" />
    <glyph glyph-name="a" unicode="a" horiz-adv-x="576" 
d="M99.5 33q-55.5 43 -55.5 119q0 75 58.5 119t159.5 44q59 0 104.5 -16t70.5 -43v64q0 57 -37.5 87t-109.5 30q-93 0 -161 -44q-17 -10 -28 -10q-10 0 -20 8q-11 9 -11 23q0 15 13 25q36 28 91.5 44.5t113.5 16.5q106 0 164.5 -48t58.5 -135v-288q0 -39 -36 -39
q-16 0 -26 10.5t-10 27.5v36q-62 -74 -186 -74q-98 0 -153.5 43zM389 80.5q49 29.5 49 76.5t-45.5 72.5t-128.5 25.5q-70 0 -108 -26.5t-38 -76.5q0 -49 37 -75t107 -26q78 0 127 29.5z" />
    <glyph glyph-name="aacute" unicode="&#xe1;" horiz-adv-x="590" 
d="M99.5 33q-55.5 43 -55.5 119q0 75 58.5 119t159.5 44q59 0 104.5 -16t70.5 -43v64q0 57 -37.5 87t-109.5 30q-93 0 -161 -44q-17 -10 -28 -10q-10 0 -20 8q-11 9 -11 23q0 15 13 25q36 28 91.5 44.5t113.5 16.5q106 0 164.5 -48t58.5 -135v-288q0 -39 -36 -39
q-16 0 -26 10.5t-10 27.5v36q-62 -74 -186 -74q-98 0 -153.5 43zM389 80.5q49 29.5 49 76.5t-45.5 72.5t-128.5 25.5q-70 0 -108 -26.5t-38 -76.5q0 -49 37 -75t107 -26q78 0 127 29.5zM281 580q0 7 3 13l62 141q12 28 33 28q10 0 19 -5q20 -10 20 -27q0 -9 -6 -20l-78 -138
q-9 -17 -26 -17q-6 0 -12 3q-15 7 -15 22z" />
    <glyph glyph-name="abreve" unicode="&#x103;" horiz-adv-x="590" 
d="M99.5 33q-55.5 43 -55.5 119q0 75 58.5 119t159.5 44q59 0 104.5 -16t70.5 -43v64q0 57 -37.5 87t-109.5 30q-93 0 -161 -44q-17 -10 -28 -10q-10 0 -20 8q-11 9 -11 23q0 15 13 25q36 28 91.5 44.5t113.5 16.5q106 0 164.5 -48t58.5 -135v-288q0 -39 -36 -39
q-16 0 -26 10.5t-10 27.5v36q-62 -74 -186 -74q-98 0 -153.5 43zM389 80.5q49 29.5 49 76.5t-45.5 72.5t-128.5 25.5q-70 0 -108 -26.5t-38 -76.5q0 -49 37 -75t107 -26q78 0 127 29.5zM187 597q-42 42 -42 105q0 39 35 39q33 0 33 -39q0 -42 22 -67t65 -25t64.5 25t21.5 67
q0 39 34 39t34 -39q0 -63 -41.5 -105t-112.5 -42t-113 42z" />
    <glyph glyph-name="uni1EAF" unicode="&#x1eaf;" horiz-adv-x="590" 
d="M99.5 33q-55.5 43 -55.5 119q0 75 58.5 119t159.5 44q59 0 104.5 -16t70.5 -43v64q0 57 -37.5 87t-109.5 30q-93 0 -161 -44q-17 -10 -28 -10q-10 0 -20 8q-11 9 -11 23q0 15 13 25q36 28 91.5 44.5t113.5 16.5q106 0 164.5 -48t58.5 -135v-288q0 -39 -36 -39
q-16 0 -26 10.5t-10 27.5v36q-62 -74 -186 -74q-98 0 -153.5 43zM389 80.5q49 29.5 49 76.5t-45.5 72.5t-128.5 25.5q-70 0 -108 -26.5t-38 -76.5q0 -49 37 -75t107 -26q78 0 127 29.5zM273 711q0 8 5 16l61 103q13 21 32 21q8 0 18 -5q17 -10 17 -27q0 -11 -8 -21l-77 -97
q-12 -14 -23 -14q-6 0 -14 5q-11 8 -11 19zM219 564q-35 18 -53.5 47t-18.5 62q0 37 34 37q18 0 26 -9t8 -28q0 -32 21 -51.5t66 -19.5q44 0 65.5 19.5t21.5 51.5q0 37 34 37t34 -37q0 -33 -18.5 -62t-53.5 -47t-83 -18t-83 18z" />
    <glyph glyph-name="uni1EB7" unicode="&#x1eb7;" horiz-adv-x="590" 
d="M99.5 33q-55.5 43 -55.5 119q0 75 58.5 119t159.5 44q59 0 104.5 -16t70.5 -43v64q0 57 -37.5 87t-109.5 30q-93 0 -161 -44q-17 -10 -28 -10q-10 0 -20 8q-11 9 -11 23q0 15 13 25q36 28 91.5 44.5t113.5 16.5q106 0 164.5 -48t58.5 -135v-288q0 -39 -36 -39
q-16 0 -26 10.5t-10 27.5v36q-62 -74 -186 -74q-98 0 -153.5 43zM389 80.5q49 29.5 49 76.5t-45.5 72.5t-128.5 25.5q-70 0 -108 -26.5t-38 -76.5q0 -49 37 -75t107 -26q78 0 127 29.5zM265.5 -164.5q-15.5 14.5 -15.5 35.5q0 22 15.5 37t38.5 15q22 0 37 -15t15 -37
q0 -21 -15 -35.5t-37 -14.5q-23 0 -38.5 14.5zM187 597q-42 42 -42 105q0 39 35 39q33 0 33 -39q0 -42 22 -67t65 -25t64.5 25t21.5 67q0 39 34 39t34 -39q0 -63 -41.5 -105t-112.5 -42t-113 42z" />
    <glyph glyph-name="uni1EB1" unicode="&#x1eb1;" horiz-adv-x="590" 
d="M99.5 33q-55.5 43 -55.5 119q0 75 58.5 119t159.5 44q59 0 104.5 -16t70.5 -43v64q0 57 -37.5 87t-109.5 30q-93 0 -161 -44q-17 -10 -28 -10q-10 0 -20 8q-11 9 -11 23q0 15 13 25q36 28 91.5 44.5t113.5 16.5q106 0 164.5 -48t58.5 -135v-288q0 -39 -36 -39
q-16 0 -26 10.5t-10 27.5v36q-62 -74 -186 -74q-98 0 -153.5 43zM389 80.5q49 29.5 49 76.5t-45.5 72.5t-128.5 25.5q-70 0 -108 -26.5t-38 -76.5q0 -49 37 -75t107 -26q78 0 127 29.5zM306 687q-10 0 -22 14l-77 97q-8 11 -8 22q0 17 15 25q10 6 21 6q19 0 31 -21l60 -103
q5 -8 5 -17q0 -12 -10 -18q-8 -5 -15 -5zM220 564q-35 18 -53.5 47t-18.5 62q0 37 34 37q18 0 26 -9t8 -28q0 -32 21 -51.5t66 -19.5q44 0 65.5 19.5t21.5 51.5q0 37 34 37t34 -37q0 -33 -18.5 -62t-53.5 -47t-83 -18t-83 18z" />
    <glyph glyph-name="uni1EB3" unicode="&#x1eb3;" horiz-adv-x="590" 
d="M99.5 33q-55.5 43 -55.5 119q0 75 58.5 119t159.5 44q59 0 104.5 -16t70.5 -43v64q0 57 -37.5 87t-109.5 30q-93 0 -161 -44q-17 -10 -28 -10q-10 0 -20 8q-11 9 -11 23q0 15 13 25q36 28 91.5 44.5t113.5 16.5q106 0 164.5 -48t58.5 -135v-288q0 -39 -36 -39
q-16 0 -26 10.5t-10 27.5v36q-62 -74 -186 -74q-98 0 -153.5 43zM389 80.5q49 29.5 49 76.5t-45.5 72.5t-128.5 25.5q-70 0 -108 -26.5t-38 -76.5q0 -49 37 -75t107 -26q78 0 127 29.5zM273 699v7q0 16 9 27t27 26q14 10 21 18t7 18q0 13 -9 21t-26 8q-18 0 -28 -5t-18 -16
q-11 -13 -21 -13q-3 0 -13 4q-13 7 -13 19q0 6 5 14q12 19 36.5 31.5t56.5 12.5q45 0 66.5 -20t21.5 -51q0 -19 -9 -31t-27 -27q-14 -11 -20.5 -18.5t-6.5 -18.5v-6q0 -25 -30 -25q-29 0 -29 25zM220 564q-35 18 -53.5 47t-18.5 62q0 37 34 37q18 0 26 -9t8 -28
q0 -32 21 -51.5t66 -19.5q44 0 65.5 19.5t21.5 51.5q0 37 34 37t34 -37q0 -33 -18.5 -62t-53.5 -47t-83 -18t-83 18z" />
    <glyph glyph-name="uni1EB5" unicode="&#x1eb5;" horiz-adv-x="590" 
d="M99.5 33q-55.5 43 -55.5 119q0 75 58.5 119t159.5 44q59 0 104.5 -16t70.5 -43v64q0 57 -37.5 87t-109.5 30q-93 0 -161 -44q-17 -10 -28 -10q-10 0 -20 8q-11 9 -11 23q0 15 13 25q36 28 91.5 44.5t113.5 16.5q106 0 164.5 -48t58.5 -135v-288q0 -39 -36 -39
q-16 0 -26 10.5t-10 27.5v36q-62 -74 -186 -74q-98 0 -153.5 43zM389 80.5q49 29.5 49 76.5t-45.5 72.5t-128.5 25.5q-70 0 -108 -26.5t-38 -76.5q0 -49 37 -75t107 -26q78 0 127 29.5zM144 759q-4 5 -4 14q0 2 2 14q8 33 32 53.5t58 20.5q23 0 41 -8.5t41 -23.5
q16 -12 27.5 -17.5t22.5 -5.5q17 0 27 10.5t17 29.5q7 21 24 21q13 0 20 -6t7 -17q0 -4 -2 -12q-8 -34 -32 -54.5t-59 -20.5q-20 0 -35.5 7.5t-38.5 22.5q-17 13 -29.5 19t-27.5 6q-31 0 -44 -41q-7 -20 -24 -20q-6 0 -9 1q-10 2 -14 7zM220 564q-35 18 -53.5 47t-18.5 62
q0 37 34 37q18 0 26 -9t8 -28q0 -32 21 -51.5t66 -19.5q44 0 65.5 19.5t21.5 51.5q0 37 34 37t34 -37q0 -33 -18.5 -62t-53.5 -47t-83 -18t-83 18z" />
    <glyph glyph-name="uni01CE" unicode="&#x1ce;" horiz-adv-x="590" 
d="M99.5 33q-55.5 43 -55.5 119q0 75 58.5 119t159.5 44q59 0 104.5 -16t70.5 -43v64q0 57 -37.5 87t-109.5 30q-93 0 -161 -44q-17 -10 -28 -10q-10 0 -20 8q-11 9 -11 23q0 15 13 25q36 28 91.5 44.5t113.5 16.5q106 0 164.5 -48t58.5 -135v-288q0 -39 -36 -39
q-16 0 -26 10.5t-10 27.5v36q-62 -74 -186 -74q-98 0 -153.5 43zM389 80.5q49 29.5 49 76.5t-45.5 72.5t-128.5 25.5q-70 0 -108 -26.5t-38 -76.5q0 -49 37 -75t107 -26q78 0 127 29.5zM272 570l-106 127q-10 13 -10 23q0 13 15 25q8 7 19 7q15 0 31 -20l83 -112l84 112
q14 20 32 20q8 0 17 -6q15 -10 15 -26q0 -13 -10 -24l-105 -126q-14 -17 -33 -17q-18 0 -32 17z" />
    <glyph glyph-name="acircumflex" unicode="&#xe2;" horiz-adv-x="590" 
d="M99.5 33q-55.5 43 -55.5 119q0 75 58.5 119t159.5 44q59 0 104.5 -16t70.5 -43v64q0 57 -37.5 87t-109.5 30q-93 0 -161 -44q-17 -10 -28 -10q-10 0 -20 8q-11 9 -11 23q0 15 13 25q36 28 91.5 44.5t113.5 16.5q106 0 164.5 -48t58.5 -135v-288q0 -39 -36 -39
q-16 0 -26 10.5t-10 27.5v36q-62 -74 -186 -74q-98 0 -153.5 43zM389 80.5q49 29.5 49 76.5t-45.5 72.5t-128.5 25.5q-70 0 -108 -26.5t-38 -76.5q0 -49 37 -75t107 -26q78 0 127 29.5zM156 586q0 10 10 23l106 126q14 17 32 17q19 0 33 -17l105 -126q10 -13 10 -23
q0 -14 -14 -25q-10 -7 -20 -7q-15 0 -30 19l-84 112l-83 -112q-15 -20 -32 -20q-8 0 -18 7q-15 12 -15 26z" />
    <glyph glyph-name="uni1EA5" unicode="&#x1ea5;" horiz-adv-x="590" 
d="M99.5 33q-55.5 43 -55.5 119q0 75 58.5 119t159.5 44q59 0 104.5 -16t70.5 -43v64q0 57 -37.5 87t-109.5 30q-93 0 -161 -44q-17 -10 -28 -10q-10 0 -20 8q-11 9 -11 23q0 15 13 25q36 28 91.5 44.5t113.5 16.5q106 0 164.5 -48t58.5 -135v-288q0 -39 -36 -39
q-16 0 -26 10.5t-10 27.5v36q-62 -74 -186 -74q-98 0 -153.5 43zM389 80.5q49 29.5 49 76.5t-45.5 72.5t-128.5 25.5q-70 0 -108 -26.5t-38 -76.5q0 -49 37 -75t107 -26q78 0 127 29.5zM390 719q0 8 5 16l62 103q12 21 31 21q9 0 20 -6q15 -9 15 -24q0 -12 -8 -22l-77 -98
q-12 -14 -23 -14q-6 0 -14 5q-11 6 -11 19zM156 586q0 12 10 22l106 112q9 9 15.5 13t16.5 4t16.5 -4t15.5 -13l106 -111q10 -10 10 -23q0 -15 -15 -26q-9 -6 -17 -6q-16 0 -32 19l-84 97l-84 -98q-17 -19 -31 -19q-8 0 -18 7q-15 12 -15 26z" />
    <glyph glyph-name="uni1EAD" unicode="&#x1ead;" horiz-adv-x="590" 
d="M99.5 33q-55.5 43 -55.5 119q0 75 58.5 119t159.5 44q59 0 104.5 -16t70.5 -43v64q0 57 -37.5 87t-109.5 30q-93 0 -161 -44q-17 -10 -28 -10q-10 0 -20 8q-11 9 -11 23q0 15 13 25q36 28 91.5 44.5t113.5 16.5q106 0 164.5 -48t58.5 -135v-288q0 -39 -36 -39
q-16 0 -26 10.5t-10 27.5v36q-62 -74 -186 -74q-98 0 -153.5 43zM389 80.5q49 29.5 49 76.5t-45.5 72.5t-128.5 25.5q-70 0 -108 -26.5t-38 -76.5q0 -49 37 -75t107 -26q78 0 127 29.5zM265.5 -164.5q-15.5 14.5 -15.5 35.5q0 22 15.5 37t38.5 15q22 0 37 -15t15 -37
q0 -21 -15 -35.5t-37 -14.5q-23 0 -38.5 14.5zM156 586q0 10 10 23l106 126q14 17 32 17q19 0 33 -17l105 -126q10 -13 10 -23q0 -14 -14 -25q-10 -7 -20 -7q-15 0 -30 19l-84 112l-83 -112q-15 -20 -32 -20q-8 0 -18 7q-15 12 -15 26z" />
    <glyph glyph-name="uni1EA7" unicode="&#x1ea7;" horiz-adv-x="590" 
d="M99.5 33q-55.5 43 -55.5 119q0 75 58.5 119t159.5 44q59 0 104.5 -16t70.5 -43v64q0 57 -37.5 87t-109.5 30q-93 0 -161 -44q-17 -10 -28 -10q-10 0 -20 8q-11 9 -11 23q0 15 13 25q36 28 91.5 44.5t113.5 16.5q106 0 164.5 -48t58.5 -135v-288q0 -39 -36 -39
q-16 0 -26 10.5t-10 27.5v36q-62 -74 -186 -74q-98 0 -153.5 43zM389 80.5q49 29.5 49 76.5t-45.5 72.5t-128.5 25.5q-70 0 -108 -26.5t-38 -76.5q0 -49 37 -75t107 -26q78 0 127 29.5zM450 695q-11 0 -23 14l-77 98q-8 10 -8 21q0 16 17 26q10 5 18 5q19 0 32 -21l61 -103
q5 -10 5 -17q0 -11 -12 -19q-5 -4 -13 -4zM156 586q0 12 10 22l106 112q9 9 15.5 13t16.5 4q16 0 32 -17l106 -111q10 -10 10 -23q0 -15 -15 -26q-9 -6 -17 -6q-16 0 -32 19l-84 97l-84 -98q-17 -19 -31 -19q-8 0 -18 7q-15 12 -15 26z" />
    <glyph glyph-name="uni1EA9" unicode="&#x1ea9;" horiz-adv-x="590" 
d="M99.5 33q-55.5 43 -55.5 119q0 75 58.5 119t159.5 44q59 0 104.5 -16t70.5 -43v64q0 57 -37.5 87t-109.5 30q-93 0 -161 -44q-17 -10 -28 -10q-10 0 -20 8q-11 9 -11 23q0 15 13 25q36 28 91.5 44.5t113.5 16.5q106 0 164.5 -48t58.5 -135v-288q0 -39 -36 -39
q-16 0 -26 10.5t-10 27.5v36q-62 -74 -186 -74q-98 0 -153.5 43zM389 80.5q49 29.5 49 76.5t-45.5 72.5t-128.5 25.5q-70 0 -108 -26.5t-38 -76.5q0 -49 37 -75t107 -26q78 0 127 29.5zM382 715v8q0 15 9 26t27 26q14 10 21 18t7 18q0 13 -9 21t-26 8q-16 0 -27 -5t-20 -16
q-10 -12 -20 -12q-6 0 -13 4q-13 8 -13 18q0 6 5 14q13 20 36.5 32t56.5 12q45 0 66.5 -20t21.5 -51q0 -19 -9 -31t-27 -27q-13 -10 -19.5 -18t-6.5 -18v-7q0 -25 -30 -25t-30 25zM156 586q0 12 10 22l106 112q9 9 15.5 13t16.5 4q16 0 32 -17l106 -111q10 -10 10 -23
q0 -15 -15 -26q-9 -6 -17 -6q-16 0 -32 19l-84 97l-84 -98q-17 -19 -31 -19q-8 0 -18 7q-15 12 -15 26z" />
    <glyph glyph-name="uni1EAB" unicode="&#x1eab;" horiz-adv-x="590" 
d="M99.5 33q-55.5 43 -55.5 119q0 75 58.5 119t159.5 44q59 0 104.5 -16t70.5 -43v64q0 57 -37.5 87t-109.5 30q-93 0 -161 -44q-17 -10 -28 -10q-10 0 -20 8q-11 9 -11 23q0 15 13 25q36 28 91.5 44.5t113.5 16.5q106 0 164.5 -48t58.5 -135v-288q0 -39 -36 -39
q-16 0 -26 10.5t-10 27.5v36q-62 -74 -186 -74q-98 0 -153.5 43zM389 80.5q49 29.5 49 76.5t-45.5 72.5t-128.5 25.5q-70 0 -108 -26.5t-38 -76.5q0 -49 37 -75t107 -26q78 0 127 29.5zM149 776q0 3 2 13q8 33 32.5 53t57.5 20q23 0 41 -8.5t41 -23.5q16 -12 27.5 -17.5
t22.5 -5.5q31 0 44 40q7 21 23 21q28 0 28 -23q0 -4 -2 -14q-8 -31 -32 -52t-58 -21q-21 0 -38 8t-37 22q-19 12 -30.5 18t-26.5 6t-26.5 -10t-16.5 -27q-7 -23 -23 -23l-12 2q-17 5 -17 22zM156 586q0 13 10 23l105 112q16 17 32 17q20 0 32 -17l106 -112q10 -10 10 -23
q0 -14 -14 -25q-8 -7 -19 -7q-15 0 -31 19l-84 98l-83 -98q-16 -19 -31 -19q-9 0 -20 8q-13 9 -13 24z" />
    <glyph glyph-name="adieresis" unicode="&#xe4;" horiz-adv-x="590" 
d="M99.5 33q-55.5 43 -55.5 119q0 75 58.5 119t159.5 44q59 0 104.5 -16t70.5 -43v64q0 57 -37.5 87t-109.5 30q-93 0 -161 -44q-17 -10 -28 -10q-10 0 -20 8q-11 9 -11 23q0 15 13 25q36 28 91.5 44.5t113.5 16.5q106 0 164.5 -48t58.5 -135v-288q0 -39 -36 -39
q-16 0 -26 10.5t-10 27.5v36q-62 -74 -186 -74q-98 0 -153.5 43zM389 80.5q49 29.5 49 76.5t-45.5 72.5t-128.5 25.5q-70 0 -108 -26.5t-38 -76.5q0 -49 37 -75t107 -26q78 0 127 29.5zM165 589.5q-15 14.5 -15 34.5q0 21 15 35.5t36 14.5q20 0 34.5 -15t14.5 -35
t-14.5 -34.5t-34.5 -14.5q-21 0 -36 14.5zM372 589.5q-15 14.5 -15 34.5t15 35t36 15q20 0 35 -15t15 -35t-15 -34.5t-35 -14.5q-21 0 -36 14.5z" />
    <glyph glyph-name="uni1EA1" unicode="&#x1ea1;" horiz-adv-x="590" 
d="M99.5 33q-55.5 43 -55.5 119q0 75 58.5 119t159.5 44q59 0 104.5 -16t70.5 -43v64q0 57 -37.5 87t-109.5 30q-93 0 -161 -44q-17 -10 -28 -10q-10 0 -20 8q-11 9 -11 23q0 15 13 25q36 28 91.5 44.5t113.5 16.5q106 0 164.5 -48t58.5 -135v-288q0 -39 -36 -39
q-16 0 -26 10.5t-10 27.5v36q-62 -74 -186 -74q-98 0 -153.5 43zM389 80.5q49 29.5 49 76.5t-45.5 72.5t-128.5 25.5q-70 0 -108 -26.5t-38 -76.5q0 -49 37 -75t107 -26q78 0 127 29.5zM265.5 -164.5q-15.5 14.5 -15.5 35.5q0 22 15.5 37t38.5 15q22 0 37 -15t15 -37
q0 -21 -15 -35.5t-37 -14.5q-23 0 -38.5 14.5z" />
    <glyph glyph-name="agrave" unicode="&#xe0;" horiz-adv-x="590" 
d="M99.5 33q-55.5 43 -55.5 119q0 75 58.5 119t159.5 44q59 0 104.5 -16t70.5 -43v64q0 57 -37.5 87t-109.5 30q-93 0 -161 -44q-17 -10 -28 -10q-10 0 -20 8q-11 9 -11 23q0 15 13 25q36 28 91.5 44.5t113.5 16.5q106 0 164.5 -48t58.5 -135v-288q0 -39 -36 -39
q-16 0 -26 10.5t-10 27.5v36q-62 -74 -186 -74q-98 0 -153.5 43zM389 80.5q49 29.5 49 76.5t-45.5 72.5t-128.5 25.5q-70 0 -108 -26.5t-38 -76.5q0 -49 37 -75t107 -26q78 0 127 29.5zM310 555q-17 0 -26 17l-78 138q-6 11 -6 20q0 17 20 27q9 5 19 5q21 0 33 -28l62 -141
q3 -7 3 -14q0 -14 -15 -21q-6 -3 -12 -3z" />
    <glyph glyph-name="uni1EA3" unicode="&#x1ea3;" horiz-adv-x="590" 
d="M99.5 33q-55.5 43 -55.5 119q0 75 58.5 119t159.5 44q59 0 104.5 -16t70.5 -43v64q0 57 -37.5 87t-109.5 30q-93 0 -161 -44q-17 -10 -28 -10q-10 0 -20 8q-11 9 -11 23q0 15 13 25q36 28 91.5 44.5t113.5 16.5q106 0 164.5 -48t58.5 -135v-288q0 -39 -36 -39
q-16 0 -26 10.5t-10 27.5v36q-62 -74 -186 -74q-98 0 -153.5 43zM389 80.5q49 29.5 49 76.5t-45.5 72.5t-128.5 25.5q-70 0 -108 -26.5t-38 -76.5q0 -49 37 -75t107 -26q78 0 127 29.5zM272 556v8q0 17 10 29.5t29 27.5q17 14 24 21.5t7 18.5q0 15 -9.5 23.5t-28.5 8.5
q-34 0 -54 -26q-10 -13 -23 -13q-6 0 -13 3q-15 9 -15 21q0 6 5 14q14 22 42 37.5t64 15.5q48 0 73 -22.5t25 -56.5q0 -21 -10.5 -34.5t-30.5 -28.5q-16 -13 -22.5 -20.5t-6.5 -18.5v-8q0 -28 -34 -28q-32 0 -32 28z" />
    <glyph glyph-name="uni0251" unicode="&#x251;" horiz-adv-x="684" 
d="M119 56.5q-74 66.5 -74 184.5q0 79 34 137.5t97.5 90t148.5 31.5q64 0 116.5 -23.5t97.5 -73.5q5 33 13 61q12 37 44 37q7 0 11 -1q32 -8 32 -33q0 -8 -3 -17q-18 -56 -18 -97v-225q0 -16 3.5 -34.5t14.5 -57.5q2 -8 2 -12q0 -14 -12 -24t-32 -10q-14 0 -23.5 8.5
t-16.5 26.5q-10 29 -14 62q-76 -97 -217 -97q-130 0 -204 66.5zM480 108q54 48 54 137q0 54 -26 96t-73 65.5t-107 23.5q-92 0 -145.5 -50.5t-53.5 -138.5t50.5 -134.5t146.5 -46.5q100 0 154 48z" />
    <glyph glyph-name="amacron" unicode="&#x101;" horiz-adv-x="590" 
d="M99.5 33q-55.5 43 -55.5 119q0 75 58.5 119t159.5 44q59 0 104.5 -16t70.5 -43v64q0 57 -37.5 87t-109.5 30q-93 0 -161 -44q-17 -10 -28 -10q-10 0 -20 8q-11 9 -11 23q0 15 13 25q36 28 91.5 44.5t113.5 16.5q106 0 164.5 -48t58.5 -135v-288q0 -39 -36 -39
q-16 0 -26 10.5t-10 27.5v36q-62 -74 -186 -74q-98 0 -153.5 43zM389 80.5q49 29.5 49 76.5t-45.5 72.5t-128.5 25.5q-70 0 -108 -26.5t-38 -76.5q0 -49 37 -75t107 -26q78 0 127 29.5zM145 584q0 16 9.5 21.5t26.5 5.5h245q18 0 27 -6t9 -21q0 -26 -36 -26h-245
q-36 0 -36 26z" />
    <glyph glyph-name="aogonek" unicode="&#x105;" horiz-adv-x="590" 
d="M560 -152q0 -10 -10 -20q-19 -19 -40 -27.5t-49 -8.5q-49 0 -78.5 24.5t-29.5 64.5q0 37 22 69t65 68q-1 3 -1 10v36q-62 -74 -186 -74q-98 0 -153.5 43t-55.5 119q0 75 58.5 119t159.5 44q59 0 104.5 -16t70.5 -43v64q0 57 -37.5 87t-109.5 30q-93 0 -161 -44
q-17 -10 -28 -10q-10 0 -20 8q-11 9 -11 23q0 15 13 25q36 28 91.5 44.5t113.5 16.5q106 0 164.5 -48t58.5 -135v-288q0 -10 -1 -14l-2 -4q-5 -14 -17 -18q-42 -35 -59 -56.5t-17 -51.5q0 -18 13.5 -29.5t36.5 -11.5q31 0 53 20q8 8 18 8q9 0 16 -7q8 -8 8 -17zM389 80.5
q49 29.5 49 76.5t-45.5 72.5t-128.5 25.5q-70 0 -108 -26.5t-38 -76.5q0 -49 37 -75t107 -26q78 0 127 29.5z" />
    <glyph glyph-name="aring" unicode="&#xe5;" horiz-adv-x="590" 
d="M99.5 33q-55.5 43 -55.5 119q0 75 58.5 119t159.5 44q59 0 104.5 -16t70.5 -43v64q0 57 -37.5 87t-109.5 30q-93 0 -161 -44q-17 -10 -28 -10q-10 0 -20 8q-11 9 -11 23q0 15 13 25q36 28 91.5 44.5t113.5 16.5q106 0 164.5 -48t58.5 -135v-288q0 -39 -36 -39
q-16 0 -26 10.5t-10 27.5v36q-62 -74 -186 -74q-98 0 -153.5 43zM389 80.5q49 29.5 49 76.5t-45.5 72.5t-128.5 25.5q-70 0 -108 -26.5t-38 -76.5q0 -49 37 -75t107 -26q78 0 127 29.5zM221.5 554.5q-31.5 29.5 -31.5 73.5t31.5 73t82.5 29t82 -29t31 -73t-31 -73.5
t-82 -29.5t-82.5 29.5zM348.5 586.5q16.5 15.5 16.5 41.5t-16.5 41.5t-44.5 15.5t-44 -15.5t-16 -41.5t16 -41.5t44 -15.5t44.5 15.5z" />
    <glyph glyph-name="aringacute" unicode="&#x1fb;" horiz-adv-x="590" 
d="M268 780q0 6 3 10l62 113q12 23 33 23q10 0 19 -4q20 -9 20 -22q0 -7 -6 -16l-78 -110q-11 -14 -27 -14q-3 0 -11 2q-15 5 -15 18zM221.5 554.5q-31.5 29.5 -31.5 73.5t31.5 73t82.5 29t82 -29t31 -73t-31 -73.5t-82 -29.5t-82.5 29.5zM348.5 586.5q16.5 15.5 16.5 41.5
t-16.5 41.5t-44.5 15.5t-44 -15.5t-16 -41.5t16 -41.5t44 -15.5t44.5 15.5zM99.5 33q-55.5 43 -55.5 119q0 75 58.5 119t159.5 44q59 0 104.5 -16t70.5 -43v64q0 57 -37.5 87t-109.5 30q-93 0 -161 -44q-17 -10 -28 -10q-10 0 -20 8q-11 9 -11 23q0 15 13 25
q36 28 91.5 44.5t113.5 16.5q106 0 164.5 -48t58.5 -135v-288q0 -39 -36 -39q-16 0 -26 10.5t-10 27.5v36q-62 -74 -186 -74q-98 0 -153.5 43zM389 80.5q49 29.5 49 76.5t-45.5 72.5t-128.5 25.5q-70 0 -108 -26.5t-38 -76.5q0 -49 37 -75t107 -26q78 0 127 29.5z" />
    <glyph glyph-name="atilde" unicode="&#xe3;" horiz-adv-x="590" 
d="M99.5 33q-55.5 43 -55.5 119q0 75 58.5 119t159.5 44q59 0 104.5 -16t70.5 -43v64q0 57 -37.5 87t-109.5 30q-93 0 -161 -44q-17 -10 -28 -10q-10 0 -20 8q-11 9 -11 23q0 15 13 25q36 28 91.5 44.5t113.5 16.5q106 0 164.5 -48t58.5 -135v-288q0 -39 -36 -39
q-16 0 -26 10.5t-10 27.5v36q-62 -74 -186 -74q-98 0 -153.5 43zM389 80.5q49 29.5 49 76.5t-45.5 72.5t-128.5 25.5q-70 0 -108 -26.5t-38 -76.5q0 -49 37 -75t107 -26q78 0 127 29.5zM136 598q0 9 2 15q9 34 33.5 56t60.5 22q24 0 42.5 -8.5t43.5 -24.5q17 -12 28.5 -18
t24.5 -6q34 0 46 42q7 21 25 21q14 0 21.5 -6.5t7.5 -18.5l-2 -12q-10 -36 -35 -57.5t-60 -21.5q-23 0 -39.5 8t-39.5 23q-19 13 -32 19.5t-28 6.5q-32 0 -45 -41q-8 -22 -25 -22q-29 0 -29 23z" />
    <glyph glyph-name="ae" unicode="&#xe6;" horiz-adv-x="1003" 
d="M101 35.5q-57 45.5 -57 123.5q0 50 27 88.5t76.5 59.5t114.5 21q57 0 103 -15.5t72 -43.5v41q0 58 -40.5 92.5t-107.5 34.5q-47 0 -85 -11t-76 -34q-14 -9 -28 -9q-12 0 -21 8t-9 22q0 15 12 25q37 29 91.5 45.5t113.5 16.5q144 0 194 -108q30 51 87 79.5t129 28.5
q78 0 137.5 -24.5t92.5 -69t33 -102.5q0 -41 -23 -64t-65 -23h-363q0 -77 51.5 -120t143.5 -43q55 0 97 14t78 44q19 16 32 16q11 0 19 -8q12 -10 12 -23q0 -12 -11 -23q-85 -83 -227 -83q-75 0 -131 25.5t-91 73.5q-80 -100 -227 -100q-97 0 -154 45.5zM850 276q19 0 28 8
t9 27q0 56 -52.5 91t-137.5 35q-86 0 -136 -43.5t-50 -117.5h339zM390 81.5q48 30.5 48 82.5q0 49 -46 76.5t-128 27.5q-68 0 -107 -29.5t-39 -79.5q0 -52 37 -80t107 -28q80 0 128 30.5z" />
    <glyph glyph-name="aeacute" unicode="&#x1fd;" horiz-adv-x="1003" 
d="M101 35.5q-57 45.5 -57 123.5q0 50 27 88.5t76.5 59.5t114.5 21q57 0 103 -15.5t72 -43.5v41q0 58 -40.5 92.5t-107.5 34.5q-47 0 -85 -11t-76 -34q-14 -9 -28 -9q-12 0 -21 8t-9 22q0 15 12 25q37 29 91.5 45.5t113.5 16.5q144 0 194 -108q30 51 87 79.5t129 28.5
q78 0 137.5 -24.5t92.5 -69t33 -102.5q0 -41 -23 -64t-65 -23h-363q0 -77 51.5 -120t143.5 -43q55 0 97 14t78 44q19 16 32 16q11 0 19 -8q12 -10 12 -23q0 -12 -11 -23q-85 -83 -227 -83q-75 0 -131 25.5t-91 73.5q-80 -100 -227 -100q-97 0 -154 45.5zM850 276q19 0 28 8
t9 27q0 56 -52.5 91t-137.5 35q-86 0 -136 -43.5t-50 -117.5h339zM390 81.5q48 30.5 48 82.5q0 49 -46 76.5t-128 27.5q-68 0 -107 -29.5t-39 -79.5q0 -52 37 -80t107 -28q80 0 128 30.5zM457 600q0 7 3 13l62 141q12 28 33 28q10 0 19 -5q20 -10 20 -27q0 -9 -6 -20
l-78 -138q-9 -17 -26 -17q-6 0 -12 3q-15 7 -15 22z" />
    <glyph glyph-name="b" unicode="b" horiz-adv-x="667" 
d="M78.5 0.5q-9.5 10.5 -9.5 29.5v689q0 19 9.5 29.5t26.5 10.5t27 -10.5t10 -29.5l1 -321q84 102 215 102q81 0 141 -31t92.5 -88.5t32.5 -135.5q0 -122 -70 -188.5t-197 -66.5q-141 0 -215 104v-64q0 -18 -9.5 -29t-27.5 -11q-17 0 -26.5 10.5zM500 101.5
q50 48.5 50 143.5q0 90 -53 141t-145 51q-60 0 -108 -24.5t-75 -68.5t-27 -99q0 -89 56 -140.5t154 -51.5t148 48.5z" />
    <glyph glyph-name="c" unicode="c" horiz-adv-x="588" 
d="M172 21.5q-61 31.5 -94 89.5t-33 135q0 76 33 133.5t94 89t141 31.5q75 0 130 -21t87 -62q8 -11 8 -21q0 -15 -15 -27q-7 -6 -18 -6q-17 0 -32 15q-53 59 -160 59q-93 0 -143.5 -49.5t-50.5 -141.5q0 -91 51 -142t143 -51q51 0 94 15.5t71 44.5q17 17 32 17q9 0 20 -8
q14 -12 14 -26q0 -13 -11 -22q-49 -44 -102 -64t-118 -20q-80 0 -141 31.5z" />
    <glyph glyph-name="cacute" unicode="&#x107;" horiz-adv-x="599" 
d="M172 21.5q-61 31.5 -94 89.5t-33 135q0 76 33 133.5t94 89t141 31.5q75 0 130 -21t87 -62q8 -11 8 -21q0 -15 -15 -27q-7 -6 -18 -6q-17 0 -32 15q-53 59 -160 59q-93 0 -143.5 -49.5t-50.5 -141.5q0 -91 51 -142t143 -51q51 0 94 15.5t71 44.5q17 17 32 17q9 0 20 -8
q14 -12 14 -26q0 -13 -11 -22q-49 -44 -102 -64t-118 -20q-80 0 -141 31.5zM285 580q0 7 3 13l62 141q12 28 33 28q10 0 19 -5q20 -10 20 -27q0 -9 -6 -20l-78 -138q-9 -17 -26 -17q-6 0 -12 3q-15 7 -15 22z" />
    <glyph glyph-name="ccaron" unicode="&#x10d;" horiz-adv-x="599" 
d="M172 21.5q-61 31.5 -94 89.5t-33 135q0 76 33 133.5t94 89t141 31.5q75 0 130 -21t87 -62q8 -11 8 -21q0 -15 -15 -27q-7 -6 -18 -6q-17 0 -32 15q-53 59 -160 59q-93 0 -143.5 -49.5t-50.5 -141.5q0 -91 51 -142t143 -51q51 0 94 15.5t71 44.5q17 17 32 17q9 0 20 -8
q14 -12 14 -26q0 -13 -11 -22q-49 -44 -102 -64t-118 -20q-80 0 -141 31.5zM276 570l-106 127q-10 13 -10 23q0 13 15 25q8 7 19 7q15 0 31 -20l83 -112l84 112q14 20 32 20q8 0 17 -6q15 -10 15 -26q0 -13 -10 -24l-105 -126q-14 -17 -33 -17q-18 0 -32 17z" />
    <glyph glyph-name="ccedilla" unicode="&#xe7;" horiz-adv-x="599" 
d="M544 96q0 -13 -11 -22q-44 -40 -91.5 -60t-104.5 -23l-1 -3l-23 -45q41 1 62 -19t21 -51q0 -37 -26 -60.5t-72 -23.5q-35 0 -62 14.5t-42 35.5q-7 10 -7 16q0 8 12 19q8 6 15 6q10 0 19 -12q10 -14 26 -22t36 -8q21 0 32.5 10t11.5 27q0 36 -36 36q-9 0 -14 -1
q-14 -2 -24.5 5.5t-10.5 20.5q0 6 3 12l21 44q-107 10 -170 78.5t-63 175.5q0 76 33 133.5t94 89t141 31.5q75 0 130 -21t87 -62q8 -11 8 -21q0 -15 -15 -27q-7 -6 -18 -6q-17 0 -32 15q-53 59 -160 59q-93 0 -143.5 -49.5t-50.5 -141.5q0 -91 51 -142t143 -51q51 0 94 15.5
t71 44.5q17 17 32 17q9 0 20 -8q14 -12 14 -26z" />
    <glyph glyph-name="ccircumflex" unicode="&#x109;" horiz-adv-x="599" 
d="M172 21.5q-61 31.5 -94 89.5t-33 135q0 76 33 133.5t94 89t141 31.5q75 0 130 -21t87 -62q8 -11 8 -21q0 -15 -15 -27q-7 -6 -18 -6q-17 0 -32 15q-53 59 -160 59q-93 0 -143.5 -49.5t-50.5 -141.5q0 -91 51 -142t143 -51q51 0 94 15.5t71 44.5q17 17 32 17q9 0 20 -8
q14 -12 14 -26q0 -13 -11 -22q-49 -44 -102 -64t-118 -20q-80 0 -141 31.5zM160 586q0 10 10 23l106 126q14 17 32 17q19 0 33 -17l105 -126q10 -13 10 -23q0 -14 -14 -25q-10 -7 -20 -7q-15 0 -30 19l-84 112l-83 -112q-15 -20 -32 -20q-8 0 -18 7q-15 12 -15 26z" />
    <glyph glyph-name="cdotaccent" unicode="&#x10b;" horiz-adv-x="599" 
d="M172 21.5q-61 31.5 -94 89.5t-33 135q0 76 33 133.5t94 89t141 31.5q75 0 130 -21t87 -62q8 -11 8 -21q0 -15 -15 -27q-7 -6 -18 -6q-17 0 -32 15q-53 59 -160 59q-93 0 -143.5 -49.5t-50.5 -141.5q0 -91 51 -142t143 -51q51 0 94 15.5t71 44.5q17 17 32 17q9 0 20 -8
q14 -12 14 -26q0 -13 -11 -22q-49 -44 -102 -64t-118 -20q-80 0 -141 31.5zM270 587.5q-16 15.5 -16 35.5q0 21 16 36.5t38 15.5q21 0 36.5 -15.5t15.5 -36.5q0 -20 -15.5 -35.5t-36.5 -15.5q-22 0 -38 15.5z" />
    <glyph glyph-name="d" unicode="d" horiz-adv-x="667" 
d="M114.5 57.5q-71.5 67.5 -71.5 184.5q0 74 31.5 132.5t92 92t145.5 33.5q72 0 122.5 -27t89.5 -75l1 321q0 19 9.5 29.5t27.5 10.5q17 0 26.5 -10.5t9.5 -29.5v-689q0 -19 -9.5 -29.5t-26.5 -10.5t-27 10.5t-10 29.5v64q-35 -51 -89.5 -77.5t-125.5 -26.5
q-124 0 -195.5 67.5zM469 104.5q56 51.5 56 140.5q0 59 -28.5 102.5t-76 66.5t-103.5 23q-94 0 -147 -53.5t-53 -141.5q0 -94 52 -141.5t147 -47.5q97 0 153 51.5z" />
    <glyph glyph-name="eth" unicode="&#xf0;" horiz-adv-x="647" 
d="M598 343q0 -166 -76.5 -259.5t-215.5 -93.5q-79 0 -137 31t-89 86t-31 126q0 68 30 121.5t87.5 84.5t137.5 31q78 0 136 -36t92 -95l2 1q-3 79 -23.5 134t-64.5 96l-48 -49q-12 -12 -25 -12q-9 0 -19 8q-9 9 -9 19q0 13 11 24l43 45q-43 27 -110 50q-19 7 -19 25
q0 9 5 19q7 16 26 16q12 0 27 -6q69 -25 116 -58l64 66q10 11 24 11q10 0 20 -8q9 -9 9 -20q0 -12 -10 -22l-61 -62q108 -101 108 -273zM406 76q45 22 71 62t26 91t-26 91t-71 62.5t-100 22.5q-85 0 -133.5 -47t-48.5 -128t48.5 -128.5t133.5 -47.5q55 0 100 22z" />
    <glyph glyph-name="dcaron" unicode="&#x10f;" horiz-adv-x="793" 
d="M124.5 57.5q-71.5 67.5 -71.5 184.5q0 74 31.5 132.5t92 92t145.5 33.5q72 0 122.5 -27t89.5 -75l1 321q0 19 9.5 29.5t27.5 10.5q17 0 26.5 -10.5t9.5 -29.5v-689q0 -19 -9.5 -29.5t-26.5 -10.5t-27 10.5t-10 29.5v64q-35 -51 -89.5 -77.5t-125.5 -26.5
q-124 0 -195.5 67.5zM479 104.5q56 51.5 56 140.5q0 59 -28.5 102.5t-76 66.5t-103.5 23q-94 0 -147 -53.5t-53 -141.5q0 -94 52 -141.5t147 -47.5q97 0 153 51.5zM677 542q0 11 17 25q51 43 54 77q-8 -2 -13 -2q-21 0 -36 14.5t-15 35.5q0 27 17 42.5t46 15.5t46 -20.5
t17 -54.5q0 -70 -79 -135q-22 -18 -34 -18q-8 0 -15 8q-5 7 -5 12z" />
    <glyph glyph-name="dcroat" unicode="&#x111;" horiz-adv-x="741" 
d="M703 602q0 -30 -38 -30h-65v-542q0 -19 -9.5 -29.5t-26.5 -10.5t-27 10.5t-10 29.5v64q-35 -51 -89.5 -77.5t-125.5 -26.5q-124 0 -195.5 67.5t-71.5 184.5q0 74 31.5 132.5t92 92t145.5 33.5q72 0 122.5 -27t89.5 -75l1 174h-125q-18 0 -28 7.5t-10 22.5q0 31 38 31h125
v86q0 19 9.5 29.5t27.5 10.5q17 0 26.5 -10.5t9.5 -29.5v-86h65q38 0 38 -31zM471 104.5q56 51.5 56 140.5q0 59 -28.5 102.5t-76 66.5t-103.5 23q-94 0 -147 -53.5t-53 -141.5q0 -94 52 -141.5t147 -47.5q97 0 153 51.5z" />
    <glyph glyph-name="uni1E0D" unicode="&#x1e0d;" horiz-adv-x="667" 
d="M114.5 57.5q-71.5 67.5 -71.5 184.5q0 74 31.5 132.5t92 92t145.5 33.5q72 0 122.5 -27t89.5 -75l1 321q0 19 9.5 29.5t27.5 10.5q17 0 26.5 -10.5t9.5 -29.5v-689q0 -19 -9.5 -29.5t-26.5 -10.5t-27 10.5t-10 29.5v64q-35 -51 -89.5 -77.5t-125.5 -26.5
q-124 0 -195.5 67.5zM469 104.5q56 51.5 56 140.5q0 59 -28.5 102.5t-76 66.5t-103.5 23q-94 0 -147 -53.5t-53 -141.5q0 -94 52 -141.5t147 -47.5q97 0 153 51.5zM288.5 -164.5q-15.5 14.5 -15.5 35.5q0 22 15.5 37t38.5 15q22 0 37 -15t15 -37q0 -21 -15 -35.5t-37 -14.5
q-23 0 -38.5 14.5z" />
    <glyph glyph-name="uni1E0F" unicode="&#x1e0f;" horiz-adv-x="667" 
d="M114.5 57.5q-71.5 67.5 -71.5 184.5q0 74 31.5 132.5t92 92t145.5 33.5q72 0 122.5 -27t89.5 -75l1 321q0 19 9.5 29.5t27.5 10.5q17 0 26.5 -10.5t9.5 -29.5v-689q0 -19 -9.5 -29.5t-26.5 -10.5t-27 10.5t-10 29.5v64q-35 -51 -89.5 -77.5t-125.5 -26.5
q-124 0 -195.5 67.5zM469 104.5q56 51.5 56 140.5q0 59 -28.5 102.5t-76 66.5t-103.5 23q-94 0 -147 -53.5t-53 -141.5q0 -94 52 -141.5t147 -47.5q97 0 153 51.5zM169 -114q0 16 9.5 21.5t26.5 5.5h245q18 0 27 -6t9 -21q0 -26 -36 -26h-245q-36 0 -36 26z" />
    <glyph glyph-name="e" unicode="e" horiz-adv-x="619" 
d="M114 57q-71 67 -71 190q0 118 72 185.5t197 67.5q77 0 137 -24.5t93.5 -69t33.5 -101.5q0 -42 -23.5 -65t-64.5 -23h-370q0 -77 52 -120.5t145 -43.5q57 0 98 12.5t77 40.5q19 16 31 16q9 0 17 -8q14 -12 14 -25q0 -10 -12 -22q-41 -39 -96 -58t-129 -19q-130 0 -201 67z
M466 276q18 0 27 7.5t9 27.5q0 36 -24 65t-67.5 45t-98.5 16q-89 0 -140.5 -43.5t-51.5 -117.5h346z" />
    <glyph glyph-name="eacute" unicode="&#xe9;" horiz-adv-x="633" 
d="M114 57q-71 67 -71 190q0 118 72 185.5t197 67.5q77 0 137 -24.5t93.5 -69t33.5 -101.5q0 -42 -23.5 -65t-64.5 -23h-370q0 -77 52 -120.5t145 -43.5q57 0 98 12.5t77 40.5q19 16 31 16q9 0 17 -8q14 -12 14 -25q0 -10 -12 -22q-41 -39 -96 -58t-129 -19q-130 0 -201 67z
M466 276q18 0 27 7.5t9 27.5q0 36 -24 65t-67.5 45t-98.5 16q-89 0 -140.5 -43.5t-51.5 -117.5h346zM293 580q0 7 3 13l62 141q12 28 33 28q10 0 19 -5q20 -10 20 -27q0 -9 -6 -20l-78 -138q-9 -17 -26 -17q-6 0 -12 3q-15 7 -15 22z" />
    <glyph glyph-name="ebreve" unicode="&#x115;" horiz-adv-x="633" 
d="M114 57q-71 67 -71 190q0 118 72 185.5t197 67.5q77 0 137 -24.5t93.5 -69t33.5 -101.5q0 -42 -23.5 -65t-64.5 -23h-370q0 -77 52 -120.5t145 -43.5q57 0 98 12.5t77 40.5q19 16 31 16q9 0 17 -8q14 -12 14 -25q0 -10 -12 -22q-41 -39 -96 -58t-129 -19q-130 0 -201 67z
M466 276q18 0 27 7.5t9 27.5q0 36 -24 65t-67.5 45t-98.5 16q-89 0 -140.5 -43.5t-51.5 -117.5h346zM199 597q-42 42 -42 105q0 39 35 39q33 0 33 -39q0 -42 22 -67t65 -25t64.5 25t21.5 67q0 39 34 39t34 -39q0 -63 -41.5 -105t-112.5 -42t-113 42z" />
    <glyph glyph-name="ecaron" unicode="&#x11b;" horiz-adv-x="633" 
d="M114 57q-71 67 -71 190q0 118 72 185.5t197 67.5q77 0 137 -24.5t93.5 -69t33.5 -101.5q0 -42 -23.5 -65t-64.5 -23h-370q0 -77 52 -120.5t145 -43.5q57 0 98 12.5t77 40.5q19 16 31 16q9 0 17 -8q14 -12 14 -25q0 -10 -12 -22q-41 -39 -96 -58t-129 -19q-130 0 -201 67z
M466 276q18 0 27 7.5t9 27.5q0 36 -24 65t-67.5 45t-98.5 16q-89 0 -140.5 -43.5t-51.5 -117.5h346zM284 570l-106 127q-10 13 -10 23q0 13 15 25q8 7 19 7q15 0 31 -20l83 -112l84 112q14 20 32 20q8 0 17 -6q15 -10 15 -26q0 -13 -10 -24l-105 -126q-14 -17 -33 -17
q-18 0 -32 17z" />
    <glyph glyph-name="ecircumflex" unicode="&#xea;" horiz-adv-x="633" 
d="M114 57q-71 67 -71 190q0 118 72 185.5t197 67.5q77 0 137 -24.5t93.5 -69t33.5 -101.5q0 -42 -23.5 -65t-64.5 -23h-370q0 -77 52 -120.5t145 -43.5q57 0 98 12.5t77 40.5q19 16 31 16q9 0 17 -8q14 -12 14 -25q0 -10 -12 -22q-41 -39 -96 -58t-129 -19q-130 0 -201 67z
M466 276q18 0 27 7.5t9 27.5q0 36 -24 65t-67.5 45t-98.5 16q-89 0 -140.5 -43.5t-51.5 -117.5h346zM168 586q0 10 10 23l106 126q14 17 32 17q19 0 33 -17l105 -126q10 -13 10 -23q0 -14 -14 -25q-10 -7 -20 -7q-15 0 -30 19l-84 112l-83 -112q-15 -20 -32 -20q-8 0 -18 7
q-15 12 -15 26z" />
    <glyph glyph-name="uni1EBF" unicode="&#x1ebf;" horiz-adv-x="633" 
d="M114 57q-71 67 -71 190q0 118 72 185.5t197 67.5q77 0 137 -24.5t93.5 -69t33.5 -101.5q0 -42 -23.5 -65t-64.5 -23h-370q0 -77 52 -120.5t145 -43.5q57 0 98 12.5t77 40.5q19 16 31 16q9 0 17 -8q14 -12 14 -25q0 -10 -12 -22q-41 -39 -96 -58t-129 -19q-130 0 -201 67z
M466 276q18 0 27 7.5t9 27.5q0 36 -24 65t-67.5 45t-98.5 16q-89 0 -140.5 -43.5t-51.5 -117.5h346zM402 719q0 8 5 16l62 103q12 21 31 21q9 0 20 -6q15 -9 15 -24q0 -12 -8 -22l-77 -98q-12 -14 -23 -14q-6 0 -14 5q-11 6 -11 19zM168 586q0 12 10 22l106 112q9 9 15.5 13
t16.5 4t16.5 -4t15.5 -13l106 -111q10 -10 10 -23q0 -15 -15 -26q-9 -6 -17 -6q-16 0 -32 19l-84 97l-84 -98q-17 -19 -31 -19q-8 0 -18 7q-15 12 -15 26z" />
    <glyph glyph-name="uni1EC7" unicode="&#x1ec7;" horiz-adv-x="633" 
d="M114 57q-71 67 -71 190q0 118 72 185.5t197 67.5q77 0 137 -24.5t93.5 -69t33.5 -101.5q0 -42 -23.5 -65t-64.5 -23h-370q0 -77 52 -120.5t145 -43.5q57 0 98 12.5t77 40.5q19 16 31 16q9 0 17 -8q14 -12 14 -25q0 -10 -12 -22q-41 -39 -96 -58t-129 -19q-130 0 -201 67z
M466 276q18 0 27 7.5t9 27.5q0 36 -24 65t-67.5 45t-98.5 16q-89 0 -140.5 -43.5t-51.5 -117.5h346zM277.5 -164.5q-15.5 14.5 -15.5 35.5q0 22 15.5 37t38.5 15q22 0 37 -15t15 -37q0 -21 -15 -35.5t-37 -14.5q-23 0 -38.5 14.5zM168 586q0 10 10 23l106 126q14 17 32 17
q19 0 33 -17l105 -126q10 -13 10 -23q0 -14 -14 -25q-10 -7 -20 -7q-15 0 -30 19l-84 112l-83 -112q-15 -20 -32 -20q-8 0 -18 7q-15 12 -15 26z" />
    <glyph glyph-name="uni1EC1" unicode="&#x1ec1;" horiz-adv-x="633" 
d="M114 57q-71 67 -71 190q0 118 72 185.5t197 67.5q77 0 137 -24.5t93.5 -69t33.5 -101.5q0 -42 -23.5 -65t-64.5 -23h-370q0 -77 52 -120.5t145 -43.5q57 0 98 12.5t77 40.5q19 16 31 16q9 0 17 -8q14 -12 14 -25q0 -10 -12 -22q-41 -39 -96 -58t-129 -19q-130 0 -201 67z
M466 276q18 0 27 7.5t9 27.5q0 36 -24 65t-67.5 45t-98.5 16q-89 0 -140.5 -43.5t-51.5 -117.5h346zM462 695q-11 0 -23 14l-77 98q-8 10 -8 21q0 16 17 26q10 5 18 5q19 0 32 -21l61 -103q5 -10 5 -17q0 -11 -12 -19q-5 -4 -13 -4zM168 586q0 12 10 22l106 112q9 9 15.5 13
t16.5 4q16 0 32 -17l106 -111q10 -10 10 -23q0 -15 -15 -26q-9 -6 -17 -6q-16 0 -32 19l-84 97l-84 -98q-17 -19 -31 -19q-8 0 -18 7q-15 12 -15 26z" />
    <glyph glyph-name="uni1EC3" unicode="&#x1ec3;" horiz-adv-x="633" 
d="M114 57q-71 67 -71 190q0 118 72 185.5t197 67.5q77 0 137 -24.5t93.5 -69t33.5 -101.5q0 -42 -23.5 -65t-64.5 -23h-370q0 -77 52 -120.5t145 -43.5q57 0 98 12.5t77 40.5q19 16 31 16q9 0 17 -8q14 -12 14 -25q0 -10 -12 -22q-41 -39 -96 -58t-129 -19q-130 0 -201 67z
M466 276q18 0 27 7.5t9 27.5q0 36 -24 65t-67.5 45t-98.5 16q-89 0 -140.5 -43.5t-51.5 -117.5h346zM394 715v8q0 15 9 26t27 26q14 10 21 18t7 18q0 13 -9 21t-26 8q-16 0 -27 -5t-20 -16q-10 -12 -20 -12q-6 0 -13 4q-13 8 -13 18q0 6 5 14q13 20 36.5 32t56.5 12
q45 0 66.5 -20t21.5 -51q0 -19 -9 -31t-27 -27q-13 -10 -19.5 -18t-6.5 -18v-7q0 -25 -30 -25t-30 25zM168 586q0 12 10 22l106 112q9 9 15.5 13t16.5 4q16 0 32 -17l106 -111q10 -10 10 -23q0 -15 -15 -26q-9 -6 -17 -6q-16 0 -32 19l-84 97l-84 -98q-17 -19 -31 -19
q-8 0 -18 7q-15 12 -15 26z" />
    <glyph glyph-name="uni1EC5" unicode="&#x1ec5;" horiz-adv-x="633" 
d="M114 57q-71 67 -71 190q0 118 72 185.5t197 67.5q77 0 137 -24.5t93.5 -69t33.5 -101.5q0 -42 -23.5 -65t-64.5 -23h-370q0 -77 52 -120.5t145 -43.5q57 0 98 12.5t77 40.5q19 16 31 16q9 0 17 -8q14 -12 14 -25q0 -10 -12 -22q-41 -39 -96 -58t-129 -19q-130 0 -201 67z
M466 276q18 0 27 7.5t9 27.5q0 36 -24 65t-67.5 45t-98.5 16q-89 0 -140.5 -43.5t-51.5 -117.5h346zM161 776q0 3 2 13q8 33 32.5 53t57.5 20q23 0 41 -8.5t41 -23.5q16 -12 27.5 -17.5t22.5 -5.5q31 0 44 40q7 21 23 21q28 0 28 -23q0 -4 -2 -14q-8 -31 -32 -52t-58 -21
q-21 0 -38 8t-37 22q-19 12 -30.5 18t-26.5 6t-26.5 -10t-16.5 -27q-7 -23 -23 -23l-12 2q-17 5 -17 22zM168 586q0 13 10 23l105 112q16 17 32 17q20 0 32 -17l106 -112q10 -10 10 -23q0 -14 -14 -25q-8 -7 -19 -7q-15 0 -31 19l-84 98l-83 -98q-16 -19 -31 -19q-9 0 -20 8
q-13 9 -13 24z" />
    <glyph glyph-name="edieresis" unicode="&#xeb;" horiz-adv-x="633" 
d="M114 57q-71 67 -71 190q0 118 72 185.5t197 67.5q77 0 137 -24.5t93.5 -69t33.5 -101.5q0 -42 -23.5 -65t-64.5 -23h-370q0 -77 52 -120.5t145 -43.5q57 0 98 12.5t77 40.5q19 16 31 16q9 0 17 -8q14 -12 14 -25q0 -10 -12 -22q-41 -39 -96 -58t-129 -19q-130 0 -201 67z
M466 276q18 0 27 7.5t9 27.5q0 36 -24 65t-67.5 45t-98.5 16q-89 0 -140.5 -43.5t-51.5 -117.5h346zM177 589.5q-15 14.5 -15 34.5q0 21 15 35.5t36 14.5q20 0 34.5 -15t14.5 -35t-14.5 -34.5t-34.5 -14.5q-21 0 -36 14.5zM384 589.5q-15 14.5 -15 34.5t15 35t36 15
q20 0 35 -15t15 -35t-15 -34.5t-35 -14.5q-21 0 -36 14.5z" />
    <glyph glyph-name="edotaccent" unicode="&#x117;" horiz-adv-x="633" 
d="M114 57q-71 67 -71 190q0 118 72 185.5t197 67.5q77 0 137 -24.5t93.5 -69t33.5 -101.5q0 -42 -23.5 -65t-64.5 -23h-370q0 -77 52 -120.5t145 -43.5q57 0 98 12.5t77 40.5q19 16 31 16q9 0 17 -8q14 -12 14 -25q0 -10 -12 -22q-41 -39 -96 -58t-129 -19q-130 0 -201 67z
M466 276q18 0 27 7.5t9 27.5q0 36 -24 65t-67.5 45t-98.5 16q-89 0 -140.5 -43.5t-51.5 -117.5h346zM278 587.5q-16 15.5 -16 35.5q0 21 16 36.5t38 15.5q21 0 36.5 -15.5t15.5 -36.5q0 -20 -15.5 -35.5t-36.5 -15.5q-22 0 -38 15.5z" />
    <glyph glyph-name="uni1EB9" unicode="&#x1eb9;" horiz-adv-x="633" 
d="M114 57q-71 67 -71 190q0 118 72 185.5t197 67.5q77 0 137 -24.5t93.5 -69t33.5 -101.5q0 -42 -23.5 -65t-64.5 -23h-370q0 -77 52 -120.5t145 -43.5q57 0 98 12.5t77 40.5q19 16 31 16q9 0 17 -8q14 -12 14 -25q0 -10 -12 -22q-41 -39 -96 -58t-129 -19q-130 0 -201 67z
M466 276q18 0 27 7.5t9 27.5q0 36 -24 65t-67.5 45t-98.5 16q-89 0 -140.5 -43.5t-51.5 -117.5h346zM277.5 -164.5q-15.5 14.5 -15.5 35.5q0 22 15.5 37t38.5 15q22 0 37 -15t15 -37q0 -21 -15 -35.5t-37 -14.5q-23 0 -38.5 14.5z" />
    <glyph glyph-name="egrave" unicode="&#xe8;" horiz-adv-x="633" 
d="M114 57q-71 67 -71 190q0 118 72 185.5t197 67.5q77 0 137 -24.5t93.5 -69t33.5 -101.5q0 -42 -23.5 -65t-64.5 -23h-370q0 -77 52 -120.5t145 -43.5q57 0 98 12.5t77 40.5q19 16 31 16q9 0 17 -8q14 -12 14 -25q0 -10 -12 -22q-41 -39 -96 -58t-129 -19q-130 0 -201 67z
M466 276q18 0 27 7.5t9 27.5q0 36 -24 65t-67.5 45t-98.5 16q-89 0 -140.5 -43.5t-51.5 -117.5h346zM322 555q-17 0 -26 17l-78 138q-6 11 -6 20q0 17 20 27q9 5 19 5q21 0 33 -28l62 -141q3 -7 3 -14q0 -14 -15 -21q-6 -3 -12 -3z" />
    <glyph glyph-name="uni1EBB" unicode="&#x1ebb;" horiz-adv-x="633" 
d="M114 57q-71 67 -71 190q0 118 72 185.5t197 67.5q77 0 137 -24.5t93.5 -69t33.5 -101.5q0 -42 -23.5 -65t-64.5 -23h-370q0 -77 52 -120.5t145 -43.5q57 0 98 12.5t77 40.5q19 16 31 16q9 0 17 -8q14 -12 14 -25q0 -10 -12 -22q-41 -39 -96 -58t-129 -19q-130 0 -201 67z
M466 276q18 0 27 7.5t9 27.5q0 36 -24 65t-67.5 45t-98.5 16q-89 0 -140.5 -43.5t-51.5 -117.5h346zM284 556v8q0 17 10 29.5t29 27.5q17 14 24 21.5t7 18.5q0 15 -9.5 23.5t-28.5 8.5q-34 0 -54 -26q-10 -13 -23 -13q-6 0 -13 3q-15 9 -15 21q0 6 5 14q14 22 42 37.5
t64 15.5q48 0 73 -22.5t25 -56.5q0 -21 -10.5 -34.5t-30.5 -28.5q-16 -13 -22.5 -20.5t-6.5 -18.5v-8q0 -28 -34 -28q-32 0 -32 28z" />
    <glyph glyph-name="emacron" unicode="&#x113;" horiz-adv-x="633" 
d="M114 57q-71 67 -71 190q0 118 72 185.5t197 67.5q77 0 137 -24.5t93.5 -69t33.5 -101.5q0 -42 -23.5 -65t-64.5 -23h-370q0 -77 52 -120.5t145 -43.5q57 0 98 12.5t77 40.5q19 16 31 16q9 0 17 -8q14 -12 14 -25q0 -10 -12 -22q-41 -39 -96 -58t-129 -19q-130 0 -201 67z
M466 276q18 0 27 7.5t9 27.5q0 36 -24 65t-67.5 45t-98.5 16q-89 0 -140.5 -43.5t-51.5 -117.5h346zM157 584q0 16 9.5 21.5t26.5 5.5h245q18 0 27 -6t9 -21q0 -26 -36 -26h-245q-36 0 -36 26z" />
    <glyph glyph-name="eogonek" unicode="&#x119;" horiz-adv-x="633" 
d="M552.5 240q-23.5 -23 -64.5 -23h-370q0 -77 52 -120.5t145 -43.5q57 0 98 12.5t77 40.5q19 16 31 16q9 0 17 -8q14 -12 14 -25q0 -10 -12 -22q-66 -63 -176 -75q-40 -33 -56.5 -54.5t-16.5 -50.5q0 -18 13.5 -29.5t36.5 -11.5q31 0 53 20q8 8 18 8q9 0 16 -7q8 -8 8 -17
q0 -10 -10 -20q-19 -19 -40 -27.5t-49 -8.5q-49 0 -78.5 24.5t-29.5 64.5q0 55 55 108q-116 8 -178.5 74.5t-62.5 181.5q0 118 72 185.5t197 67.5q77 0 137 -24.5t93.5 -69t33.5 -101.5q0 -42 -23.5 -65zM466 276q18 0 27 7.5t9 27.5q0 36 -24 65t-67.5 45t-98.5 16
q-89 0 -140.5 -43.5t-51.5 -117.5h346z" />
    <glyph glyph-name="uni1EBD" unicode="&#x1ebd;" horiz-adv-x="633" 
d="M114 57q-71 67 -71 190q0 118 72 185.5t197 67.5q77 0 137 -24.5t93.5 -69t33.5 -101.5q0 -42 -23.5 -65t-64.5 -23h-370q0 -77 52 -120.5t145 -43.5q57 0 98 12.5t77 40.5q19 16 31 16q9 0 17 -8q14 -12 14 -25q0 -10 -12 -22q-41 -39 -96 -58t-129 -19q-130 0 -201 67z
M466 276q18 0 27 7.5t9 27.5q0 36 -24 65t-67.5 45t-98.5 16q-89 0 -140.5 -43.5t-51.5 -117.5h346zM148 598q0 9 2 15q9 34 33.5 56t60.5 22q24 0 42.5 -8.5t43.5 -24.5q17 -12 28.5 -18t24.5 -6q34 0 46 42q7 21 25 21q14 0 21.5 -6.5t7.5 -18.5l-2 -12q-10 -36 -35 -57.5
t-60 -21.5q-23 0 -39.5 8t-39.5 23q-19 13 -32 19.5t-28 6.5q-32 0 -45 -41q-8 -22 -25 -22q-29 0 -29 23z" />
    <glyph glyph-name="uni0259" unicode="&#x259;" horiz-adv-x="633" 
d="M176 16q-61 25 -95 69.5t-34 101.5q0 41 23 64t65 23h377q0 76 -53 119.5t-147 43.5q-58 0 -98.5 -14t-78.5 -45q-19 -15 -30 -15q-8 0 -18 8q-13 12 -13 24q0 11 11 22q83 83 227 83q131 0 203 -67t72 -189q0 -77 -33 -134.5t-94.5 -88t-144.5 -30.5q-78 0 -139 25z
M417 74.5q44 20.5 68.5 57t24.5 83.5h-353q-19 0 -28 -7.5t-9 -27.5q0 -37 24.5 -65.5t69 -44.5t101.5 -16q58 0 102 20.5z" />
    <glyph glyph-name="f" unicode="f" horiz-adv-x="448" 
d="M412 672q0 -13 -11 -24q-10 -8 -19 -8q-13 0 -35 13q-36 21 -77 21q-74 0 -74 -80v-104h142q39 0 39 -31q0 -14 -10 -22t-29 -8h-142v-399q0 -19 -9.5 -29.5t-26.5 -10.5t-27 10.5t-10 29.5v399h-48q-19 0 -29.5 8t-10.5 22q0 31 40 31h48v100q0 67 39.5 107.5
t104.5 40.5q41 0 76 -11.5t59 -32.5q10 -9 10 -22z" />
    <glyph glyph-name="g" unicode="g" horiz-adv-x="662" 
d="M199 -230q-58 21 -94 61q-8 8 -8 20q0 15 16 26q10 7 19 7q15 0 30 -16q24 -26 64 -42t96 -16q98 0 150 47t52 136v94q-34 -45 -89 -73.5t-128 -28.5q-127 0 -196 68t-69 182q0 77 30.5 136.5t91.5 94t150 34.5q66 0 119 -27t91 -77v66q0 16 10.5 27t26.5 11t26 -10.5
t10 -27.5v-469q0 -75 -33.5 -130t-94.5 -84.5t-140 -29.5q-72 0 -130 21zM415.5 71q47.5 21 77.5 64.5t30 106.5q0 56 -24 100t-70 69.5t-110 25.5q-97 0 -150 -52.5t-53 -149.5q0 -86 50.5 -135.5t147.5 -49.5q54 0 101.5 21z" />
    <glyph glyph-name="gbreve" unicode="&#x11f;" horiz-adv-x="662" 
d="M199 -230q-58 21 -94 61q-8 8 -8 20q0 15 16 26q10 7 19 7q15 0 30 -16q24 -26 64 -42t96 -16q98 0 150 47t52 136v94q-34 -45 -89 -73.5t-128 -28.5q-127 0 -196 68t-69 182q0 77 30.5 136.5t91.5 94t150 34.5q66 0 119 -27t91 -77v66q0 16 10.5 27t26.5 11t26 -10.5
t10 -27.5v-469q0 -75 -33.5 -130t-94.5 -84.5t-140 -29.5q-72 0 -130 21zM415.5 71q47.5 21 77.5 64.5t30 106.5q0 56 -24 100t-70 69.5t-110 25.5q-97 0 -150 -52.5t-53 -149.5q0 -86 50.5 -135.5t147.5 -49.5q54 0 101.5 21zM192 617q-42 42 -42 105q0 39 35 39
q33 0 33 -39q0 -42 22 -67t65 -25t64.5 25t21.5 67q0 39 34 39t34 -39q0 -63 -41.5 -105t-112.5 -42t-113 42z" />
    <glyph glyph-name="gcaron" unicode="&#x1e7;" horiz-adv-x="662" 
d="M199 -230q-58 21 -94 61q-8 8 -8 20q0 15 16 26q10 7 19 7q15 0 30 -16q24 -26 64 -42t96 -16q98 0 150 47t52 136v94q-34 -45 -89 -73.5t-128 -28.5q-127 0 -196 68t-69 182q0 77 30.5 136.5t91.5 94t150 34.5q66 0 119 -27t91 -77v66q0 16 10.5 27t26.5 11t26 -10.5
t10 -27.5v-469q0 -75 -33.5 -130t-94.5 -84.5t-140 -29.5q-72 0 -130 21zM415.5 71q47.5 21 77.5 64.5t30 106.5q0 56 -24 100t-70 69.5t-110 25.5q-97 0 -150 -52.5t-53 -149.5q0 -86 50.5 -135.5t147.5 -49.5q54 0 101.5 21zM276 590l-106 127q-10 13 -10 23q0 13 15 25
q8 7 19 7q15 0 31 -20l83 -112l84 112q14 20 32 20q8 0 17 -6q15 -10 15 -26q0 -13 -10 -24l-105 -126q-14 -17 -33 -17q-18 0 -32 17z" />
    <glyph glyph-name="gcircumflex" unicode="&#x11d;" horiz-adv-x="662" 
d="M199 -230q-58 21 -94 61q-8 8 -8 20q0 15 16 26q10 7 19 7q15 0 30 -16q24 -26 64 -42t96 -16q98 0 150 47t52 136v94q-34 -45 -89 -73.5t-128 -28.5q-127 0 -196 68t-69 182q0 77 30.5 136.5t91.5 94t150 34.5q66 0 119 -27t91 -77v66q0 16 10.5 27t26.5 11t26 -10.5
t10 -27.5v-469q0 -75 -33.5 -130t-94.5 -84.5t-140 -29.5q-72 0 -130 21zM415.5 71q47.5 21 77.5 64.5t30 106.5q0 56 -24 100t-70 69.5t-110 25.5q-97 0 -150 -52.5t-53 -149.5q0 -86 50.5 -135.5t147.5 -49.5q54 0 101.5 21zM160 606q0 10 10 23l106 126q14 17 32 17
q19 0 33 -17l105 -126q10 -13 10 -23q0 -14 -14 -25q-10 -7 -20 -7q-15 0 -30 19l-84 112l-83 -112q-15 -20 -32 -20q-8 0 -18 7q-15 12 -15 26z" />
    <glyph glyph-name="uni0123" unicode="&#x123;" horiz-adv-x="662" 
d="M199 -230q-58 21 -94 61q-8 8 -8 20q0 15 16 26q10 7 19 7q15 0 30 -16q24 -26 64 -42t96 -16q98 0 150 47t52 136v94q-34 -45 -89 -73.5t-128 -28.5q-127 0 -196 68t-69 182q0 77 30.5 136.5t91.5 94t150 34.5q66 0 119 -27t91 -77v66q0 16 10.5 27t26.5 11t26 -10.5
t10 -27.5v-469q0 -75 -33.5 -130t-94.5 -84.5t-140 -29.5q-72 0 -130 21zM415.5 71q47.5 21 77.5 64.5t30 106.5q0 56 -24 100t-70 69.5t-110 25.5q-97 0 -150 -52.5t-53 -149.5q0 -86 50.5 -135.5t147.5 -49.5q54 0 101.5 21zM254 584q-17 20 -17 54t20.5 69.5t56.5 64.5
q25 20 36 20q9 0 15 -9q5 -7 5 -12q0 -10 -16 -24q-52 -46 -55 -78q8 2 13 2q21 0 36 -14.5t15 -35.5q0 -27 -17 -42t-46 -15t-46 20z" />
    <glyph glyph-name="gdotaccent" unicode="&#x121;" horiz-adv-x="662" 
d="M199 -230q-58 21 -94 61q-8 8 -8 20q0 15 16 26q10 7 19 7q15 0 30 -16q24 -26 64 -42t96 -16q98 0 150 47t52 136v94q-34 -45 -89 -73.5t-128 -28.5q-127 0 -196 68t-69 182q0 77 30.5 136.5t91.5 94t150 34.5q66 0 119 -27t91 -77v66q0 16 10.5 27t26.5 11t26 -10.5
t10 -27.5v-469q0 -75 -33.5 -130t-94.5 -84.5t-140 -29.5q-72 0 -130 21zM415.5 71q47.5 21 77.5 64.5t30 106.5q0 56 -24 100t-70 69.5t-110 25.5q-97 0 -150 -52.5t-53 -149.5q0 -86 50.5 -135.5t147.5 -49.5q54 0 101.5 21zM270 607.5q-16 15.5 -16 35.5q0 21 16 36.5
t38 15.5q21 0 36.5 -15.5t15.5 -36.5q0 -20 -15.5 -35.5t-36.5 -15.5q-22 0 -38 15.5z" />
    <glyph glyph-name="uni1E21" unicode="&#x1e21;" horiz-adv-x="662" 
d="M199 -230q-58 21 -94 61q-8 8 -8 20q0 15 16 26q10 7 19 7q15 0 30 -16q24 -26 64 -42t96 -16q98 0 150 47t52 136v94q-34 -45 -89 -73.5t-128 -28.5q-127 0 -196 68t-69 182q0 77 30.5 136.5t91.5 94t150 34.5q66 0 119 -27t91 -77v66q0 16 10.5 27t26.5 11t26 -10.5
t10 -27.5v-469q0 -75 -33.5 -130t-94.5 -84.5t-140 -29.5q-72 0 -130 21zM415.5 71q47.5 21 77.5 64.5t30 106.5q0 56 -24 100t-70 69.5t-110 25.5q-97 0 -150 -52.5t-53 -149.5q0 -86 50.5 -135.5t147.5 -49.5q54 0 101.5 21zM149 604q0 16 9.5 21.5t26.5 5.5h245
q18 0 27 -6t9 -21q0 -26 -36 -26h-245q-36 0 -36 26z" />
    <glyph glyph-name="h" unicode="h" horiz-adv-x="611" 
d="M80.5 0.5q-9.5 10.5 -9.5 29.5v689q0 19 9.5 29.5t26.5 10.5t27 -10.5t10 -29.5v-318q37 49 89.5 74t114.5 25q95 0 146.5 -53t51.5 -152v-265q0 -19 -10 -29.5t-27 -10.5q-18 0 -27 10.5t-9 29.5v265q0 142 -134 142q-88 0 -141.5 -52t-53.5 -138v-217q0 -18 -9.5 -29
t-27.5 -11q-17 0 -26.5 10.5z" />
    <glyph glyph-name="hbar" unicode="&#x127;" horiz-adv-x="672" 
d="M555.5 447q51.5 -53 51.5 -152v-265q0 -19 -10 -29.5t-27 -10.5q-18 0 -27 10.5t-9 29.5v265q0 142 -134 142q-88 0 -141.5 -52t-53.5 -138v-217q0 -18 -9.5 -29t-27.5 -11q-17 0 -26.5 10.5t-9.5 29.5v547h-57q-38 0 -38 30q0 31 38 31h57v81q0 19 9.5 29.5t26.5 10.5
t27 -10.5t10 -29.5v-81h112q38 0 38 -31q0 -30 -38 -30h-112v-176q37 49 89.5 74t114.5 25q95 0 146.5 -53z" />
    <glyph glyph-name="uni1E2B" unicode="&#x1e2b;" horiz-adv-x="611" 
d="M80.5 0.5q-9.5 10.5 -9.5 29.5v689q0 19 9.5 29.5t26.5 10.5t27 -10.5t10 -29.5v-318q37 49 89.5 74t114.5 25q95 0 146.5 -53t51.5 -152v-265q0 -19 -10 -29.5t-27 -10.5q-18 0 -27 10.5t-9 29.5v265q0 142 -134 142q-88 0 -141.5 -52t-53.5 -138v-217q0 -18 -9.5 -29
t-27.5 -11q-17 0 -26.5 10.5zM198 -213.5q-41 40.5 -41 101.5q0 39 33 39q17 0 24.5 -9.5t7.5 -29.5q0 -40 22.5 -64.5t65.5 -24.5t65 24.5t22 64.5q0 20 7.5 29.5t24.5 9.5q33 0 33 -39q0 -61 -40.5 -101.5t-111.5 -40.5t-112 40.5z" />
    <glyph glyph-name="hcircumflex" unicode="&#x125;" horiz-adv-x="611" 
d="M80.5 0.5q-9.5 10.5 -9.5 29.5v689q0 19 9.5 29.5t26.5 10.5t27 -10.5t10 -29.5v-318q37 49 89.5 74t114.5 25q95 0 146.5 -53t51.5 -152v-265q0 -19 -10 -29.5t-27 -10.5q-18 0 -27 10.5t-9 29.5v265q0 142 -134 142q-88 0 -141.5 -52t-53.5 -138v-217q0 -18 -9.5 -29
t-27.5 -11q-17 0 -26.5 10.5zM69 866q0 10 10 23l106 126q14 17 32 17q19 0 33 -17l105 -126q10 -13 10 -23q0 -14 -14 -25q-10 -7 -20 -7q-15 0 -30 19l-84 112l-83 -112q-15 -20 -32 -20q-8 0 -18 7q-15 12 -15 26z" />
    <glyph glyph-name="uni1E25" unicode="&#x1e25;" horiz-adv-x="611" 
d="M80.5 0.5q-9.5 10.5 -9.5 29.5v689q0 19 9.5 29.5t26.5 10.5t27 -10.5t10 -29.5v-318q37 49 89.5 74t114.5 25q95 0 146.5 -53t51.5 -152v-265q0 -19 -10 -29.5t-27 -10.5q-18 0 -27 10.5t-9 29.5v265q0 142 -134 142q-88 0 -141.5 -52t-53.5 -138v-217q0 -18 -9.5 -29
t-27.5 -11q-17 0 -26.5 10.5zM270.5 -164.5q-15.5 14.5 -15.5 35.5q0 22 15.5 37t38.5 15q22 0 37 -15t15 -37q0 -21 -15 -35.5t-37 -14.5q-23 0 -38.5 14.5z" />
    <glyph glyph-name="i" unicode="i" horiz-adv-x="250" 
d="M86.5 620.5q-15.5 14.5 -15.5 35.5t15.5 36t37.5 15t38.5 -15.5t16.5 -35.5t-16.5 -35t-38.5 -15t-37.5 14.5zM97.5 0.5q-9.5 10.5 -9.5 29.5v430q0 19 9.5 29.5t26.5 10.5q18 0 27.5 -10.5t9.5 -29.5v-430q0 -19 -9.5 -29.5t-27.5 -10.5q-17 0 -26.5 10.5z" />
    <glyph glyph-name="dotlessi" unicode="&#x131;" horiz-adv-x="250" 
d="M98.5 0.5q-9.5 10.5 -9.5 29.5v430q0 19 9.5 29.5t26.5 10.5q18 0 27.5 -11t9.5 -29v-430q0 -18 -9.5 -29t-27.5 -11q-17 0 -26.5 10.5z" />
    <glyph glyph-name="iacute" unicode="&#xed;" horiz-adv-x="250" 
d="M98.5 0.5q-9.5 10.5 -9.5 29.5v430q0 19 9.5 29.5t26.5 10.5q18 0 27.5 -11t9.5 -29v-430q0 -18 -9.5 -29t-27.5 -11q-17 0 -26.5 10.5zM101 580q0 7 3 13l62 141q12 28 33 28q10 0 19 -5q20 -10 20 -27q0 -9 -6 -20l-78 -138q-9 -17 -26 -17q-6 0 -12 3q-15 7 -15 22z
" />
    <glyph glyph-name="ibreve" unicode="&#x12d;" horiz-adv-x="250" 
d="M98.5 0.5q-9.5 10.5 -9.5 29.5v430q0 19 9.5 29.5t26.5 10.5q18 0 27.5 -11t9.5 -29v-430q0 -18 -9.5 -29t-27.5 -11q-17 0 -26.5 10.5zM13 597q-42 42 -42 105q0 39 34 39t34 -39q0 -42 22 -67t65 -25t64.5 25t21.5 67q0 39 34 39t34 -39q0 -63 -41.5 -105t-112.5 -42
t-113 42z" />
    <glyph glyph-name="uni01D0" unicode="&#x1d0;" horiz-adv-x="250" 
d="M98.5 0.5q-9.5 10.5 -9.5 29.5v430q0 19 9.5 29.5t26.5 10.5q18 0 27.5 -11t9.5 -29v-430q0 -18 -9.5 -29t-27.5 -11q-17 0 -26.5 10.5zM94 570l-106 127q-10 13 -10 23q0 13 15 25q8 7 19 7q15 0 31 -20l83 -112l84 112q14 20 32 20q8 0 17 -6q15 -10 15 -26
q0 -13 -10 -24l-105 -126q-14 -17 -33 -17q-18 0 -32 17z" />
    <glyph glyph-name="icircumflex" unicode="&#xee;" horiz-adv-x="250" 
d="M98.5 0.5q-9.5 10.5 -9.5 29.5v430q0 19 9.5 29.5t26.5 10.5q18 0 27.5 -11t9.5 -29v-430q0 -18 -9.5 -29t-27.5 -11q-17 0 -26.5 10.5zM-22 586q0 10 10 23l106 126q14 17 32 17t32 -17l106 -126q10 -12 10 -23q0 -14 -14 -25q-10 -7 -20 -7q-15 0 -30 19l-84 112
l-84 -112q-15 -20 -31 -20q-7 0 -18 7q-15 12 -15 26z" />
    <glyph glyph-name="idieresis" unicode="&#xef;" horiz-adv-x="250" 
d="M98.5 0.5q-9.5 10.5 -9.5 29.5v430q0 19 9.5 29.5t26.5 10.5q18 0 27.5 -11t9.5 -29v-430q0 -18 -9.5 -29t-27.5 -11q-17 0 -26.5 10.5zM-12 589.5q-15 14.5 -15 34.5q0 21 14.5 35.5t36.5 14.5q20 0 34.5 -15t14.5 -35t-14.5 -34.5t-34.5 -14.5q-21 0 -36 14.5z
M195 589.5q-15 14.5 -15 34.5t15 35t36 15q20 0 35 -15t15 -35t-15 -34.5t-35 -14.5q-21 0 -36 14.5z" />
    <glyph glyph-name="uni1ECB" unicode="&#x1ecb;" horiz-adv-x="250" 
d="M86.5 620.5q-15.5 14.5 -15.5 35.5t15.5 36t37.5 15t38.5 -15.5t16.5 -35.5t-16.5 -35t-38.5 -15t-37.5 14.5zM97.5 0.5q-9.5 10.5 -9.5 29.5v430q0 19 9.5 29.5t26.5 10.5q18 0 27.5 -10.5t9.5 -29.5v-430q0 -19 -9.5 -29.5t-27.5 -10.5q-17 0 -26.5 10.5zM86.5 -164.5
q-15.5 14.5 -15.5 35.5q0 22 15.5 37t38.5 15q22 0 37 -15t15 -37q0 -21 -15 -35.5t-37 -14.5q-23 0 -38.5 14.5z" />
    <glyph glyph-name="igrave" unicode="&#xec;" horiz-adv-x="250" 
d="M98.5 0.5q-9.5 10.5 -9.5 29.5v430q0 19 9.5 29.5t26.5 10.5q18 0 27.5 -11t9.5 -29v-430q0 -18 -9.5 -29t-27.5 -11q-17 0 -26.5 10.5zM126 555q-17 0 -26 17l-78 138q-6 11 -6 20q0 17 20 27q9 5 19 5q21 0 33 -28l62 -141q3 -7 3 -14q0 -14 -15 -21q-6 -3 -12 -3z" />
    <glyph glyph-name="uni1EC9" unicode="&#x1ec9;" horiz-adv-x="250" 
d="M98.5 0.5q-9.5 10.5 -9.5 29.5v430q0 19 9.5 29.5t26.5 10.5q18 0 27.5 -11t9.5 -29v-430q0 -18 -9.5 -29t-27.5 -11q-17 0 -26.5 10.5zM94 556v8q0 17 10 29.5t29 27.5q17 14 24 21.5t7 18.5q0 15 -9.5 23.5t-28.5 8.5q-34 0 -54 -26q-10 -13 -23 -13q-6 0 -13 3
q-15 9 -15 21q0 6 5 14q14 22 42 37.5t64 15.5q48 0 73 -22.5t25 -56.5q0 -21 -10.5 -34.5t-30.5 -28.5q-16 -13 -22.5 -20.5t-6.5 -18.5v-8q0 -28 -34 -28q-32 0 -32 28z" />
    <glyph glyph-name="ij" unicode="&#x133;" horiz-adv-x="482" 
d="M86.5 591q-15.5 15 -15.5 36t15.5 36t37.5 15t38.5 -15.5t16.5 -35.5t-16.5 -35.5t-38.5 -15.5t-37.5 15zM316.5 591q-15.5 15 -15.5 36t15.5 36t37.5 15t38.5 -15t16.5 -36t-16.5 -36t-38.5 -15t-37.5 15zM97.5 0.5q-9.5 10.5 -9.5 29.5v430q0 19 9.5 29.5t26.5 10.5
q18 0 27.5 -10.5t9.5 -29.5v-430q0 -19 -9.5 -29.5t-27.5 -10.5q-17 0 -26.5 10.5zM191 -282.5q-10 9.5 -10 23.5t10.5 22.5t25.5 8.5q43 0 64.5 11t29 34.5t7.5 66.5v576q0 40 37 40q17 0 26.5 -10.5t9.5 -29.5v-576q0 -91 -42 -133.5t-132 -42.5q-16 0 -26 9.5z" />
    <glyph glyph-name="imacron" unicode="&#x12b;" horiz-adv-x="250" 
d="M98.5 0.5q-9.5 10.5 -9.5 29.5v430q0 19 9.5 29.5t26.5 10.5q18 0 27.5 -11t9.5 -29v-430q0 -18 -9.5 -29t-27.5 -11q-17 0 -26.5 10.5zM-32 570q0 15 9 20.5t27 5.5h245q17 0 26.5 -5t9.5 -21q0 -26 -36 -26h-245q-36 0 -36 26z" />
    <glyph glyph-name="iogonek" unicode="&#x12f;" horiz-adv-x="250" 
d="M86.5 620.5q-15.5 14.5 -15.5 35.5t15.5 36t37.5 15t38.5 -15.5t16.5 -35.5t-16.5 -35t-38.5 -15t-37.5 14.5zM210 -150q0 -10 -10 -20q-19 -19 -40 -27.5t-49 -8.5q-49 0 -78.5 24.5t-29.5 64.5q0 37 21.5 69t64.5 67q-1 3 -1 11v430q0 19 9.5 29.5t26.5 10.5
q18 0 27.5 -10.5t9.5 -29.5v-430q0 -30 -23 -38q-40 -33 -56.5 -54.5t-16.5 -50.5q0 -18 13.5 -29.5t36.5 -11.5q31 0 53 20q8 8 18 8q9 0 16 -7q8 -8 8 -17z" />
    <glyph glyph-name="itilde" unicode="&#x129;" horiz-adv-x="250" 
d="M98.5 0.5q-9.5 10.5 -9.5 29.5v430q0 19 9.5 29.5t26.5 10.5q18 0 27.5 -11t9.5 -29v-430q0 -18 -9.5 -29t-27.5 -11q-17 0 -26.5 10.5zM-41 601q0 9 2 15q9 34 33.5 56t60.5 22q24 0 42.5 -8.5t43.5 -24.5q17 -12 28.5 -18t24.5 -6q34 0 46 42q7 21 25 21
q14 0 21.5 -6.5t7.5 -18.5l-2 -12q-10 -36 -35 -57.5t-60 -21.5q-23 0 -39.5 8t-39.5 23q-19 13 -32 19.5t-28 6.5q-32 0 -45 -41q-8 -22 -25 -22q-29 0 -29 23z" />
    <glyph glyph-name="j" unicode="j" horiz-adv-x="334" 
d="M168 624q-16 15 -16 35q0 21 16 36t38 15t38.5 -15t16.5 -36q0 -20 -16.5 -35t-38.5 -15t-38 15zM43 -283q-10 9 -10 24q0 14 10 22.5t26 8.5q41 0 62 9.5t29.5 33t8.5 69.5l1 576q0 19 9 29.5t27 10.5t27.5 -10.5t9.5 -29.5l-1 -576q0 -87 -39 -131.5t-134 -44.5
q-16 0 -26 9z" />
    <glyph glyph-name="uni0237" unicode="&#x237;" horiz-adv-x="325" 
d="M48 -283q-10 9 -10 24q0 14 10 22.5t26 8.5q41 0 62 9.5t29.5 33t8.5 69.5l1 576q0 19 9 29.5t27 10.5t27.5 -10.5t9.5 -29.5l-1 -576q0 -87 -39 -131.5t-134 -44.5q-16 0 -26 9z" />
    <glyph glyph-name="jcircumflex" unicode="&#x135;" horiz-adv-x="325" 
d="M48 -283q-10 9 -10 24q0 14 10 22.5t26 8.5q41 0 62 9.5t29.5 33t8.5 69.5l1 576q0 19 9 29.5t27 10.5t27.5 -10.5t9.5 -29.5l-1 -576q0 -87 -39 -131.5t-134 -44.5q-16 0 -26 9zM62 586q0 10 10 23l106 126q14 17 32 17t32 -17l106 -126q10 -12 10 -23q0 -14 -14 -25
q-10 -7 -20 -7q-15 0 -30 19l-84 112l-84 -112q-15 -20 -31 -20q-7 0 -18 7q-15 12 -15 26z" />
    <glyph glyph-name="k" unicode="k" horiz-adv-x="582" 
d="M82.5 0.5q-9.5 10.5 -9.5 29.5v689q0 19 9.5 29.5t26.5 10.5t27 -10.5t10 -29.5v-448l332 224q10 7 21 7q17 0 25 -14q5 -7 5 -19q0 -18 -16 -28l-179 -119q87 -59 135 -129.5t66 -163.5q3 -16 -6 -27.5t-26 -11.5q-33 0 -39 28q-21 96 -61.5 152.5t-127.5 112.5
l-129 -87v-166q0 -18 -9.5 -29t-27.5 -11q-17 0 -26.5 10.5z" />
    <glyph glyph-name="uni0137" unicode="&#x137;" horiz-adv-x="607" 
d="M82.5 0.5q-9.5 10.5 -9.5 29.5v689q0 19 9.5 29.5t26.5 10.5t27 -10.5t10 -29.5v-448l332 224q10 7 21 7q17 0 25 -14q5 -7 5 -19q0 -18 -16 -28l-179 -119q87 -59 135 -129.5t66 -163.5q3 -16 -6 -27.5t-26 -11.5q-33 0 -39 28q-21 96 -61.5 152.5t-127.5 112.5
l-129 -87v-166q0 -18 -9.5 -29t-27.5 -11q-17 0 -26.5 10.5zM238 -218q0 10 16 24q26 23 39.5 41t15.5 38q-8 -2 -13 -2q-21 0 -36.5 14.5t-15.5 35.5q0 27 17 43t46 16q30 0 47.5 -20t17.5 -56t-21.5 -72t-59.5 -66q-22 -17 -32 -17q-8 0 -14 7q-7 7 -7 14z" />
    <glyph glyph-name="kgreenlandic" unicode="&#x138;" horiz-adv-x="579" 
d="M82.5 0.5q-9.5 10.5 -9.5 29.5v430q0 19 9.5 29.5t26.5 10.5q18 0 27.5 -11t9.5 -29v-191l330 226q6 5 17 5q19 0 28 -16q6 -10 6 -19q0 -17 -16 -27l-191 -130q90 -52 142.5 -120.5t69.5 -156.5q1 -4 1 -10q0 -15 -8.5 -23t-22.5 -8q-17 0 -26.5 6.5t-12.5 20.5
q-19 88 -63.5 143.5t-140.5 109.5l-113 -77v-163q0 -18 -9.5 -29t-27.5 -11q-17 0 -26.5 10.5z" />
    <glyph glyph-name="l" unicode="l" horiz-adv-x="255" 
d="M100.5 0.5q-9.5 10.5 -9.5 29.5v689q0 19 9.5 29.5t26.5 10.5t27 -10.5t10 -29.5v-689q0 -18 -9.5 -29t-27.5 -11q-17 0 -26.5 10.5z" />
    <glyph glyph-name="lacute" unicode="&#x13a;" horiz-adv-x="255" 
d="M100.5 0.5q-9.5 10.5 -9.5 29.5v689q0 19 9.5 29.5t26.5 10.5t27 -10.5t10 -29.5v-689q0 -18 -9.5 -29t-27.5 -11q-17 0 -26.5 10.5zM103 859q0 7 3 13l62 141q12 28 33 28q10 0 19 -5q20 -10 20 -27q0 -9 -6 -20l-78 -138q-9 -17 -26 -17q-6 0 -12 3q-15 7 -15 22z" />
    <glyph glyph-name="lcaron" unicode="&#x13e;" horiz-adv-x="355" 
d="M100.5 0.5q-9.5 10.5 -9.5 29.5v689q0 19 9.5 29.5t26.5 10.5t27 -10.5t10 -29.5v-689q0 -18 -9.5 -29t-27.5 -11q-17 0 -26.5 10.5zM239 547q0 11 17 25q51 43 54 77q-8 -2 -13 -2q-21 0 -36 14.5t-15 35.5q0 27 17 42.5t46 15.5t46 -20.5t17 -54.5q0 -70 -79 -135
q-22 -18 -34 -18q-8 0 -15 8q-5 7 -5 12z" />
    <glyph glyph-name="uni013C" unicode="&#x13c;" horiz-adv-x="255" 
d="M100.5 0.5q-9.5 10.5 -9.5 29.5v689q0 19 9.5 29.5t26.5 10.5t27 -10.5t10 -29.5v-689q0 -18 -9.5 -29t-27.5 -11q-17 0 -26.5 10.5zM55 -287q0 10 16 24q26 23 39.5 41t15.5 38q-8 -2 -13 -2q-21 0 -36.5 14.5t-15.5 35.5q0 27 17 43t46 16q30 0 47.5 -20t17.5 -56
t-21.5 -72t-59.5 -66q-22 -17 -32 -17q-8 0 -14 7q-7 7 -7 14z" />
    <glyph glyph-name="ldot" unicode="&#x140;" horiz-adv-x="416" 
d="M100.5 0.5q-9.5 10.5 -9.5 29.5v689q0 19 9.5 29.5t26.5 10.5t27 -10.5t10 -29.5v-689q0 -18 -9.5 -29t-27.5 -11q-17 0 -26.5 10.5zM248 301.5q-17 16.5 -17 38.5q0 23 17 40t41 17q23 0 40 -17t17 -40q0 -22 -17 -38.5t-40 -16.5q-24 0 -41 16.5z" />
    <glyph glyph-name="uni1E37" unicode="&#x1e37;" horiz-adv-x="255" 
d="M100.5 0.5q-9.5 10.5 -9.5 29.5v689q0 19 9.5 29.5t26.5 10.5t27 -10.5t10 -29.5v-689q0 -18 -9.5 -29t-27.5 -11q-17 0 -26.5 10.5zM89.5 -164.5q-15.5 14.5 -15.5 35.5q0 22 15.5 37t38.5 15q22 0 37 -15t15 -37q0 -21 -15 -35.5t-37 -14.5q-23 0 -38.5 14.5z" />
    <glyph glyph-name="uni1E39" unicode="&#x1e39;" horiz-adv-x="255" 
d="M100.5 0.5q-9.5 10.5 -9.5 29.5v689q0 19 9.5 29.5t26.5 10.5t27 -10.5t10 -29.5v-689q0 -18 -9.5 -29t-27.5 -11q-17 0 -26.5 10.5zM89.5 -164.5q-15.5 14.5 -15.5 35.5q0 22 15.5 37t38.5 15q22 0 37 -15t15 -37q0 -21 -15 -35.5t-37 -14.5q-23 0 -38.5 14.5zM-31 863
q0 16 9.5 21.5t26.5 5.5h245q18 0 27 -6t9 -21q0 -26 -36 -26h-245q-36 0 -36 26z" />
    <glyph glyph-name="uni1E3B" unicode="&#x1e3b;" horiz-adv-x="255" 
d="M100.5 0.5q-9.5 10.5 -9.5 29.5v689q0 19 9.5 29.5t26.5 10.5t27 -10.5t10 -29.5v-689q0 -18 -9.5 -29t-27.5 -11q-17 0 -26.5 10.5zM-30 -114q0 16 9.5 21.5t26.5 5.5h245q18 0 27 -6t9 -21q0 -26 -36 -26h-245q-36 0 -36 26z" />
    <glyph glyph-name="lslash" unicode="&#x142;" horiz-adv-x="356" 
d="M319 495q0 -14 -13 -24l-69 -49v-392q0 -18 -9.5 -29t-27.5 -11q-17 0 -26.5 10.5t-9.5 29.5v340l-79 -56q-6 -5 -18 -5q-15 0 -24 12q-7 10 -7 20q0 8 3.5 14.5t9.5 10.5l115 81v272q0 19 9.5 29.5t26.5 10.5t27 -10.5t10 -29.5v-220l33 23q8 5 17 5q16 0 26 -14
q6 -9 6 -18z" />
    <glyph glyph-name="m" unicode="m" horiz-adv-x="825" 
d="M78.5 0.5q-9.5 10.5 -9.5 29.5v430q0 19 9.5 29.5t26.5 10.5q18 0 27.5 -11t9.5 -29v-57q27 45 69.5 71t89.5 26t83 -25.5t53 -71.5q35 47 77.5 72t88.5 25q79 0 119 -48.5t40 -143.5v-278q0 -19 -10 -29.5t-27 -10.5q-36 0 -36 40v280q0 64 -21.5 95.5t-73.5 31.5
q-44 0 -79 -26.5t-56 -76.5v-304q0 -19 -10 -29.5t-27 -10.5t-26.5 10.5t-9.5 29.5v265q0 69 -24.5 105.5t-69.5 36.5q-43 0 -77 -23.5t-53.5 -64.5t-19.5 -93v-226q0 -18 -9.5 -29t-27.5 -11q-17 0 -26.5 10.5z" />
    <glyph glyph-name="uni1E43" unicode="&#x1e43;" horiz-adv-x="825" 
d="M78.5 0.5q-9.5 10.5 -9.5 29.5v430q0 19 9.5 29.5t26.5 10.5q18 0 27.5 -11t9.5 -29v-57q27 45 69.5 71t89.5 26t83 -25.5t53 -71.5q35 47 77.5 72t88.5 25q79 0 119 -48.5t40 -143.5v-278q0 -19 -10 -29.5t-27 -10.5q-36 0 -36 40v280q0 64 -21.5 95.5t-73.5 31.5
q-44 0 -79 -26.5t-56 -76.5v-304q0 -19 -10 -29.5t-27 -10.5t-26.5 10.5t-9.5 29.5v265q0 69 -24.5 105.5t-69.5 36.5q-43 0 -77 -23.5t-53.5 -64.5t-19.5 -93v-226q0 -18 -9.5 -29t-27.5 -11q-17 0 -26.5 10.5zM380.5 -164.5q-15.5 14.5 -15.5 35.5q0 22 15.5 37t38.5 15
q22 0 37 -15t15 -37q0 -21 -15 -35.5t-37 -14.5q-23 0 -38.5 14.5z" />
    <glyph glyph-name="n" unicode="n" horiz-adv-x="611" 
d="M80.5 0.5q-9.5 10.5 -9.5 29.5v430q0 19 9 29.5t27 10.5q17 0 26.5 -10.5t9.5 -29.5v-59q37 49 89.5 74t115.5 25q95 0 146.5 -53t51.5 -152v-265q0 -19 -10 -29.5t-27 -10.5q-18 0 -27 10.5t-9 29.5v265q0 142 -134 142q-88 0 -141.5 -52t-53.5 -138v-217
q0 -18 -9.5 -29t-27.5 -11q-17 0 -26.5 10.5z" />
    <glyph glyph-name="nacute" unicode="&#x144;" horiz-adv-x="611" 
d="M80.5 0.5q-9.5 10.5 -9.5 29.5v430q0 19 9 29.5t27 10.5q17 0 26.5 -10.5t9.5 -29.5v-59q37 49 89.5 74t115.5 25q95 0 146.5 -53t51.5 -152v-265q0 -19 -10 -29.5t-27 -10.5q-18 0 -27 10.5t-9 29.5v265q0 142 -134 142q-88 0 -141.5 -52t-53.5 -138v-217
q0 -18 -9.5 -29t-27.5 -11q-17 0 -26.5 10.5zM282 600q0 7 3 13l62 141q12 28 33 28q10 0 19 -5q20 -10 20 -27q0 -9 -6 -20l-78 -138q-9 -17 -26 -17q-6 0 -12 3q-15 7 -15 22z" />
    <glyph glyph-name="napostrophe" unicode="&#x149;" horiz-adv-x="702" 
d="M171.5 0.5q-9.5 10.5 -9.5 29.5v430q0 19 9 29.5t27 10.5q17 0 26.5 -10.5t9.5 -29.5v-59q37 49 89.5 74t115.5 25q95 0 146.5 -53t51.5 -152v-265q0 -19 -10 -29.5t-27 -10.5q-18 0 -27 10.5t-9 29.5v265q0 142 -134 142q-88 0 -141.5 -52t-53.5 -138v-217
q0 -18 -9.5 -29t-27.5 -11q-17 0 -26.5 10.5zM23 438q0 11 17 25q51 43 54 77q-8 -2 -13 -2q-21 0 -36 14.5t-15 35.5q0 27 17 42.5t46 15.5t46 -20.5t17 -54.5q0 -70 -79 -135q-22 -18 -34 -18q-8 0 -15 8q-5 7 -5 12z" />
    <glyph glyph-name="ncaron" unicode="&#x148;" horiz-adv-x="611" 
d="M80.5 0.5q-9.5 10.5 -9.5 29.5v430q0 19 9 29.5t27 10.5q17 0 26.5 -10.5t9.5 -29.5v-59q37 49 89.5 74t115.5 25q95 0 146.5 -53t51.5 -152v-265q0 -19 -10 -29.5t-27 -10.5q-18 0 -27 10.5t-9 29.5v265q0 142 -134 142q-88 0 -141.5 -52t-53.5 -138v-217
q0 -18 -9.5 -29t-27.5 -11q-17 0 -26.5 10.5zM275 590l-106 127q-10 13 -10 23q0 13 15 25q8 7 19 7q15 0 31 -20l83 -112l84 112q14 20 32 20q8 0 17 -6q15 -10 15 -26q0 -13 -10 -24l-105 -126q-14 -17 -33 -17q-18 0 -32 17z" />
    <glyph glyph-name="uni0146" unicode="&#x146;" horiz-adv-x="611" 
d="M80.5 0.5q-9.5 10.5 -9.5 29.5v430q0 19 9 29.5t27 10.5q17 0 26.5 -10.5t9.5 -29.5v-59q37 49 89.5 74t115.5 25q95 0 146.5 -53t51.5 -152v-265q0 -19 -10 -29.5t-27 -10.5q-18 0 -27 10.5t-9 29.5v265q0 142 -134 142q-88 0 -141.5 -52t-53.5 -138v-217
q0 -18 -9.5 -29t-27.5 -11q-17 0 -26.5 10.5zM234 -287q0 10 16 24q26 23 39.5 41t15.5 38q-8 -2 -13 -2q-21 0 -36.5 14.5t-15.5 35.5q0 27 17 43t46 16q30 0 47.5 -20t17.5 -56t-21.5 -72t-59.5 -66q-22 -17 -32 -17q-8 0 -14 7q-7 7 -7 14z" />
    <glyph glyph-name="uni1E45" unicode="&#x1e45;" horiz-adv-x="611" 
d="M80.5 0.5q-9.5 10.5 -9.5 29.5v430q0 19 9 29.5t27 10.5q17 0 26.5 -10.5t9.5 -29.5v-59q37 49 89.5 74t115.5 25q95 0 146.5 -53t51.5 -152v-265q0 -19 -10 -29.5t-27 -10.5q-18 0 -27 10.5t-9 29.5v265q0 142 -134 142q-88 0 -141.5 -52t-53.5 -138v-217
q0 -18 -9.5 -29t-27.5 -11q-17 0 -26.5 10.5zM269 607.5q-16 15.5 -16 35.5q0 21 16 36.5t38 15.5q21 0 36.5 -15.5t15.5 -36.5q0 -20 -15.5 -35.5t-36.5 -15.5q-22 0 -38 15.5z" />
    <glyph glyph-name="uni1E47" unicode="&#x1e47;" horiz-adv-x="611" 
d="M80.5 0.5q-9.5 10.5 -9.5 29.5v430q0 19 9 29.5t27 10.5q17 0 26.5 -10.5t9.5 -29.5v-59q37 49 89.5 74t115.5 25q95 0 146.5 -53t51.5 -152v-265q0 -19 -10 -29.5t-27 -10.5q-18 0 -27 10.5t-9 29.5v265q0 142 -134 142q-88 0 -141.5 -52t-53.5 -138v-217
q0 -18 -9.5 -29t-27.5 -11q-17 0 -26.5 10.5zM268.5 -164.5q-15.5 14.5 -15.5 35.5q0 22 15.5 37t38.5 15q22 0 37 -15t15 -37q0 -21 -15 -35.5t-37 -14.5q-23 0 -38.5 14.5z" />
    <glyph glyph-name="eng" unicode="&#x14b;" horiz-adv-x="611" 
d="M345.5 -282.5q-9.5 9.5 -9.5 23.5t9.5 22.5t25.5 8.5q43 0 64.5 11t29 34.5t7.5 66.5v411q0 71 -33 106.5t-100 35.5q-88 0 -141.5 -52t-53.5 -138v-217q0 -18 -9.5 -29t-27.5 -11q-17 0 -26.5 10.5t-9.5 29.5v430q0 19 9.5 29.5t26.5 10.5t26.5 -10.5t9.5 -29.5v-59
q37 49 89.5 74t115.5 25q96 0 147 -53t51 -152l-1 -411q0 -91 -42 -133.5t-132 -42.5q-16 0 -25.5 9.5z" />
    <glyph glyph-name="uni1E49" unicode="&#x1e49;" horiz-adv-x="611" 
d="M80.5 0.5q-9.5 10.5 -9.5 29.5v430q0 19 9 29.5t27 10.5q17 0 26.5 -10.5t9.5 -29.5v-59q37 49 89.5 74t115.5 25q95 0 146.5 -53t51.5 -152v-265q0 -19 -10 -29.5t-27 -10.5q-18 0 -27 10.5t-9 29.5v265q0 142 -134 142q-88 0 -141.5 -52t-53.5 -138v-217
q0 -18 -9.5 -29t-27.5 -11q-17 0 -26.5 10.5zM149 -114q0 16 9.5 21.5t26.5 5.5h245q18 0 27 -6t9 -21q0 -26 -36 -26h-245q-36 0 -36 26z" />
    <glyph glyph-name="ntilde" unicode="&#xf1;" horiz-adv-x="611" 
d="M80.5 0.5q-9.5 10.5 -9.5 29.5v430q0 19 9 29.5t27 10.5q17 0 26.5 -10.5t9.5 -29.5v-59q37 49 89.5 74t115.5 25q95 0 146.5 -53t51.5 -152v-265q0 -19 -10 -29.5t-27 -10.5q-18 0 -27 10.5t-9 29.5v265q0 142 -134 142q-88 0 -141.5 -52t-53.5 -138v-217
q0 -18 -9.5 -29t-27.5 -11q-17 0 -26.5 10.5zM139 618q0 9 2 15q9 34 33.5 56t60.5 22q24 0 42.5 -8.5t43.5 -24.5q17 -12 28.5 -18t24.5 -6q34 0 46 42q7 21 25 21q14 0 21.5 -6.5t7.5 -18.5l-2 -12q-10 -36 -35 -57.5t-60 -21.5q-23 0 -39.5 8t-39.5 23q-19 13 -32 19.5
t-28 6.5q-32 0 -45 -41q-8 -22 -25 -22q-29 0 -29 23z" />
    <glyph glyph-name="o" unicode="o" horiz-adv-x="637" 
d="M170 25q-62 35 -93.5 93.5t-31.5 126.5t31.5 126.5t93.5 93.5t149 35t148.5 -35t93 -93.5t31.5 -126.5t-31.5 -126.5t-93 -93.5t-148.5 -35t-149 35zM463.5 104q54.5 51 54.5 141t-54.5 141t-144.5 51q-91 0 -145.5 -51t-54.5 -141t54.5 -141t145.5 -51q90 0 144.5 51z
" />
    <glyph glyph-name="oacute" unicode="&#xf3;" horiz-adv-x="637" 
d="M170 25q-62 35 -93.5 93.5t-31.5 126.5t31.5 126.5t93.5 93.5t149 35t148.5 -35t93 -93.5t31.5 -126.5t-31.5 -126.5t-93 -93.5t-148.5 -35t-149 35zM463.5 104q54.5 51 54.5 141t-54.5 141t-144.5 51q-91 0 -145.5 -51t-54.5 -141t54.5 -141t145.5 -51q90 0 144.5 51z
M294 600q0 7 3 13l62 141q12 28 33 28q10 0 19 -5q20 -10 20 -27q0 -9 -6 -20l-78 -138q-9 -17 -26 -17q-6 0 -12 3q-15 7 -15 22z" />
    <glyph glyph-name="obreve" unicode="&#x14f;" horiz-adv-x="637" 
d="M170 25q-62 35 -93.5 93.5t-31.5 126.5t31.5 126.5t93.5 93.5t149 35t148.5 -35t93 -93.5t31.5 -126.5t-31.5 -126.5t-93 -93.5t-148.5 -35t-149 35zM463.5 104q54.5 51 54.5 141t-54.5 141t-144.5 51q-91 0 -145.5 -51t-54.5 -141t54.5 -141t145.5 -51q90 0 144.5 51z
M203 617q-42 42 -42 105q0 39 35 39q33 0 33 -39q0 -42 22 -67t65 -25t64.5 25t21.5 67q0 39 34 39t34 -39q0 -63 -41.5 -105t-112.5 -42t-113 42z" />
    <glyph glyph-name="uni01D2" unicode="&#x1d2;" horiz-adv-x="637" 
d="M170 25q-62 35 -93.5 93.5t-31.5 126.5t31.5 126.5t93.5 93.5t149 35t148.5 -35t93 -93.5t31.5 -126.5t-31.5 -126.5t-93 -93.5t-148.5 -35t-149 35zM463.5 104q54.5 51 54.5 141t-54.5 141t-144.5 51q-91 0 -145.5 -51t-54.5 -141t54.5 -141t145.5 -51q90 0 144.5 51z
M287 590l-106 127q-10 13 -10 23q0 13 15 25q8 7 19 7q15 0 31 -20l83 -112l84 112q14 20 32 20q8 0 17 -6q15 -10 15 -26q0 -13 -10 -24l-105 -126q-14 -17 -33 -17q-18 0 -32 17z" />
    <glyph glyph-name="ocircumflex" unicode="&#xf4;" horiz-adv-x="637" 
d="M170 25q-62 35 -93.5 93.5t-31.5 126.5t31.5 126.5t93.5 93.5t149 35t148.5 -35t93 -93.5t31.5 -126.5t-31.5 -126.5t-93 -93.5t-148.5 -35t-149 35zM463.5 104q54.5 51 54.5 141t-54.5 141t-144.5 51q-91 0 -145.5 -51t-54.5 -141t54.5 -141t145.5 -51q90 0 144.5 51z
M171 606q0 10 10 23l106 126q14 17 32 17q19 0 33 -17l105 -126q10 -13 10 -23q0 -14 -14 -25q-10 -7 -20 -7q-15 0 -30 19l-84 112l-83 -112q-15 -20 -32 -20q-8 0 -18 7q-15 12 -15 26z" />
    <glyph glyph-name="uni1ED1" unicode="&#x1ed1;" horiz-adv-x="637" 
d="M170 25q-62 35 -93.5 93.5t-31.5 126.5t31.5 126.5t93.5 93.5t149 35t148.5 -35t93 -93.5t31.5 -126.5t-31.5 -126.5t-93 -93.5t-148.5 -35t-149 35zM463.5 104q54.5 51 54.5 141t-54.5 141t-144.5 51q-91 0 -145.5 -51t-54.5 -141t54.5 -141t145.5 -51q90 0 144.5 51z
M405 739q0 8 5 16l62 103q12 21 31 21q9 0 20 -6q15 -9 15 -24q0 -12 -8 -22l-77 -98q-12 -14 -23 -14q-6 0 -14 5q-11 6 -11 19zM171 606q0 12 10 22l106 112q9 9 15.5 13t16.5 4t16.5 -4t15.5 -13l106 -111q10 -10 10 -23q0 -15 -15 -26q-9 -6 -17 -6q-16 0 -32 19l-84 97
l-84 -98q-17 -19 -31 -19q-8 0 -18 7q-15 12 -15 26z" />
    <glyph glyph-name="uni1ED9" unicode="&#x1ed9;" horiz-adv-x="637" 
d="M170 25q-62 35 -93.5 93.5t-31.5 126.5t31.5 126.5t93.5 93.5t149 35t148.5 -35t93 -93.5t31.5 -126.5t-31.5 -126.5t-93 -93.5t-148.5 -35t-149 35zM463.5 104q54.5 51 54.5 141t-54.5 141t-144.5 51q-91 0 -145.5 -51t-54.5 -141t54.5 -141t145.5 -51q90 0 144.5 51z
M280.5 -164.5q-15.5 14.5 -15.5 35.5q0 22 15.5 37t38.5 15q22 0 37 -15t15 -37q0 -21 -15 -35.5t-37 -14.5q-23 0 -38.5 14.5zM171 606q0 10 10 23l106 126q14 17 32 17q19 0 33 -17l105 -126q10 -13 10 -23q0 -14 -14 -25q-10 -7 -20 -7q-15 0 -30 19l-84 112l-83 -112
q-15 -20 -32 -20q-8 0 -18 7q-15 12 -15 26z" />
    <glyph glyph-name="uni1ED3" unicode="&#x1ed3;" horiz-adv-x="637" 
d="M170 25q-62 35 -93.5 93.5t-31.5 126.5t31.5 126.5t93.5 93.5t149 35t148.5 -35t93 -93.5t31.5 -126.5t-31.5 -126.5t-93 -93.5t-148.5 -35t-149 35zM463.5 104q54.5 51 54.5 141t-54.5 141t-144.5 51q-91 0 -145.5 -51t-54.5 -141t54.5 -141t145.5 -51q90 0 144.5 51z
M465 715q-11 0 -23 14l-77 98q-8 10 -8 21q0 16 17 26q10 5 18 5q19 0 32 -21l61 -103q5 -10 5 -17q0 -11 -12 -19q-5 -4 -13 -4zM171 606q0 12 10 22l106 112q9 9 15.5 13t16.5 4q16 0 32 -17l106 -111q10 -10 10 -23q0 -15 -15 -26q-9 -6 -17 -6q-16 0 -32 19l-84 97
l-84 -98q-17 -19 -31 -19q-8 0 -18 7q-15 12 -15 26z" />
    <glyph glyph-name="uni1ED5" unicode="&#x1ed5;" horiz-adv-x="637" 
d="M170 25q-62 35 -93.5 93.5t-31.5 126.5t31.5 126.5t93.5 93.5t149 35t148.5 -35t93 -93.5t31.5 -126.5t-31.5 -126.5t-93 -93.5t-148.5 -35t-149 35zM463.5 104q54.5 51 54.5 141t-54.5 141t-144.5 51q-91 0 -145.5 -51t-54.5 -141t54.5 -141t145.5 -51q90 0 144.5 51z
M397 735v8q0 15 9 26t27 26q14 10 21 18t7 18q0 13 -9 21t-26 8q-16 0 -27 -5t-20 -16q-10 -12 -20 -12q-6 0 -13 4q-13 8 -13 18q0 6 5 14q13 20 36.5 32t56.5 12q45 0 66.5 -20t21.5 -51q0 -19 -9 -31t-27 -27q-13 -10 -19.5 -18t-6.5 -18v-7q0 -25 -30 -25t-30 25z
M171 606q0 12 10 22l106 112q9 9 15.5 13t16.5 4q16 0 32 -17l106 -111q10 -10 10 -23q0 -15 -15 -26q-9 -6 -17 -6q-16 0 -32 19l-84 97l-84 -98q-17 -19 -31 -19q-8 0 -18 7q-15 12 -15 26z" />
    <glyph glyph-name="uni1ED7" unicode="&#x1ed7;" horiz-adv-x="637" 
d="M170 25q-62 35 -93.5 93.5t-31.5 126.5t31.5 126.5t93.5 93.5t149 35t148.5 -35t93 -93.5t31.5 -126.5t-31.5 -126.5t-93 -93.5t-148.5 -35t-149 35zM463.5 104q54.5 51 54.5 141t-54.5 141t-144.5 51q-91 0 -145.5 -51t-54.5 -141t54.5 -141t145.5 -51q90 0 144.5 51z
M165 796q0 3 2 13q8 33 32.5 53t57.5 20q23 0 41 -8.5t41 -23.5q16 -12 27.5 -17.5t22.5 -5.5q31 0 44 40q7 21 23 21q28 0 28 -23q0 -4 -2 -14q-8 -31 -32 -52t-58 -21q-21 0 -38 8t-37 22q-19 12 -30.5 18t-26.5 6t-26.5 -10t-16.5 -27q-7 -23 -23 -23l-12 2q-17 5 -17 22
zM172 606q0 13 10 23l105 112q16 17 32 17q20 0 32 -17l106 -112q10 -10 10 -23q0 -14 -14 -25q-8 -7 -19 -7q-15 0 -31 19l-84 98l-83 -98q-16 -19 -31 -19q-9 0 -20 8q-13 9 -13 24z" />
    <glyph glyph-name="odieresis" unicode="&#xf6;" horiz-adv-x="637" 
d="M170 25q-62 35 -93.5 93.5t-31.5 126.5t31.5 126.5t93.5 93.5t149 35t148.5 -35t93 -93.5t31.5 -126.5t-31.5 -126.5t-93 -93.5t-148.5 -35t-149 35zM463.5 104q54.5 51 54.5 141t-54.5 141t-144.5 51q-91 0 -145.5 -51t-54.5 -141t54.5 -141t145.5 -51q90 0 144.5 51z
M180 609.5q-15 14.5 -15 34.5q0 21 15 35.5t36 14.5q20 0 34.5 -15t14.5 -35t-14.5 -34.5t-34.5 -14.5q-21 0 -36 14.5zM387 609.5q-15 14.5 -15 34.5t15 35t36 15q20 0 35 -15t15 -35t-15 -34.5t-35 -14.5q-21 0 -36 14.5z" />
    <glyph glyph-name="uni1ECD" unicode="&#x1ecd;" horiz-adv-x="637" 
d="M170 25q-62 35 -93.5 93.5t-31.5 126.5t31.5 126.5t93.5 93.5t149 35t148.5 -35t93 -93.5t31.5 -126.5t-31.5 -126.5t-93 -93.5t-148.5 -35t-149 35zM463.5 104q54.5 51 54.5 141t-54.5 141t-144.5 51q-91 0 -145.5 -51t-54.5 -141t54.5 -141t145.5 -51q90 0 144.5 51z
M280.5 -164.5q-15.5 14.5 -15.5 35.5q0 22 15.5 37t38.5 15q22 0 37 -15t15 -37q0 -21 -15 -35.5t-37 -14.5q-23 0 -38.5 14.5z" />
    <glyph glyph-name="ograve" unicode="&#xf2;" horiz-adv-x="637" 
d="M170 25q-62 35 -93.5 93.5t-31.5 126.5t31.5 126.5t93.5 93.5t149 35t148.5 -35t93 -93.5t31.5 -126.5t-31.5 -126.5t-93 -93.5t-148.5 -35t-149 35zM463.5 104q54.5 51 54.5 141t-54.5 141t-144.5 51q-91 0 -145.5 -51t-54.5 -141t54.5 -141t145.5 -51q90 0 144.5 51z
M324 575q-17 0 -26 17l-78 138q-6 11 -6 20q0 17 20 27q9 5 19 5q21 0 33 -28l62 -141q3 -7 3 -14q0 -14 -15 -21q-6 -3 -12 -3z" />
    <glyph glyph-name="uni1ECF" unicode="&#x1ecf;" horiz-adv-x="637" 
d="M170 25q-62 35 -93.5 93.5t-31.5 126.5t31.5 126.5t93.5 93.5t149 35t148.5 -35t93 -93.5t31.5 -126.5t-31.5 -126.5t-93 -93.5t-148.5 -35t-149 35zM463.5 104q54.5 51 54.5 141t-54.5 141t-144.5 51q-91 0 -145.5 -51t-54.5 -141t54.5 -141t145.5 -51q90 0 144.5 51z
M287 576v8q0 17 10 29.5t29 27.5q17 14 24 21.5t7 18.5q0 15 -9.5 23.5t-28.5 8.5q-34 0 -54 -26q-10 -13 -23 -13q-6 0 -13 3q-15 9 -15 21q0 6 5 14q14 22 42 37.5t64 15.5q48 0 73 -22.5t25 -56.5q0 -21 -10.5 -34.5t-30.5 -28.5q-16 -13 -22.5 -20.5t-6.5 -18.5v-8
q0 -28 -34 -28q-32 0 -32 28z" />
    <glyph glyph-name="ohorn" unicode="&#x1a1;" horiz-adv-x="637" 
d="M665.5 397.5q-35.5 -39.5 -95.5 -45.5q22 -48 22 -107q0 -68 -31.5 -126.5t-93 -93.5t-148.5 -35t-149 35t-93.5 93.5t-31.5 126.5t31.5 126.5t93.5 93.5t149 35q74 0 129.5 -25.5t90.5 -70.5l23 3q73 9 73 88q0 38 32 38q17 0 25.5 -10t8.5 -28q0 -58 -35.5 -97.5z
M463.5 104q54.5 51 54.5 141t-54.5 141t-144.5 51q-91 0 -145.5 -51t-54.5 -141t54.5 -141t145.5 -51q90 0 144.5 51z" />
    <glyph glyph-name="uni1EDB" unicode="&#x1edb;" horiz-adv-x="637" 
d="M665.5 397.5q-35.5 -39.5 -95.5 -45.5q22 -48 22 -107q0 -68 -31.5 -126.5t-93 -93.5t-148.5 -35t-149 35t-93.5 93.5t-31.5 126.5t31.5 126.5t93.5 93.5t149 35q74 0 129.5 -25.5t90.5 -70.5l23 3q73 9 73 88q0 38 32 38q17 0 25.5 -10t8.5 -28q0 -58 -35.5 -97.5z
M463.5 104q54.5 51 54.5 141t-54.5 141t-144.5 51q-91 0 -145.5 -51t-54.5 -141t54.5 -141t145.5 -51q90 0 144.5 51zM294 600q0 7 3 13l62 141q12 28 33 28q10 0 19 -5q20 -10 20 -27q0 -9 -6 -20l-78 -138q-9 -17 -26 -17q-6 0 -12 3q-15 7 -15 22z" />
    <glyph glyph-name="uni1EE3" unicode="&#x1ee3;" horiz-adv-x="637" 
d="M665.5 397.5q-35.5 -39.5 -95.5 -45.5q22 -48 22 -107q0 -68 -31.5 -126.5t-93 -93.5t-148.5 -35t-149 35t-93.5 93.5t-31.5 126.5t31.5 126.5t93.5 93.5t149 35q74 0 129.5 -25.5t90.5 -70.5l23 3q73 9 73 88q0 38 32 38q17 0 25.5 -10t8.5 -28q0 -58 -35.5 -97.5z
M463.5 104q54.5 51 54.5 141t-54.5 141t-144.5 51q-91 0 -145.5 -51t-54.5 -141t54.5 -141t145.5 -51q90 0 144.5 51zM280.5 -164.5q-15.5 14.5 -15.5 35.5q0 22 15.5 37t38.5 15q22 0 37 -15t15 -37q0 -21 -15 -35.5t-37 -14.5q-23 0 -38.5 14.5z" />
    <glyph glyph-name="uni1EDD" unicode="&#x1edd;" horiz-adv-x="637" 
d="M665.5 397.5q-35.5 -39.5 -95.5 -45.5q22 -48 22 -107q0 -68 -31.5 -126.5t-93 -93.5t-148.5 -35t-149 35t-93.5 93.5t-31.5 126.5t31.5 126.5t93.5 93.5t149 35q74 0 129.5 -25.5t90.5 -70.5l23 3q73 9 73 88q0 38 32 38q17 0 25.5 -10t8.5 -28q0 -58 -35.5 -97.5z
M463.5 104q54.5 51 54.5 141t-54.5 141t-144.5 51q-91 0 -145.5 -51t-54.5 -141t54.5 -141t145.5 -51q90 0 144.5 51zM319 575q-17 0 -26 17l-78 138q-6 11 -6 20q0 17 20 27q9 5 19 5q21 0 33 -28l62 -141q3 -7 3 -14q0 -14 -15 -21q-6 -3 -12 -3z" />
    <glyph glyph-name="uni1EDF" unicode="&#x1edf;" horiz-adv-x="637" 
d="M665.5 397.5q-35.5 -39.5 -95.5 -45.5q22 -48 22 -107q0 -68 -31.5 -126.5t-93 -93.5t-148.5 -35t-149 35t-93.5 93.5t-31.5 126.5t31.5 126.5t93.5 93.5t149 35q74 0 129.5 -25.5t90.5 -70.5l23 3q73 9 73 88q0 38 32 38q17 0 25.5 -10t8.5 -28q0 -58 -35.5 -97.5z
M463.5 104q54.5 51 54.5 141t-54.5 141t-144.5 51q-91 0 -145.5 -51t-54.5 -141t54.5 -141t145.5 -51q90 0 144.5 51zM287 576v8q0 17 10 29.5t29 27.5q17 14 24 21.5t7 18.5q0 15 -9.5 23.5t-28.5 8.5q-34 0 -54 -26q-10 -13 -23 -13q-6 0 -13 3q-15 9 -15 21q0 6 5 14
q14 22 42 37.5t64 15.5q48 0 73 -22.5t25 -56.5q0 -21 -10.5 -34.5t-30.5 -28.5q-16 -13 -22.5 -20.5t-6.5 -18.5v-8q0 -28 -34 -28q-32 0 -32 28z" />
    <glyph glyph-name="uni1EE1" unicode="&#x1ee1;" horiz-adv-x="637" 
d="M665.5 397.5q-35.5 -39.5 -95.5 -45.5q22 -48 22 -107q0 -68 -31.5 -126.5t-93 -93.5t-148.5 -35t-149 35t-93.5 93.5t-31.5 126.5t31.5 126.5t93.5 93.5t149 35q74 0 129.5 -25.5t90.5 -70.5l23 3q73 9 73 88q0 38 32 38q17 0 25.5 -10t8.5 -28q0 -58 -35.5 -97.5z
M463.5 104q54.5 51 54.5 141t-54.5 141t-144.5 51q-91 0 -145.5 -51t-54.5 -141t54.5 -141t145.5 -51q90 0 144.5 51zM152 621q0 9 2 15q9 34 33.5 56t60.5 22q24 0 42.5 -8.5t43.5 -24.5q17 -12 28.5 -18t24.5 -6q34 0 46 42q7 21 25 21q14 0 21.5 -6.5t7.5 -18.5l-2 -12
q-10 -36 -35 -57.5t-60 -21.5q-23 0 -39.5 8t-39.5 23q-19 13 -32 19.5t-28 6.5q-32 0 -45 -41q-8 -22 -25 -22q-29 0 -29 23z" />
    <glyph glyph-name="ohungarumlaut" unicode="&#x151;" horiz-adv-x="637" 
d="M170 25q-62 35 -93.5 93.5t-31.5 126.5t31.5 126.5t93.5 93.5t149 35t148.5 -35t93 -93.5t31.5 -126.5t-31.5 -126.5t-93 -93.5t-148.5 -35t-149 35zM463.5 104q54.5 51 54.5 141t-54.5 141t-144.5 51q-91 0 -145.5 -51t-54.5 -141t54.5 -141t145.5 -51q90 0 144.5 51z
M380.5 581q-3.5 6 -3.5 13q0 10 6 19l87 144q14 25 34 25q10 0 19 -5q22 -10 22 -28q0 -10 -8 -21l-104 -142q-12 -17 -29 -17q-6 0 -13 3t-10.5 9zM208 594q0 12 5 19l83 145q14 24 34 24q7 0 19 -5q21 -10 21 -28q0 -9 -7 -20l-100 -143q-11 -17 -28 -17q-7 0 -14 3
q-13 6 -13 22z" />
    <glyph glyph-name="omacron" unicode="&#x14d;" horiz-adv-x="637" 
d="M170 25q-62 35 -93.5 93.5t-31.5 126.5t31.5 126.5t93.5 93.5t149 35t148.5 -35t93 -93.5t31.5 -126.5t-31.5 -126.5t-93 -93.5t-148.5 -35t-149 35zM463.5 104q54.5 51 54.5 141t-54.5 141t-144.5 51q-91 0 -145.5 -51t-54.5 -141t54.5 -141t145.5 -51q90 0 144.5 51z
M160 604q0 16 9.5 21.5t26.5 5.5h245q18 0 27 -6t9 -21q0 -26 -36 -26h-245q-36 0 -36 26z" />
    <glyph glyph-name="oslash" unicode="&#xf8;" horiz-adv-x="645" 
d="M560 380q36 -61 36 -135q0 -68 -31.5 -126.5t-93 -93.5t-148.5 -35q-48 0 -84 10l-23 -49q-10 -21 -30 -21q-7 0 -14 3q-20 9 -20 27q0 6 3 14l23 49q-63 33 -96 92.5t-33 129.5q0 68 31.5 126.5t93.5 93.5t149 35q40 0 71 -7l22 47q4 9 12 14.5t17 5.5q7 0 14 -3
q20 -9 20 -26q0 -7 -3 -15l-20 -43q68 -32 104 -93zM143.5 147.5q21.5 -41.5 61.5 -65.5l162 352q-21 3 -44 3q-91 0 -146 -50.5t-55 -141.5q0 -56 21.5 -97.5zM468.5 103.5q54.5 50.5 54.5 141.5q0 61 -24.5 104t-69.5 65l-163 -355q27 -6 57 -6q91 0 145.5 50.5z" />
    <glyph glyph-name="oslashacute" unicode="&#x1ff;" horiz-adv-x="645" 
d="M560 380q36 -61 36 -135q0 -68 -31.5 -126.5t-93 -93.5t-148.5 -35q-48 0 -84 10l-23 -49q-10 -21 -30 -21q-7 0 -14 3q-20 9 -20 27q0 6 3 14l23 49q-63 33 -96 92.5t-33 129.5q0 68 31.5 126.5t93.5 93.5t149 35q40 0 71 -7l22 47q4 9 12 14.5t17 5.5q7 0 14 -3
q20 -9 20 -26q0 -7 -3 -15l-20 -43q68 -32 104 -93zM143.5 147.5q21.5 -41.5 61.5 -65.5l162 352q-21 3 -44 3q-91 0 -146 -50.5t-55 -141.5q0 -56 21.5 -97.5zM468.5 103.5q54.5 50.5 54.5 141.5q0 61 -24.5 104t-69.5 65l-163 -355q27 -6 57 -6q91 0 145.5 50.5zM298 580
q0 7 3 13l62 141q12 28 33 28q10 0 19 -5q20 -10 20 -27q0 -9 -6 -20l-78 -138q-9 -17 -26 -17q-6 0 -12 3q-15 7 -15 22z" />
    <glyph glyph-name="otilde" unicode="&#xf5;" horiz-adv-x="637" 
d="M170 25q-62 35 -93.5 93.5t-31.5 126.5t31.5 126.5t93.5 93.5t149 35t148.5 -35t93 -93.5t31.5 -126.5t-31.5 -126.5t-93 -93.5t-148.5 -35t-149 35zM463.5 104q54.5 51 54.5 141t-54.5 141t-144.5 51q-91 0 -145.5 -51t-54.5 -141t54.5 -141t145.5 -51q90 0 144.5 51z
M151 618q0 9 2 15q9 34 33.5 56t60.5 22q24 0 42.5 -8.5t43.5 -24.5q17 -12 28.5 -18t24.5 -6q34 0 46 42q7 21 25 21q14 0 21.5 -6.5t7.5 -18.5l-2 -12q-10 -36 -35 -57.5t-60 -21.5q-23 0 -39.5 8t-39.5 23q-19 13 -32 19.5t-28 6.5q-32 0 -45 -41q-8 -22 -25 -22
q-29 0 -29 23z" />
    <glyph glyph-name="oe" unicode="&#x153;" horiz-adv-x="1100" 
d="M175 22q-62 32 -96 89.5t-34 133.5t34 133.5t96 89.5t144 32q75 0 136 -32t97 -92q31 58 93.5 91t141.5 33q78 0 139 -25t95 -69.5t34 -101.5q0 -42 -23.5 -64.5t-64.5 -22.5h-377q0 -76 53 -119.5t147 -43.5q57 0 97 13.5t78 44.5q19 16 32 16q8 0 18 -8q13 -12 13 -25
q0 -12 -10 -21q-41 -41 -99 -62t-129 -21q-83 0 -144.5 32t-93.5 91q-36 -60 -96.5 -92t-136.5 -32q-82 0 -144 32zM464.5 105q53.5 52 53.5 140t-53.5 140t-145.5 52t-146 -51.5t-54 -140.5t54 -140.5t146 -51.5t145.5 52zM945 276q19 0 28 8t9 27q0 37 -24.5 65.5
t-69 44.5t-101.5 16q-58 0 -102 -20.5t-68.5 -57t-24.5 -83.5h353z" />
    <glyph glyph-name="p" unicode="p" horiz-adv-x="667" 
d="M78.5 -288.5q-9.5 10.5 -9.5 29.5v719q0 19 9.5 29.5t26.5 10.5q18 0 27.5 -11t9.5 -29v-64q77 104 222 104q121 0 190.5 -67t69.5 -184q0 -79 -32 -137.5t-91.5 -90t-139.5 -31.5q-69 0 -121.5 24.5t-96.5 77.5v-351q0 -18 -10 -29t-28 -11q-17 0 -26.5 10.5z
M498.5 105.5q51.5 52.5 51.5 145.5q0 90 -50.5 138t-144.5 48q-99 0 -156 -50.5t-57 -137.5q0 -58 26.5 -102.5t75 -69t112.5 -24.5q91 0 142.5 52.5z" />
    <glyph glyph-name="thorn" unicode="&#xfe;" horiz-adv-x="675" 
d="M82.5 -288.5q-9.5 10.5 -9.5 29.5v1008q0 19 9.5 29.5t26.5 10.5q18 0 28 -11t10 -29v-351q84 102 213 102q127 0 197.5 -67t70.5 -188q0 -78 -32.5 -135.5t-93 -88.5t-142.5 -31q-129 0 -213 102v-351q0 -18 -10 -29t-28 -11q-17 0 -26.5 10.5zM501 104q53 51 53 141
q0 95 -50 143.5t-148 48.5t-154 -51.5t-56 -140.5q0 -55 27 -99t75 -68.5t108 -24.5q92 0 145 51z" />
    <glyph glyph-name="q" unicode="q" horiz-adv-x="667" 
d="M534.5 -288.5q-10.5 10.5 -10.5 29.5v351q-40 -50 -95.5 -76t-123.5 -26q-122 0 -192 67t-70 185q0 122 70 190t197 68q142 0 215 -104v64q0 19 10 29.5t27 10.5t26.5 -10.5t9.5 -29.5v-719q0 -19 -9.5 -29.5t-26.5 -10.5t-27.5 10.5zM421.5 78q48.5 25 76 68.5
t27.5 98.5q0 89 -56 140.5t-153 51.5q-98 0 -148.5 -49.5t-50.5 -145.5q0 -89 51.5 -139t143.5 -50q61 0 109.5 25z" />
    <glyph glyph-name="r" unicode="r" horiz-adv-x="432" 
d="M80.5 0.5q-9.5 10.5 -9.5 29.5v430q0 19 9 29.5t27 10.5q17 0 26.5 -10.5t9.5 -29.5v-60q68 90 188 90h25q19 0 30 -8.5t11 -23.5t-11 -23t-30 -8h-28q-85 0 -134.5 -48.5t-49.5 -131.5v-217q0 -18 -9.5 -29t-27.5 -11q-17 0 -26.5 10.5z" />
    <glyph glyph-name="racute" unicode="&#x155;" horiz-adv-x="432" 
d="M80.5 0.5q-9.5 10.5 -9.5 29.5v430q0 19 9 29.5t27 10.5q17 0 26.5 -10.5t9.5 -29.5v-60q68 90 188 90h25q19 0 30 -8.5t11 -23.5t-11 -23t-30 -8h-28q-85 0 -134.5 -48.5t-49.5 -131.5v-217q0 -18 -9.5 -29t-27.5 -11q-17 0 -26.5 10.5zM212 600q0 7 3 13l62 141
q12 28 33 28q10 0 19 -5q20 -10 20 -27q0 -9 -6 -20l-78 -138q-9 -17 -26 -17q-6 0 -12 3q-15 7 -15 22z" />
    <glyph glyph-name="rcaron" unicode="&#x159;" horiz-adv-x="432" 
d="M80.5 0.5q-9.5 10.5 -9.5 29.5v430q0 19 9 29.5t27 10.5q17 0 26.5 -10.5t9.5 -29.5v-60q68 90 188 90h25q19 0 30 -8.5t11 -23.5t-11 -23t-30 -8h-28q-85 0 -134.5 -48.5t-49.5 -131.5v-217q0 -18 -9.5 -29t-27.5 -11q-17 0 -26.5 10.5zM205 590l-106 127q-10 13 -10 23
q0 13 15 25q8 7 19 7q15 0 31 -20l83 -112l84 112q14 20 32 20q8 0 17 -6q15 -10 15 -26q0 -13 -10 -24l-105 -126q-14 -17 -33 -17q-18 0 -32 17z" />
    <glyph glyph-name="uni0157" unicode="&#x157;" horiz-adv-x="441" 
d="M80.5 0.5q-9.5 10.5 -9.5 29.5v430q0 19 9 29.5t27 10.5q17 0 26.5 -10.5t9.5 -29.5v-60q68 90 188 90h25q19 0 30 -8.5t11 -23.5t-11 -23t-30 -8h-28q-85 0 -134.5 -48.5t-49.5 -131.5v-217q0 -18 -9.5 -29t-27.5 -11q-17 0 -26.5 10.5zM38 -287q0 10 16 24
q26 23 39.5 41t15.5 38q-8 -2 -13 -2q-21 0 -36.5 14.5t-15.5 35.5q0 27 17 43t46 16q30 0 47.5 -20t17.5 -56t-21.5 -72t-59.5 -66q-22 -17 -32 -17q-8 0 -14 7q-7 7 -7 14z" />
    <glyph glyph-name="uni1E5B" unicode="&#x1e5b;" horiz-adv-x="441" 
d="M80.5 0.5q-9.5 10.5 -9.5 29.5v430q0 19 9 29.5t27 10.5q17 0 26.5 -10.5t9.5 -29.5v-60q68 90 188 90h25q19 0 30 -8.5t11 -23.5t-11 -23t-30 -8h-28q-85 0 -134.5 -48.5t-49.5 -131.5v-217q0 -18 -9.5 -29t-27.5 -11q-17 0 -26.5 10.5zM70.5 -164.5
q-15.5 14.5 -15.5 35.5q0 22 15.5 37t38.5 15q22 0 37 -15t15 -37q0 -21 -15 -35.5t-37 -14.5q-23 0 -38.5 14.5z" />
    <glyph glyph-name="uni1E5D" unicode="&#x1e5d;" horiz-adv-x="441" 
d="M80.5 0.5q-9.5 10.5 -9.5 29.5v430q0 19 9 29.5t27 10.5q17 0 26.5 -10.5t9.5 -29.5v-60q68 90 188 90h25q19 0 30 -8.5t11 -23.5t-11 -23t-30 -8h-28q-85 0 -134.5 -48.5t-49.5 -131.5v-217q0 -18 -9.5 -29t-27.5 -11q-17 0 -26.5 10.5zM70.5 -164.5
q-15.5 14.5 -15.5 35.5q0 22 15.5 37t38.5 15q22 0 37 -15t15 -37q0 -21 -15 -35.5t-37 -14.5q-23 0 -38.5 14.5zM78 604q0 16 9.5 21.5t26.5 5.5h245q18 0 27 -6t9 -21q0 -26 -36 -26h-245q-36 0 -36 26z" />
    <glyph glyph-name="uni1E5F" unicode="&#x1e5f;" horiz-adv-x="432" 
d="M80.5 0.5q-9.5 10.5 -9.5 29.5v430q0 19 9 29.5t27 10.5q17 0 26.5 -10.5t9.5 -29.5v-60q68 90 188 90h25q19 0 30 -8.5t11 -23.5t-11 -23t-30 -8h-28q-85 0 -134.5 -48.5t-49.5 -131.5v-217q0 -18 -9.5 -29t-27.5 -11q-17 0 -26.5 10.5zM-49 -114q0 16 9.5 21.5
t26.5 5.5h245q18 0 27 -6t9 -21q0 -26 -36 -26h-245q-36 0 -36 26z" />
    <glyph glyph-name="s" unicode="s" horiz-adv-x="517" 
d="M151 16.5q-62 26.5 -98 73.5q-7 10 -7 20t5.5 17.5t14.5 11.5q8 3 13 3q9 0 15.5 -4.5t15.5 -14.5q65 -69 173 -69q52 0 84 18t32 50q0 23 -12.5 37.5t-42 27t-96.5 35.5q-65 22 -102 42t-55 45.5t-18 62.5q0 58 50.5 93t134.5 35q62 0 115 -21.5t80 -57.5q8 -11 8 -21
q0 -15 -16 -24q-10 -6 -20 -6q-17 0 -32 15q-26 26 -57 38.5t-79 12.5q-53 0 -81 -17t-28 -48q0 -23 11.5 -36.5t37 -24t89.5 -31.5q72 -24 111.5 -45.5t57 -47.5t17.5 -64q0 -60 -52.5 -96t-136.5 -36q-70 0 -132 26.5z" />
    <glyph glyph-name="sacute" unicode="&#x15b;" horiz-adv-x="517" 
d="M151 16.5q-62 26.5 -98 73.5q-7 10 -7 20t5.5 17.5t14.5 11.5q8 3 13 3q9 0 15.5 -4.5t15.5 -14.5q65 -69 173 -69q52 0 84 18t32 50q0 23 -12.5 37.5t-42 27t-96.5 35.5q-65 22 -102 42t-55 45.5t-18 62.5q0 58 50.5 93t134.5 35q62 0 115 -21.5t80 -57.5q8 -11 8 -21
q0 -15 -16 -24q-10 -6 -20 -6q-17 0 -32 15q-26 26 -57 38.5t-79 12.5q-53 0 -81 -17t-28 -48q0 -23 11.5 -36.5t37 -24t89.5 -31.5q72 -24 111.5 -45.5t57 -47.5t17.5 -64q0 -60 -52.5 -96t-136.5 -36q-70 0 -132 26.5zM236 600q0 7 3 13l62 141q12 28 33 28q10 0 19 -5
q20 -10 20 -27q0 -9 -6 -20l-78 -138q-9 -17 -26 -17q-6 0 -12 3q-15 7 -15 22z" />
    <glyph glyph-name="scaron" unicode="&#x161;" horiz-adv-x="517" 
d="M151 16.5q-62 26.5 -98 73.5q-7 10 -7 20t5.5 17.5t14.5 11.5q8 3 13 3q9 0 15.5 -4.5t15.5 -14.5q65 -69 173 -69q52 0 84 18t32 50q0 23 -12.5 37.5t-42 27t-96.5 35.5q-65 22 -102 42t-55 45.5t-18 62.5q0 58 50.5 93t134.5 35q62 0 115 -21.5t80 -57.5q8 -11 8 -21
q0 -15 -16 -24q-10 -6 -20 -6q-17 0 -32 15q-26 26 -57 38.5t-79 12.5q-53 0 -81 -17t-28 -48q0 -23 11.5 -36.5t37 -24t89.5 -31.5q72 -24 111.5 -45.5t57 -47.5t17.5 -64q0 -60 -52.5 -96t-136.5 -36q-70 0 -132 26.5zM229 590l-106 127q-10 13 -10 23q0 13 15 25
q8 7 19 7q15 0 31 -20l83 -112l84 112q14 20 32 20q8 0 17 -6q15 -10 15 -26q0 -13 -10 -24l-105 -126q-14 -17 -33 -17q-18 0 -32 17z" />
    <glyph glyph-name="scedilla" unicode="&#x15f;" horiz-adv-x="517" 
d="M307 -12l-23 -45q41 1 62 -19t21 -51q0 -37 -26 -60.5t-72 -23.5q-35 0 -62 14.5t-42 35.5q-7 10 -7 16q0 8 12 19q8 6 15 6q10 0 19 -12q10 -14 26 -22t36 -8q21 0 32.5 10t11.5 27q0 36 -36 36q-9 0 -14 -1q-14 -2 -24.5 5.5t-10.5 20.5q0 6 3 12l21 44
q-61 6 -113 31.5t-83 66.5q-7 10 -7 20t5.5 17.5t14.5 11.5q8 3 13 3q9 0 15.5 -4.5t15.5 -14.5q65 -69 173 -69q52 0 84 18t32 50q0 23 -12.5 37.5t-42 27t-96.5 35.5q-65 22 -102 42t-55 45.5t-18 62.5q0 58 50.5 93t134.5 35q62 0 115 -21.5t80 -57.5q8 -11 8 -21
q0 -15 -16 -24q-10 -6 -20 -6q-17 0 -32 15q-26 26 -57 38.5t-79 12.5q-53 0 -81 -17t-28 -48q0 -23 11.5 -36.5t37 -24t89.5 -31.5q72 -24 111.5 -45.5t57 -47.5t17.5 -64q0 -55 -45 -90.5t-119 -40.5z" />
    <glyph glyph-name="scircumflex" unicode="&#x15d;" horiz-adv-x="517" 
d="M151 16.5q-62 26.5 -98 73.5q-7 10 -7 20t5.5 17.5t14.5 11.5q8 3 13 3q9 0 15.5 -4.5t15.5 -14.5q65 -69 173 -69q52 0 84 18t32 50q0 23 -12.5 37.5t-42 27t-96.5 35.5q-65 22 -102 42t-55 45.5t-18 62.5q0 58 50.5 93t134.5 35q62 0 115 -21.5t80 -57.5q8 -11 8 -21
q0 -15 -16 -24q-10 -6 -20 -6q-17 0 -32 15q-26 26 -57 38.5t-79 12.5q-53 0 -81 -17t-28 -48q0 -23 11.5 -36.5t37 -24t89.5 -31.5q72 -24 111.5 -45.5t57 -47.5t17.5 -64q0 -60 -52.5 -96t-136.5 -36q-70 0 -132 26.5zM113 606q0 10 10 23l106 126q14 17 32 17
q19 0 33 -17l105 -126q10 -13 10 -23q0 -14 -14 -25q-10 -7 -20 -7q-15 0 -30 19l-84 112l-83 -112q-15 -20 -32 -20q-8 0 -18 7q-15 12 -15 26z" />
    <glyph glyph-name="uni0219" unicode="&#x219;" horiz-adv-x="517" 
d="M151 16.5q-62 26.5 -98 73.5q-7 10 -7 20t5.5 17.5t14.5 11.5q8 3 13 3q9 0 15.5 -4.5t15.5 -14.5q65 -69 173 -69q52 0 84 18t32 50q0 23 -12.5 37.5t-42 27t-96.5 35.5q-65 22 -102 42t-55 45.5t-18 62.5q0 58 50.5 93t134.5 35q62 0 115 -21.5t80 -57.5q8 -11 8 -21
q0 -15 -16 -24q-10 -6 -20 -6q-17 0 -32 15q-26 26 -57 38.5t-79 12.5q-53 0 -81 -17t-28 -48q0 -23 11.5 -36.5t37 -24t89.5 -31.5q72 -24 111.5 -45.5t57 -47.5t17.5 -64q0 -60 -52.5 -96t-136.5 -36q-70 0 -132 26.5zM205 -287q0 10 16 24q26 23 39.5 41t15.5 38
q-8 -2 -13 -2q-21 0 -36.5 14.5t-15.5 35.5q0 27 17 43t46 16q30 0 47.5 -20t17.5 -56t-21.5 -72t-59.5 -66q-22 -17 -32 -17q-8 0 -14 7q-7 7 -7 14z" />
    <glyph glyph-name="uni1E61" unicode="&#x1e61;" horiz-adv-x="517" 
d="M151 16.5q-62 26.5 -98 73.5q-7 10 -7 20t5.5 17.5t14.5 11.5q8 3 13 3q9 0 15.5 -4.5t15.5 -14.5q65 -69 173 -69q52 0 84 18t32 50q0 23 -12.5 37.5t-42 27t-96.5 35.5q-65 22 -102 42t-55 45.5t-18 62.5q0 58 50.5 93t134.5 35q62 0 115 -21.5t80 -57.5q8 -11 8 -21
q0 -15 -16 -24q-10 -6 -20 -6q-17 0 -32 15q-26 26 -57 38.5t-79 12.5q-53 0 -81 -17t-28 -48q0 -23 11.5 -36.5t37 -24t89.5 -31.5q72 -24 111.5 -45.5t57 -47.5t17.5 -64q0 -60 -52.5 -96t-136.5 -36q-70 0 -132 26.5zM223 607.5q-16 15.5 -16 35.5q0 21 16 36.5t38 15.5
q21 0 36.5 -15.5t15.5 -36.5q0 -20 -15.5 -35.5t-36.5 -15.5q-22 0 -38 15.5z" />
    <glyph glyph-name="uni1E63" unicode="&#x1e63;" horiz-adv-x="517" 
d="M151 16.5q-62 26.5 -98 73.5q-7 10 -7 20t5.5 17.5t14.5 11.5q8 3 13 3q9 0 15.5 -4.5t15.5 -14.5q65 -69 173 -69q52 0 84 18t32 50q0 23 -12.5 37.5t-42 27t-96.5 35.5q-65 22 -102 42t-55 45.5t-18 62.5q0 58 50.5 93t134.5 35q62 0 115 -21.5t80 -57.5q8 -11 8 -21
q0 -15 -16 -24q-10 -6 -20 -6q-17 0 -32 15q-26 26 -57 38.5t-79 12.5q-53 0 -81 -17t-28 -48q0 -23 11.5 -36.5t37 -24t89.5 -31.5q72 -24 111.5 -45.5t57 -47.5t17.5 -64q0 -60 -52.5 -96t-136.5 -36q-70 0 -132 26.5zM239.5 -164.5q-15.5 14.5 -15.5 35.5q0 22 15.5 37
t38.5 15q22 0 37 -15t15 -37q0 -21 -15 -35.5t-37 -14.5q-23 0 -38.5 14.5z" />
    <glyph glyph-name="germandbls" unicode="&#xdf;" horiz-adv-x="637" 
d="M278 6q-44 17 -66 43q-10 11 -10 23q0 15 14 27q11 9 24 9q16 0 34 -15q37 -34 95 -34q68 0 103.5 40.5t35.5 116.5q0 75 -45.5 112t-137.5 37h-41q-21 0 -32.5 8.5t-11.5 24.5q0 34 44 34h54q114 0 114 124q0 51 -41.5 82t-111.5 31q-71 0 -111 -39.5t-40 -109.5v-489
q0 -13 -12.5 -22.5t-28.5 -9.5t-29 10t-13 22v494q0 61 30.5 109.5t83.5 76.5t120 28q70 0 123.5 -23t83.5 -64.5t30 -95.5q0 -59 -23 -95.5t-73 -56.5v-2q73 -17 112.5 -65t39.5 -118q0 -109 -59 -169.5t-164 -60.5q-47 0 -91 17z" />
    <glyph glyph-name="t" unicode="t" horiz-adv-x="452" 
d="M415 78q0 -10 -9 -24q-21 -29 -58 -46.5t-76 -17.5q-66 0 -104 39t-38 107v293h-54q-40 0 -40 31q0 14 10.5 22t29.5 8h54v171q0 19 9.5 29.5t27.5 10.5q17 0 26.5 -10.5t9.5 -29.5v-171h136q18 0 28.5 -7.5t10.5 -22.5q0 -31 -39 -31h-136v-299q0 -77 72 -77q23 0 42 9
t38 29q15 16 29 16q9 0 20 -8q11 -9 11 -21z" />
    <glyph glyph-name="tbar" unicode="&#x167;" horiz-adv-x="462" 
d="M427 78q0 -10 -9 -24q-21 -29 -58 -46.5t-76 -17.5q-66 0 -104 39t-38 107v94h-42q-42 0 -42 34t42 34h42v131h-54q-40 0 -40 31q0 14 10.5 22t29.5 8h54v171q0 19 9.5 29.5t27.5 10.5q17 0 26.5 -10.5t9.5 -29.5v-171h136q18 0 28.5 -7.5t10.5 -22.5q0 -31 -39 -31h-136
v-131h130q42 0 42 -34t-42 -34h-130v-100q0 -77 72 -77q23 0 42 9t38 29q15 16 29 16q9 0 20 -8q11 -9 11 -21z" />
    <glyph glyph-name="tcaron" unicode="&#x165;" horiz-adv-x="468" 
d="M415 78q0 -10 -9 -24q-21 -29 -58 -46.5t-76 -17.5q-66 0 -104 39t-38 107v293h-54q-40 0 -40 31q0 14 10.5 22t29.5 8h54v171q0 19 9.5 29.5t27.5 10.5q17 0 26.5 -10.5t9.5 -29.5v-171h136q18 0 28.5 -7.5t10.5 -22.5q0 -31 -39 -31h-136v-299q0 -77 72 -77q23 0 42 9
t38 29q15 16 29 16q9 0 20 -8q11 -9 11 -21zM311 565q0 11 17 25q51 43 54 77q-8 -2 -13 -2q-21 0 -36 14.5t-15 35.5q0 27 17 42.5t46 15.5t46 -20.5t17 -54.5q0 -70 -79 -135q-22 -18 -34 -18q-8 0 -15 8q-5 7 -5 12z" />
    </font>
</defs>
</svg>
